<?xml version="1.0" encoding="UTF-8" standalone="no"?>
<svg
   xmlns:dc="http://purl.org/dc/elements/1.1/"
   xmlns:cc="http://creativecommons.org/ns#"
   xmlns:rdf="http://www.w3.org/1999/02/22-rdf-syntax-ns#"
   xmlns:svg="http://www.w3.org/2000/svg"
   xmlns="http://www.w3.org/2000/svg"
   xmlns:sodipodi="http://sodipodi.sourceforge.net/DTD/sodipodi-0.dtd"
   xmlns:inkscape="http://www.inkscape.org/namespaces/inkscape"
   width="205px"
   height="48px"
   viewBox="0 0 205 48"
   version="1.1"
   id="svg25"
   sodipodi:docname="accesoLlave.svg"
   inkscape:version="1.0.1 (3bc2e813f5, 2020-09-07)">
  <metadata
     id="metadata31">
    <rdf:RDF>
      <cc:Work
         rdf:about="">
        <dc:format>image/svg+xml</dc:format>
        <dc:type
           rdf:resource="http://purl.org/dc/dcmitype/StillImage" />
        <dc:title>Button_Llave CDMX</dc:title>
      </cc:Work>
    </rdf:RDF>
  </metadata>
  <defs
     id="defs29" />
  <sodipodi:namedview
     pagecolor="#ffffff"
     bordercolor="#666666"
     borderopacity="1"
     objecttolerance="10"
     gridtolerance="10"
     guidetolerance="10"
     inkscape:pageopacity="0"
     inkscape:pageshadow="2"
     inkscape:window-width="1920"
     inkscape:window-height="1017"
     id="namedview27"
     showgrid="false"
     inkscape:zoom="2.1649824"
     inkscape:cx="102.5"
     inkscape:cy="24"
     inkscape:window-x="-8"
     inkscape:window-y="-8"
     inkscape:window-maximized="1"
     inkscape:current-layer="svg25"
     inkscape:document-rotation="0" />
  <title
     id="title2">Button_Llave CDMX</title>
  <g
     id="Page-1"
     stroke="none"
     stroke-width="1"
     fill="none"
     fill-rule="evenodd">
    <g
       id="Landing-renovación-licencia"
       transform="translate(-617.000000, -487.000000)">
      <g
         id="Button_Llave-CDMX"
         transform="translate(617.000000, 487.000000)">
        <rect
           id="Rectangle"
           fill="#0F4C42"
           x="0"
           y="0"
           width="205"
           height="48"
           rx="6" />
        <g
           id="Group-26"
           transform="translate(28.000000, 4.000000)">
          <g
             id="Group-25"
             transform="translate(40.000000, 3.000000)"
             line-spacing="20">
            <text
               id="Ingresa-con-tu-cuent"
               font-family="Gotham-Medium, Gotham"
               font-size="10.8935px"
               font-weight="normal"
               fill="#ffffff"
               x="-0.11463674"
               transform="scale(1.0893491,0.91797934)"
               style="stroke-width:1.08935"><tspan
                 x="-0.11463674"
                 y="9.804142"
                 id="tspan5"
                 style="stroke-width:1.08935">Ingresa con tu cuenta</tspan></text>
            <text
               id="Llave-CDMX"
               font-family="Gotham-Bold, Gotham"
               font-size="12.5"
               font-weight="bold"
               fill="#FEFEFE"><tspan
                 x="17"
                 y="27"
                 id="tspan8">Llave CDMX</tspan></text>
          </g>
          <g
             id="Group-3"
             fill="#FFFFFF">
            <path
               d="M12.1964983,21.9351351 C12.4051229,22.2508108 12.6941549,22.3935135 13.1005382,22.4043243 C13.6536107,22.4172973 14.0078379,21.8778378 14.0078379,21.8778378 L23.1786276,10.1859459 C23.9359783,9.40108108 24.6824632,10.0356757 24.6824632,10.0356757 C25.408303,10.7891892 24.8671829,11.4789189 24.8671829,11.4789189 L22.8157077,14.0897297 L22.8157077,14.1027027 C22.6396807,14.2843243 22.531022,14.5297297 22.531022,14.8010811 C22.531022,15.0497297 22.6222953,15.2767568 22.7722442,15.4518919 L22.7722442,15.4562162 L24.8356719,18.0594595 L31.3367187,9.83243243 L28.7386904,6.53837838 L28.2595058,5.91783784 C27.8379103,5.31459459 26.8958398,5.17513514 26.8958398,5.17513514 L23.0036872,5.17513514 C21.97143,5.17513514 21.4096648,5.88540541 21.4096648,5.88540541 L10.5079429,19.8032432 L12.1964983,21.9351351 Z"
               id="Fill-32" />
            <path
               d="M11.7343731,14.8004324 L9.12656559,11.4728649 C8.5963114,10.6231351 9.36996096,10.0144865 9.36996096,10.0144865 C10.3435424,9.44908108 10.9085674,10.3204324 10.9085674,10.3204324 L13.0665281,13.0771892 L15.6200062,9.80475676 L12.6753569,6.03610811 C11.9723355,5.03502703 10.9009613,5.17448649 10.9009613,5.17448649 L7.38476751,5.17448649 C6.25906394,5.17448649 5.77553297,5.8707027 5.77553297,5.8707027 L2.66572254,9.79718919 L9.16676929,18.0588108 L11.7343731,14.8004324 Z"
               id="Fill-33" />
            <path
               d="M21.7847545,17.6362162 C21.7847545,17.6362162 21.4848566,17.1745946 20.9067926,17.1831232 C20.3048237,17.1918919 20.0625149,17.5908108 20.0625149,17.5908108 L10.7971923,29.4286486 C10.046361,30.2491892 9.23902729,29.5897297 9.23902729,29.5897297 C8.51427412,28.8351351 9.10863691,28.1367568 9.10863691,28.1367568 L11.1861902,25.4816216 L11.1872768,25.4675676 C11.3622172,25.287027 11.4708759,25.0405405 11.4708759,24.7691892 C11.4708759,24.5216216 11.3796026,24.2935135 11.2296537,24.1194595 L11.2296537,24.1140541 L9.166226,21.5118919 L2.64453411,29.8308108 L6.28025238,34.4102703 L11.9946105,34.4243243 L23.4863489,19.8016216 L21.7847545,17.6362162 Z"
               id="Fill-34" />
            <path
               d="M22.2638304,24.7703784 L24.8933696,28.1368649 C25.4996849,28.9725405 24.734728,29.5898378 24.734728,29.5898378 C23.7252892,30.2644324 23.1081081,29.2568649 23.1081081,29.2568649 L20.906684,26.4752432 L18.3532058,29.7487568 L22.0367339,34.4384865 L27.7076286,34.4244324 L31.3433468,29.7876757 L24.8281745,21.5076757 L22.2638304,24.7703784 Z"
               id="Fill-35" />
            <path
               d="M31.2949937,17.227027 C29.8411411,17.227027 28.6578484,18.3891892 28.6578484,19.8172973 C28.6578484,21.2443243 29.8411411,22.4064865 31.2949937,22.4064865 C32.7488464,22.4064865 33.9321391,21.2443243 33.9321391,19.8172973 C33.9321391,18.3891892 32.7488464,17.227027 31.2949937,17.227027 M31.2949937,21.2097297 C30.5300369,21.2097297 29.9085094,20.5848649 29.9085094,19.8172973 C29.9085094,19.0486486 30.5300369,18.4237838 31.2949937,18.4237838 C32.0599506,18.4237838 32.681478,19.0486486 32.681478,19.8172973 C32.681478,20.5848649 32.0599506,21.2097297 31.2949937,21.2097297"
               id="Fill-36" />
            <path
               d="M16.9853021,5.17945946 C18.4391548,5.17945946 19.6224474,4.0172973 19.6224474,2.58918919 C19.6224474,1.16216216 18.4391548,-3.19744231e-14 16.9853021,-3.19744231e-14 C15.5314494,-3.19744231e-14 14.3481568,1.16216216 14.3481568,2.58918919 C14.3481568,4.0172973 15.5314494,5.17945946 16.9853021,5.17945946 M16.9853021,1.19783784 C17.750259,1.19783784 18.3717864,1.82162162 18.3717864,2.58918919 C18.3717864,3.35783784 17.750259,3.9827027 16.9853021,3.9827027 C16.2203452,3.9827027 15.5988178,3.35783784 15.5988178,2.58918919 C15.5988178,1.82162162 16.2203452,1.19783784 16.9853021,1.19783784"
               id="Fill-37" />
            <path
               d="M5.27429064,19.8073514 C5.27429064,18.3792432 4.09099799,17.2170811 2.63823191,17.2170811 C1.18329265,17.2170811 -4.97379915e-14,18.3792432 -4.97379915e-14,19.8073514 C-4.97379915e-14,21.2343784 1.18329265,22.3965405 2.63823191,22.3965405 C4.09099799,22.3965405 5.27429064,21.2343784 5.27429064,19.8073514 M1.25066101,19.8073514 C1.25066101,19.0397838 1.87327504,18.4149189 2.63823191,18.4149189 C3.40210218,18.4149189 4.02471622,19.0397838 4.02471622,19.8073514 C4.02471622,20.5749189 3.40210218,21.1997838 2.63823191,21.1997838 C1.87327504,21.1997838 1.25066101,20.5749189 1.25066101,19.8073514"
               id="Fill-38" />
            <path
               d="M16.9889965,34.4398919 C15.5351438,34.4398919 14.3518512,35.6020541 14.3518512,37.0301622 C14.3518512,38.4571892 15.5351438,39.6193514 16.9889965,39.6193514 C18.4428492,39.6193514 19.6250552,38.4571892 19.6250552,37.0301622 C19.6250552,35.6020541 18.4428492,34.4398919 16.9889965,34.4398919 M16.9889965,38.4215135 C16.2240396,38.4215135 15.6025122,37.7977297 15.6025122,37.0301622 C15.6025122,36.2615135 16.2240396,35.6366486 16.9889965,35.6366486 C17.7528668,35.6366486 18.3754808,36.2615135 18.3754808,37.0301622 C18.3754808,37.7977297 17.7528668,38.4215135 16.9889965,38.4215135"
               id="Fill-39" />
          </g>
        </g>
      </g>
    </g>
  </g>
</svg>
