<svg width="25" height="31" viewBox="0 0 25 31" fill="none" xmlns="http://www.w3.org/2000/svg">
<path d="M12.0445 15.8658C16.4356 15.8658 19.9832 12.324 19.9832 7.9358C19.986 3.53316 16.4327 0.0173953 11.9579 6.20906e-05C7.63322 -0.0172712 4.09723 3.59671 4.11457 8.02247C4.1319 12.3644 7.67077 15.8658 12.0445 15.8658Z" fill="#235B4E"/>
<path d="M24.2203 26.3184C24.1481 24.8913 23.7119 23.5624 22.8654 22.3809C21.2766 20.1651 19.1041 19.0875 16.3741 19.0067C15.3399 18.9749 14.5888 19.2175 13.9735 20.0784C13.4448 20.818 12.7775 21.4593 12.0986 22.2306C11.4862 21.5373 10.8679 20.9855 10.4317 20.3153C9.6864 19.18 8.69551 18.946 7.40707 19.0095C3.44932 19.2031 0.0606664 22.3982 0 26.3184V30.9926H24.2348V26.3184H24.2203V26.3184Z" fill="#235B4E"/>
<path d="M16.7167 25.8123C17.2693 25.2063 17.8025 24.6214 18.3357 24.0375C19.7846 22.4508 21.2335 20.8632 22.6833 19.2776C23.0005 18.9313 23.3848 18.9001 23.7204 19.2343C24.0991 19.6119 24.4623 20.0095 24.807 20.4243C25.081 20.7535 25.058 21.2045 24.7712 21.5186C22.2742 24.2579 19.7745 26.9953 17.273 29.7296C16.9401 30.093 16.5044 30.089 16.1706 29.7245C14.8606 28.295 13.5523 26.8634 12.2478 25.4288C11.9177 25.0664 11.9186 24.5992 12.2432 24.2358C12.5686 23.8724 12.8978 23.513 13.2287 23.1556C13.556 22.8032 13.9927 22.8092 14.3172 23.1636C15.084 24.0032 15.8516 24.8439 16.6184 25.6845C16.6496 25.7187 16.6763 25.76 16.7167 25.8144V25.8123Z" fill="#BC955C"/>
</svg>
