<svg width="240" height="60" viewBox="0 0 240 60" fill="none" xmlns="http://www.w3.org/2000/svg">
<path d="M79.8562 33.2C80.1717 33.6784 80.6065 33.8943 81.2184 33.9095C82.052 33.9303 82.5834 33.1129 82.5834 33.1129L96.3957 15.4184C97.5324 14.2288 98.6606 15.1902 98.6606 15.1902C99.7528 16.3268 98.9382 17.3744 98.9382 17.3744L95.8501 21.3251V21.3488C95.3037 21.9103 95.2753 22.7957 95.7847 23.3909V23.3976L98.8927 27.336L108.682 14.8861L104.771 9.90011L104.048 8.95956C103.412 8.04741 101.995 7.83619 101.995 7.83619H96.1333C95.2155 7.83417 94.3409 8.22556 93.731 8.91125L77.3137 29.9729L79.8562 33.2Z" fill="white"/>
<path d="M79.1612 22.4L75.2338 17.3695C74.4343 16.0823 75.6004 15.1616 75.6004 15.1616C77.0668 14.3092 77.9174 15.6257 77.9174 15.6257L81.1666 19.7981L85.0125 14.8434L80.5793 9.1394C79.9868 8.25662 78.9677 7.75776 77.907 7.83133H72.6146C70.9199 7.83133 70.1914 8.88555 70.1914 8.88555L65.509 14.8282L75.2982 27.3311L79.1612 22.4Z" fill="white"/>
<path d="M94.2969 26.693C94.2969 26.693 93.845 25.993 92.9754 26.0072C92.0689 26.0205 91.7023 26.6229 91.7023 26.6229L77.7489 44.5409C76.6197 45.7836 75.4025 44.7843 75.4025 44.7843C74.3102 43.6429 75.2064 42.5849 75.2064 42.5849L78.3324 38.566V38.5452C78.8779 37.9836 78.9059 37.0989 78.3968 36.504V36.4964L75.2888 32.5589L65.4712 45.149L70.9474 52.0796L79.5525 52.1023L96.8649 29.9674L94.2969 26.693Z" fill="white"/>
<path d="M95.0186 37.4892L98.9782 42.5842C99.8905 43.8496 98.7395 44.7835 98.7395 44.7835C97.2239 45.8046 96.2889 44.2796 96.2889 44.2796L92.9734 40.0703L89.1294 45.027L94.6767 52.1252L103.216 52.1044L108.692 45.0857L98.8807 32.5544L95.0186 37.4892Z" fill="white"/>
<path fill-rule="evenodd" clip-rule="evenodd" d="M104.649 29.9923C104.649 27.8317 106.43 26.0728 108.619 26.0728H108.618C110.808 26.0728 112.59 27.8317 112.59 29.9923C112.59 32.1528 110.808 33.9118 108.619 33.9118C106.43 33.9118 104.649 32.1528 104.649 29.9923ZM106.658 30.8108C106.99 31.5977 107.764 32.1063 108.618 32.0986C109.777 32.0924 110.711 31.1494 110.707 29.9911C110.707 29.137 110.191 28.3674 109.402 28.0423C108.612 27.7173 107.704 27.9011 107.102 28.5077C106.501 29.1144 106.325 30.024 106.658 30.8108Z" fill="white"/>
<path fill-rule="evenodd" clip-rule="evenodd" d="M91.0401 3.91947C91.0401 6.08001 89.2583 7.83894 87.0682 7.83894C84.879 7.83894 83.0981 6.08001 83.0981 3.91947C83.0981 1.75893 84.8781 0 87.0682 0C89.2583 0 91.0401 1.75893 91.0401 3.91947ZM89.0327 3.09663C88.699 2.30992 87.9232 1.80258 87.0686 1.81218C85.9121 1.82104 84.9804 2.76323 84.9846 3.91967C84.9846 4.77422 85.5008 5.54414 86.2913 5.86891C87.0818 6.19367 87.9902 6.00898 88.591 5.40132C89.1919 4.79366 89.3664 3.88334 89.0327 3.09663Z" fill="white"/>
<path fill-rule="evenodd" clip-rule="evenodd" d="M65.4634 26.0573C67.6526 26.0573 69.4344 27.8162 69.4344 29.9767C69.4344 32.1382 67.6535 33.8962 65.4634 33.8962C63.2733 33.8962 61.4915 32.1373 61.4915 29.9767C61.4915 27.8162 63.2742 26.0573 65.4634 26.0573ZM65.4726 27.9077C64.3216 27.901 63.3821 28.8265 63.3716 29.9773C63.3679 31.1357 64.3028 32.0785 65.4613 32.0848C66.6123 32.0842 67.5459 31.1527 67.549 30.0019C67.5521 28.851 66.6235 27.9145 65.4726 27.9077Z" fill="white"/>
<path fill-rule="evenodd" clip-rule="evenodd" d="M0 3.89508H45.6219V34.315C45.6219 51.0121 22.8218 56.0435 22.8218 56.0435H22.8C22.8 56.0435 0 51.0121 0 34.315V3.89508ZM44.5121 34.3149V5.00511H1.11063V34.3149C1.11063 37.8754 2.2322 41.1622 4.45262 44.0852C6.25529 46.4636 8.78358 48.6165 11.9674 50.4844C16.8203 53.3326 21.7149 54.635 22.8147 54.9068C23.9182 54.6321 28.8517 53.3155 33.7084 50.455C36.8789 48.5872 39.3968 46.4361 41.1919 44.0606C43.3952 41.1461 44.5121 37.8659 44.5121 34.3149Z" fill="white"/>
<path d="M28.3372 13.6329V10.8387H25.4632V13.4472H24.3406V10.8387H21.3804V13.4472H20.2579V10.8387H17.3374V13.6348L18.7583 16.0842C18.8077 16.1707 18.8336 16.2687 18.8332 16.3683L18.8455 29.1554H20.2304L20.2152 24.5615C20.2152 23.477 21.4467 22.491 22.8022 22.491C24.1578 22.491 25.3893 23.477 25.3893 24.5596L25.4035 29.1554H26.8244L26.8197 24.3048C26.8197 24.2831 26.8197 24.2594 26.8197 24.2376V21.8355C26.8197 21.8223 26.8197 21.8099 26.8197 21.7986V20.0472C26.8192 20.0444 26.8192 20.0415 26.8197 20.0387V19.2734V16.3674C26.8196 16.2674 26.8464 16.1693 26.8973 16.0832L28.3372 13.6329Z" fill="white"/>
<path d="M17.7275 29.4567V25.218L17.2169 25.524C17.0295 25.6371 16.7933 25.6305 16.6126 25.5069L15.9959 25.0854C15.9973 25.1034 15.9973 25.1214 15.9959 25.1394L15.9741 26.7724C15.9724 26.942 15.8936 27.1016 15.76 27.2062C15.8243 27.2275 15.8845 27.2595 15.9381 27.3009C16.6846 27.9005 16.7395 28.7586 16.5794 29.4557L17.7275 29.4567Z" fill="white"/>
<path d="M22.8043 23.6214C21.9432 23.6214 21.3389 24.2342 21.3389 24.5686L21.3531 29.1662H24.2821L24.2688 24.5686C24.2688 24.2351 23.6654 23.6214 22.8043 23.6214Z" fill="white"/>
<path d="M5.70278 29.4566C5.52684 29.0446 5.40582 28.6111 5.34281 28.1675C5.25533 27.5938 5.21825 27.0134 5.23198 26.4332C5.24127 26.1952 5.3995 25.9888 5.627 25.9179L6.85846 25.5391L5.4688 24.5597C5.32046 24.4545 5.23221 24.284 5.23198 24.1022V22.5478C5.23169 22.3389 5.34785 22.1471 5.53322 22.0506L6.07506 21.7664V21.2379L5.58153 21.039C5.37098 20.9516 5.233 20.7469 5.23104 20.519V18.6502C5.23102 18.3422 5.47907 18.0916 5.78709 18.0885L7.51871 18.0724C7.48745 17.6139 7.47893 16.9878 7.58976 16.4688C7.74038 15.7679 8.13918 15.0073 8.32958 14.6691L8.23485 14.0203C8.21157 13.8597 8.25928 13.6968 8.36558 13.5742C8.47358 13.4534 8.62796 13.3845 8.78996 13.3847H9.72398C9.83029 13.3848 9.93441 13.415 10.0243 13.4719L12.3063 14.9182H13.3549C13.5079 14.9184 13.6542 14.9809 13.7601 15.0914C13.8659 15.2019 13.9221 15.3507 13.9157 15.5036L13.8371 17.3033C13.8295 17.452 13.7638 17.5917 13.6542 17.6926H14.3514C14.5036 17.6937 14.649 17.7558 14.755 17.8649L15.0723 18.1946L15.3139 18.0108L15.7193 17.1583C15.8121 16.9625 16.0094 16.8375 16.2261 16.8372H17.7152V16.5171L16.2943 14.0677C16.2435 13.9816 16.217 13.8834 16.2176 13.7835V10.2789C16.2176 10.13 16.2768 9.98725 16.3822 9.88207C16.4875 9.77688 16.6304 9.71791 16.7793 9.71816H28.9045C29.2142 9.71816 29.4653 9.96921 29.4653 10.2789V13.7835C29.4656 13.8835 29.4387 13.9817 29.3876 14.0677L27.9335 16.5171V16.8325H29.4103C29.6271 16.8326 29.8244 16.9576 29.9171 17.1536L30.3225 18.0061L30.5631 18.1898L30.8824 17.8602C30.9874 17.7507 31.1323 17.6885 31.284 17.6878H31.9822C31.8729 17.5868 31.8076 17.4471 31.8003 17.2985L31.7207 15.4989C31.7143 15.346 31.7705 15.1971 31.8763 15.0866C31.9822 14.9761 32.1285 14.9136 32.2815 14.9135H33.3311L35.6131 13.4671C35.7026 13.4103 35.8064 13.3801 35.9124 13.38H36.8464C37.0089 13.38 37.1633 13.4505 37.2698 13.5731C37.3762 13.6958 37.4243 13.8585 37.4015 14.0194L37.3068 14.6682C37.4963 15.0073 37.896 15.7679 38.0457 16.4678C38.1584 16.9869 38.148 17.613 38.1177 18.0714L39.8493 18.0875C40.1575 18.0906 40.4058 18.3411 40.4063 18.6492V20.518C40.4065 20.7463 40.2683 20.952 40.0568 21.038L39.5642 21.2369V21.7655L40.1041 22.0496C40.2897 22.1461 40.4062 22.3378 40.4063 22.5469V24.1012C40.4065 24.2829 40.3186 24.4534 40.1704 24.5587L38.7846 25.5391L40.0113 25.9179C40.2386 25.9888 40.3965 26.1953 40.4054 26.4332C40.4203 27.0134 40.3835 27.5938 40.2955 28.1675C40.2319 28.6112 40.1102 29.0446 39.9336 29.4566H41.9741H42.0006V7.77737H3.66992V29.4566H5.70278Z" fill="white"/>
<path d="M29.7029 27.3018C29.7558 27.2593 29.8162 27.2272 29.8809 27.207C29.7472 27.1024 29.6678 26.943 29.665 26.7732L29.6441 25.1355C29.6432 25.1172 29.6432 25.0989 29.6441 25.0806L29.0284 25.5021C28.8474 25.6263 28.6106 25.6337 28.4221 25.521L27.9409 25.2303V29.4528H29.0568C28.8967 28.7538 28.9517 27.8966 29.6991 27.298" fill="white"/>
<path d="M37.1542 41.0494C37.0053 41.0494 36.8625 40.9902 36.7573 40.8849C36.6521 40.7795 36.5932 40.6366 36.5934 40.4878V36.8221C36.5934 36.5493 36.4286 36.2112 36.1747 35.9611C35.8696 35.6576 35.452 35.4946 35.0219 35.5112C34.1618 35.5254 33.6455 36.1923 33.5735 36.8496V40.4878C33.5729 40.6364 33.514 40.7789 33.4096 40.8846C33.3046 40.9904 33.1617 41.0497 33.0127 41.0494H29.6773C29.5285 41.0494 29.3859 40.9902 29.2808 40.8848C29.1758 40.7794 29.117 40.6366 29.1175 40.4878V36.8221C29.1175 36.5493 28.9517 36.2112 28.6979 35.9611C28.3928 35.6581 27.9757 35.4952 27.546 35.5112C27.1857 35.5146 26.8398 35.6532 26.5769 35.8996L29.3183 49.881C33.1766 48.1704 37.7491 45.3819 40.212 41.0513L37.1542 41.0494Z" fill="white"/>
<path d="M28.2384 50.2295L24.3849 30.5791H21.2589L17.4073 50.2371C17.4017 50.2638 17.3941 50.2901 17.3845 50.3157C20.0596 51.4135 22.2317 51.9714 22.8371 52.1618C23.4518 51.9723 25.6097 51.4144 28.2659 50.3271C28.2543 50.2963 28.2452 50.2646 28.2384 50.2324" fill="white"/>
<path d="M19.0741 35.8807C18.8112 35.6474 18.4726 35.5174 18.1211 35.5151H18.0908C17.6717 35.5083 17.2675 35.6704 16.9692 35.965C16.7154 36.215 16.5505 36.5522 16.5505 36.825V40.4925C16.5505 40.6412 16.4914 40.7837 16.3862 40.8887C16.281 40.9937 16.1384 41.0526 15.9897 41.0523H12.6515C12.3419 41.0518 12.0908 40.8012 12.0898 40.4916V36.8525C12.0187 36.1942 11.5025 35.5264 10.6424 35.5151H10.6111C10.192 35.5083 9.78775 35.6704 9.48952 35.965C9.23564 36.215 9.07082 36.5522 9.07082 36.825V40.4925C9.07082 40.6412 9.01171 40.7837 8.90651 40.8887C8.80131 40.9937 8.65867 41.0526 8.51003 41.0523H5.47021C7.93314 45.3687 12.4858 48.1563 16.3355 49.8669L19.0741 35.8807Z" fill="white"/>
<path d="M41.9773 30.5796H25.5278L26.3359 34.6999C26.702 34.5041 27.1096 34.3985 27.5247 34.392C28.2544 34.3751 28.9601 34.6535 29.4818 35.164C29.9554 35.6281 30.2396 36.2485 30.2396 36.8235V39.9293H32.4505V36.8235C32.4505 36.8064 32.4505 36.7903 32.4505 36.7723C32.5673 35.4409 33.6717 34.4131 35.0082 34.392C35.7386 34.3731 36.4453 34.6517 36.9662 35.164C37.4399 35.6281 37.7193 36.2485 37.7193 36.8235V39.9293H40.7847C41.6006 38.1376 42.0179 36.1902 42.0076 34.2215V30.5768C41.9988 30.5773 41.9899 30.5773 41.9811 30.5768" fill="white"/>
<path d="M7.95184 39.9307V36.8249C7.95184 36.25 8.23602 35.6295 8.70966 35.1645C9.23128 34.6563 9.9348 34.3782 10.6629 34.3925C11.9967 34.4179 13.0966 35.445 13.213 36.7737C13.214 36.7908 13.214 36.8079 13.213 36.8249V39.9307H15.4249V36.8249C15.4249 36.25 15.7091 35.6295 16.1827 35.1645C16.7055 34.6551 17.411 34.377 18.1408 34.3925C18.5477 34.399 18.9474 34.5008 19.3078 34.6899L20.113 30.5791H3.67109V34.2211C3.66071 36.1907 4.07898 38.1389 4.89686 39.9307H7.95184Z" fill="white"/>
<path d="M9.27113 28.3003H10.1815C10.25 28.4163 10.2936 28.5454 10.3093 28.6792C10.3093 28.7549 10.3169 28.8307 10.3236 28.9074C10.319 29.0935 10.2936 29.2784 10.2478 29.4587H7.06303C6.60265 29.1442 6.37341 27.8977 6.35352 26.8719L7.74791 26.441C7.98216 26.3664 8.14193 26.1497 8.14387 25.9039V25.3669C8.14428 25.1849 8.05589 25.0141 7.90705 24.9094L6.35446 23.8097V22.8862L6.89536 22.602C7.08088 22.5056 7.1971 22.3138 7.19659 22.1047V20.8611C7.19695 20.6325 7.05873 20.4265 6.84705 20.3401L6.35352 20.1412V19.2073L7.82464 19.1931L8.52373 20.3382V21.9361L8.04346 23.4516C7.98905 23.6224 8.01941 23.8089 8.12518 23.9536C8.23095 24.0983 8.39943 24.1838 8.57867 24.1838H9.00305C9.27854 24.1826 9.51267 23.9822 9.55626 23.7102C9.597 23.4621 9.73056 22.746 9.8556 22.422C9.95033 22.172 10.3529 21.634 10.6049 21.3328C10.7819 21.121 10.7791 20.812 10.5983 20.6034L8.6734 18.3899C8.63551 18.0564 8.56636 17.2655 8.68666 16.7058C8.81739 16.0977 9.23987 15.3238 9.39049 15.0766C9.45885 14.9653 9.486 14.8336 9.46722 14.7043L9.4388 14.5035H9.56289L11.8439 15.948C11.9338 16.0048 12.0379 16.035 12.1442 16.0351H12.7694L12.7325 16.8725L11.9974 17.1396C11.7739 17.2205 11.6256 17.4333 11.627 17.6709V18.2468C11.6296 18.5545 11.8792 18.8028 12.1869 18.8038L14.1079 18.8104L14.61 19.3295C14.8073 19.5359 15.1286 19.56 15.3546 19.3854C15.3546 19.3854 16.2279 18.6911 16.2668 18.6096L16.5784 17.9541H17.6981V19.9963C17.6981 19.9963 15.6501 20.6991 15.4805 20.7825C15.347 20.8488 15.2731 21.4824 15.2968 21.6349C15.3204 21.7874 15.3119 21.849 15.5326 22.0138C15.5326 22.0138 16.1285 22.4874 16.3113 22.548L16.9062 21.9797L17.6953 22.0327V23.9271L16.9375 24.3789L14.5835 22.7687C14.3392 22.603 14.0083 22.6543 13.8256 22.8862L13.4581 23.3598C13.2776 23.589 13.3027 23.9183 13.5159 24.1175L14.8629 25.3782L14.8497 26.405L13.5045 26.997C13.3028 27.0885 13.1727 27.2889 13.1711 27.5103V27.7396C13.1716 28.0494 13.4229 28.3003 13.7328 28.3003H15.3583C15.6425 28.6498 15.5288 29.1423 15.4104 29.4568H11.664C11.5361 29.3233 11.4745 29.0874 11.4432 28.8231C11.4432 28.7521 11.4376 28.6792 11.4309 28.6072C11.4233 28.2931 11.4516 27.9791 11.5152 27.6714L12.3867 26.5565C12.4588 26.4652 12.5002 26.3535 12.5051 26.2373L12.5307 25.7022C12.5399 25.5107 12.4506 25.3278 12.294 25.2173C12.1373 25.1067 11.9351 25.0838 11.7577 25.1566L10.352 25.7306C10.1682 25.8054 10.0377 25.9719 10.0091 26.1682L9.9257 26.7299L9.10915 26.9761C8.8721 27.0475 8.70973 27.2656 8.7094 27.5132V27.7405C8.70992 28.0503 8.96126 28.3012 9.27113 28.3012" fill="white"/>
<path d="M36.3671 28.3012H35.4567C35.3886 28.4175 35.3451 28.5464 35.3289 28.6801C35.3289 28.7559 35.3222 28.8317 35.3156 28.9084C35.3197 29.0944 35.3451 29.2794 35.3914 29.4597H38.579C39.0384 29.1452 39.2676 27.8987 39.2875 26.8729L37.8931 26.4419C37.6589 26.3674 37.4991 26.1507 37.4972 25.9049V25.3678C37.497 25.1856 37.5858 25.0148 37.735 24.9103L39.2838 23.8106V22.8871L38.7438 22.603C38.5579 22.5068 38.4413 22.3149 38.4416 22.1057V20.862C38.4417 20.6333 38.5802 20.4273 38.7921 20.3411L39.2847 20.1422V19.2082L37.8145 19.194L37.1154 20.3392L37.1107 21.9371L37.591 23.4526C37.6449 23.6233 37.6144 23.8096 37.5087 23.9541C37.403 24.0987 37.2348 24.1843 37.0558 24.1848H36.6314C36.3555 24.1841 36.1209 23.9835 36.0772 23.7112C36.0365 23.463 35.9039 22.7469 35.7779 22.423C35.6831 22.1729 35.2815 21.6349 35.0295 21.3337C34.8525 21.1219 34.8553 20.813 35.0362 20.6044L36.9658 18.3899C37.0037 18.0564 37.0719 17.2655 36.9525 16.7058C36.8218 16.0977 36.3993 15.3238 36.2487 15.0766C36.1808 14.9651 36.1534 14.8337 36.171 14.7043L36.1994 14.5035H36.0753L33.7952 15.949C33.7054 16.0058 33.6013 16.036 33.4949 16.0361H32.8688L32.9057 16.8734L33.6418 17.1405C33.8648 17.2218 34.0127 17.4345 34.0112 17.6719V18.2478C34.0091 18.5552 33.7598 18.8037 33.4523 18.8047L31.5312 18.8114L31.0292 19.3304C30.8319 19.5368 30.5105 19.5609 30.2846 19.3863C30.2846 19.3863 29.4103 18.692 29.3724 18.6106L29.0607 17.9551H27.9373V19.9972C27.9373 19.9972 29.9843 20.7001 30.1539 20.7834C30.2884 20.8497 30.3613 21.4834 30.3386 21.6359C30.3159 21.7884 30.3225 21.8499 30.1027 22.0147C30.1027 22.0147 29.505 22.4883 29.3241 22.549L28.7282 21.9807L27.9401 22.0337V23.9281L28.6922 24.3799L31.0472 22.7697C31.2911 22.6025 31.6231 22.654 31.805 22.8871L32.1744 23.3607C32.3547 23.5902 32.3292 23.9195 32.1157 24.1185L30.7696 25.3792L30.7829 26.4059L32.1337 27.0055C32.3354 27.097 32.4655 27.2974 32.4671 27.5189V27.7481C32.4671 27.897 32.4079 28.0397 32.3026 28.1449C32.1972 28.2501 32.0543 28.3091 31.9054 28.3088H30.2818C29.9976 28.6583 30.1113 29.1509 30.2287 29.4653H33.9752C34.1021 29.3318 34.1647 29.0959 34.194 28.8317C34.194 28.7606 34.2007 28.6877 34.2073 28.6157C34.2156 28.3016 34.1877 27.9876 34.1239 27.6799L33.2515 26.5575C33.1803 26.4657 33.139 26.3543 33.1331 26.2383L33.1132 25.705C33.1035 25.5133 33.1927 25.3301 33.3495 25.2194C33.5062 25.1088 33.7088 25.0861 33.8862 25.1594L35.2919 25.7306C35.4755 25.8057 35.6058 25.972 35.6348 26.1682L35.7182 26.7299L36.5348 26.9761C36.7716 27.0476 36.9337 27.2658 36.9336 27.5132V27.7405C36.9336 27.8894 36.8743 28.0322 36.769 28.1373C36.6636 28.2425 36.5207 28.3015 36.3718 28.3012" fill="white"/>
<path d="M124.6 23.3273V23.3065C124.6 21.1744 126.166 19.2857 128.498 19.2857C129.809 19.2857 130.619 19.6646 131.397 20.3191L130.828 20.9821C130.228 20.4611 129.562 20.0936 128.46 20.0936C126.738 20.0936 125.506 21.5476 125.506 23.2809V23.3037C125.506 25.1582 126.693 26.5336 128.58 26.5336C129.394 26.5311 130.183 26.2578 130.824 25.7569V23.8246H128.456V23.0356H131.665V26.1348C130.803 26.8991 129.691 27.3216 128.539 27.3226C126.096 27.3226 124.586 25.5466 124.586 23.3245" fill="white"/>
<path fill-rule="evenodd" clip-rule="evenodd" d="M134.547 23.306V23.3269C134.547 25.4704 136.134 27.325 138.502 27.325C140.87 27.325 142.481 25.4495 142.481 23.306V23.2833C142.481 21.1398 140.894 19.2852 138.526 19.2852C136.157 19.2852 134.547 21.1625 134.547 23.306ZM141.568 23.3053V23.3261C141.568 25.0936 140.3 26.5143 138.523 26.5143C136.746 26.5143 135.459 25.0708 135.459 23.3053V23.2825C135.459 21.516 136.726 20.0952 138.502 20.0952C140.278 20.0952 141.568 21.5388 141.568 23.3053Z" fill="white"/>
<path fill-rule="evenodd" clip-rule="evenodd" d="M148.932 19.4189H145.624L145.624 27.1934H149.078C150.778 27.1934 151.898 26.4044 151.898 25.0727V25.049C151.898 23.9834 151.156 23.4511 150.233 23.1735C150.843 22.9055 151.464 22.3845 151.464 21.3739V21.3512C151.472 20.8863 151.292 20.4379 150.965 20.1075C150.521 19.6746 149.821 19.4189 148.932 19.4189ZM150.575 21.4724C150.575 20.7061 149.965 20.206 148.855 20.206H146.487V22.8828H148.786C149.841 22.8828 150.574 22.4045 150.574 21.4942L150.575 21.4724ZM148.94 23.6609H146.485V26.4078H149.096C150.272 26.4078 151.006 25.8859 151.006 25.0201V24.9974C151.006 24.1535 150.295 23.6647 148.94 23.6647V23.6609Z" fill="white"/>
<rect x="155.031" y="19.4189" width="0.877179" height="7.77263" fill="white"/>
<path d="M159.459 19.4189H165.078V20.2183H160.335V22.8723H164.579V23.6718H160.335V26.3921H165.133V27.1925H159.459V19.4189Z" fill="white"/>
<path fill-rule="evenodd" clip-rule="evenodd" d="M171.386 19.4188H168.044V27.1924H168.921V24.1708H171.143L173.396 27.1924H174.474L172.086 24.0164C173.308 23.7939 174.196 23.038 174.196 21.7508V21.729C174.208 21.1584 173.992 20.6066 173.596 20.1955C173.108 19.7077 172.342 19.4188 171.386 19.4188ZM173.307 21.7843C173.307 22.7836 172.474 23.3832 171.309 23.3832H168.92V20.23H171.318C172.574 20.23 173.307 20.8078 173.307 21.7626V21.7843Z" fill="white"/>
<path d="M177.358 19.4189H178.179L183.078 25.6495V19.4189H183.932V27.1925H183.233L178.212 20.8179V27.1925H177.358V19.4189Z" fill="white"/>
<path fill-rule="evenodd" clip-rule="evenodd" d="M187.072 23.306V23.3269H187.07C187.07 25.4704 188.656 27.325 191.024 27.325C193.392 27.325 195.003 25.4495 195.003 23.306V23.2833C195.003 21.1398 193.419 19.2852 191.051 19.2852C188.683 19.2852 187.072 21.1625 187.072 23.306ZM194.092 23.3053V23.3261C194.092 25.0936 192.824 26.5143 191.047 26.5143C189.27 26.5143 187.984 25.0708 187.984 23.3053V23.2825C187.984 21.516 189.25 20.0952 191.026 20.0952C192.802 20.0952 194.092 21.5388 194.092 23.3053Z" fill="white"/>
<path fill-rule="evenodd" clip-rule="evenodd" d="M204.885 19.4189H202.187V27.1896H204.885C207.327 27.1896 209.016 25.4923 209.016 23.3061V23.2834C209.016 21.0964 207.327 19.4189 204.885 19.4189ZM203.064 26.3811V20.23H204.885C206.851 20.23 208.106 21.5845 208.106 23.3065V23.3273C208.106 25.0484 206.851 26.3811 204.885 26.3811H203.064Z" fill="white"/>
<path d="M211.805 19.4189H217.423V20.2183H212.681V22.8723H216.923V23.6718H212.681V26.3921H217.479V27.1925H211.805V19.4189Z" fill="white"/>
<path d="M224.465 19.4189H225.341V26.3807H229.719V27.1925H224.465V19.4189Z" fill="white"/>
<path fill-rule="evenodd" clip-rule="evenodd" d="M235.925 19.364H235.104L231.561 27.1916H232.461L233.383 25.1372H237.613L238.522 27.1935H239.469L235.925 19.364ZM235.503 20.3865L237.269 24.3381H233.727L235.503 20.3865Z" fill="white"/>
<path d="M124.431 36.6546V36.6328C124.431 34.423 126.095 32.612 128.483 32.612C129.949 32.612 130.827 33.1007 131.548 33.8111L130.46 35.0662C129.86 34.5225 129.249 34.1891 128.471 34.1891C127.159 34.1891 126.216 35.2783 126.216 36.611V36.6328C126.216 37.9646 127.138 39.0747 128.471 39.0747C129.358 39.0747 129.904 38.7204 130.513 38.1644L131.601 39.2641C130.802 40.1166 129.914 40.6517 128.415 40.6517C126.127 40.6517 124.429 38.8862 124.429 36.6546" fill="white"/>
<rect x="133.019" y="32.7464" width="1.71078" height="7.77263" fill="white"/>
<path d="M136.702 37.1887V32.7464H138.413V37.1451C138.413 38.4096 139.046 39.0651 140.09 39.0651C141.134 39.0651 141.767 38.4324 141.767 37.2001V32.7483H143.472V37.1357C143.472 39.4894 142.146 40.6403 140.062 40.6403C137.978 40.6403 136.698 39.4752 136.698 37.1868" fill="white"/>
<path fill-rule="evenodd" clip-rule="evenodd" d="M148.453 32.7467H145.422V40.5174H148.453C150.896 40.5174 152.585 38.821 152.585 36.634V36.6122C152.585 34.4242 150.896 32.7467 148.453 32.7467ZM150.796 36.6551C150.796 38.0285 149.853 38.9757 148.452 38.9757H147.132V34.2899H148.452C149.849 34.2899 150.796 35.2561 150.796 36.6333V36.6551Z" fill="white"/>
<path fill-rule="evenodd" clip-rule="evenodd" d="M157.95 32.6895H156.373L153.038 40.5181H154.79L155.501 38.7752H158.78L159.491 40.5181H161.279L157.95 32.6895ZM157.138 34.7428L158.171 37.2633H156.105L157.138 34.7428Z" fill="white"/>
<path fill-rule="evenodd" clip-rule="evenodd" d="M165.552 32.7467H162.52V40.5174H165.552C167.995 40.5174 169.683 38.821 169.683 36.634V36.6122C169.683 34.4242 167.995 32.7467 165.552 32.7467ZM167.895 36.6551C167.895 38.0285 166.952 38.9757 165.551 38.9757H164.23V34.2899H165.551C166.948 34.2899 167.895 35.2561 167.895 36.6333V36.6551Z" fill="white"/>
<path fill-rule="evenodd" clip-rule="evenodd" d="M177.678 32.7467H174.646V40.5174H177.678C180.122 40.5174 181.809 38.821 181.809 36.634V36.6122C181.809 34.4242 180.122 32.7467 177.678 32.7467ZM180.022 36.6551C180.022 38.0285 179.077 38.9757 177.678 38.9757H176.357V34.2899H177.678C179.074 34.2899 180.022 35.2561 180.022 36.6333V36.6551Z" fill="white"/>
<path d="M183.433 32.7464H189.296V34.2685H185.132V35.8456H188.796V37.3668H185.132V38.9988H189.352V40.519H183.433V32.7464Z" fill="white"/>
<path d="M194.316 32.7464H196.158L198.203 36.0341L200.245 32.7464H202.088V40.519H200.389V35.444L198.203 38.7658H198.158L195.993 35.4781V40.519H194.316V32.7464Z" fill="white"/>
<path fill-rule="evenodd" clip-rule="evenodd" d="M208.837 30.8031L207.382 30.1685L206.126 32.1339H207.416L208.837 30.8031ZM209.991 32.7462H204.128L204.133 40.5188H210.053V38.9986H205.833V37.3656H209.497V35.8454H205.828V34.2683H209.991V32.7462Z" fill="white"/>
<path d="M213.856 36.5664L211.257 32.7464H213.256L214.888 35.2669L216.531 32.7464H218.476L215.878 36.5446L218.586 40.52H216.588L214.844 37.8546L213.09 40.52H211.146L213.856 36.5664Z" fill="white"/>
<rect x="219.898" y="32.7464" width="1.71078" height="7.77263" fill="white"/>
<path d="M223.262 36.6546V36.6328C223.262 34.423 224.928 32.612 227.317 32.612C228.781 32.612 229.66 33.1007 230.382 33.8111L229.294 35.0662C228.695 34.5225 228.084 34.1891 227.305 34.1891C225.994 34.1891 225.052 35.2783 225.052 36.611V36.6328C225.052 37.9646 225.972 39.0747 227.305 39.0747C228.193 39.0747 228.738 38.7204 229.348 38.1644L230.437 39.2641C229.636 40.1166 228.749 40.6517 227.25 40.6517C224.962 40.6517 223.262 38.8862 223.262 36.6546Z" fill="white"/>
<path fill-rule="evenodd" clip-rule="evenodd" d="M231.244 36.6325V36.6543C231.244 38.8641 232.965 40.6514 235.363 40.6514C237.762 40.6514 239.505 38.8423 239.505 36.6325V36.6107C239.505 34.4 237.784 32.6117 235.385 32.6117C232.987 32.6117 231.244 34.4227 231.244 36.6325ZM237.718 36.6323V36.654C237.718 37.9867 236.762 39.0741 235.385 39.0741C234.007 39.0741 233.032 37.964 233.032 36.6323V36.6105C233.032 35.2778 233.987 34.1885 235.363 34.1885C236.739 34.1885 237.718 35.2986 237.718 36.6323Z" fill="white"/>
<path fill-rule="evenodd" clip-rule="evenodd" d="M91.0401 56.0802C91.0401 58.2408 89.2583 59.9997 87.0682 59.9997C84.879 59.9997 83.0981 58.2408 83.0981 56.0802C83.0981 53.9197 84.8781 52.1608 87.0682 52.1608C89.2583 52.1608 91.0401 53.9197 91.0401 56.0802ZM89.0327 55.2574C88.699 54.4707 87.9232 53.9633 87.0686 53.9729C85.9121 53.9818 84.9804 54.924 84.9846 56.0804C84.9847 56.935 85.5008 57.7049 86.2913 58.0297C87.0818 58.3544 87.9902 58.1697 88.5911 57.5621C89.1919 56.9544 89.3664 56.0441 89.0327 55.2574Z" fill="white"/>
</svg>
