<svg width="363" height="55" viewBox="0 0 363 55" fill="none" xmlns="http://www.w3.org/2000/svg">
<path d="M246.404 21.9601L245.464 19.653L244.524 21.9601H246.404ZM244.752 17.7732H246.205L249.252 24.9508H247.6L246.945 23.3558H243.926L243.271 24.9508H241.676L244.752 17.7732Z" fill="#8B1232"/>
<path d="M249.736 21.3905C249.736 19.3397 251.303 17.6877 253.468 17.6877C254.749 17.6877 255.518 18.0295 256.259 18.6562L255.262 19.8524C254.721 19.3967 254.237 19.1404 253.411 19.1404C252.271 19.1404 251.36 20.1373 251.36 21.362V21.3905C251.36 22.7007 252.243 23.6406 253.525 23.6406C254.094 23.6406 254.607 23.4982 255.006 23.2134V22.188H253.439V20.8208H256.544V23.9254C255.803 24.5521 254.806 25.0648 253.496 25.0648C251.246 25.0648 249.736 23.4982 249.736 21.3905Z" fill="#8B1232"/>
<path d="M258.252 17.8301H263.635V19.2257H259.79V20.6499H263.151V22.0455H259.79V23.5551H263.664V24.9507H258.252V17.8301Z" fill="#8B1232"/>
<path d="M265.287 17.8301H266.74L270.072 22.2164V17.8301H271.639V24.9507H270.3L266.854 20.422V24.9507H265.287V17.8301Z" fill="#8B1232"/>
<path d="M273.177 21.3905C273.177 19.3397 274.715 17.6877 276.88 17.6877C278.218 17.6877 279.016 18.1435 279.699 18.7986L278.702 19.9379C278.161 19.4252 277.592 19.1404 276.88 19.1404C275.683 19.1404 274.8 20.1373 274.8 21.362V21.3905C274.8 22.6152 275.655 23.6406 276.88 23.6406C277.705 23.6406 278.19 23.3273 278.759 22.8146L279.756 23.8115C279.016 24.609 278.218 25.0932 276.823 25.0932C274.715 25.0648 273.177 23.4412 273.177 21.3905Z" fill="#8B1232"/>
<path d="M282.633 17.8301H281.066V24.9507H282.633V17.8301Z" fill="#8B1232"/>
<path d="M288.529 21.9601L287.589 19.653L286.649 21.9601H288.529ZM286.877 17.7732H288.33L291.377 24.9508H289.725L289.07 23.3558H286.051L285.396 24.9508H283.801L286.877 17.7732Z" fill="#8B1232"/>
<path d="M298.413 23.5266C299.695 23.5266 300.549 22.6721 300.549 21.3904V21.3619C300.549 20.1087 299.695 19.2257 298.413 19.2257H297.188V23.5266H298.413ZM295.65 17.8301H298.442C300.692 17.8301 302.23 19.3681 302.23 21.3619V21.3904C302.23 23.3842 300.692 24.9507 298.442 24.9507H295.65V17.8301Z" fill="#8B1232"/>
<path d="M305.334 17.8301H303.768V24.9507H305.334V17.8301Z" fill="#8B1232"/>
<path d="M306.9 21.3905C306.9 19.3397 308.467 17.6877 310.632 17.6877C311.913 17.6877 312.682 18.0295 313.423 18.6562L312.426 19.8524C311.885 19.3967 311.401 19.1404 310.575 19.1404C309.435 19.1404 308.524 20.1373 308.524 21.362V21.3905C308.524 22.7007 309.407 23.6406 310.689 23.6406C311.258 23.6406 311.771 23.4982 312.17 23.2134V22.188H310.603V20.8208H313.708V23.9254C312.967 24.5521 311.97 25.0648 310.66 25.0648C308.438 25.0648 306.9 23.4982 306.9 21.3905Z" fill="#8B1232"/>
<path d="M317.04 17.8301H315.474V24.9507H317.04V17.8301Z" fill="#8B1232"/>
<path d="M320.43 19.2542H318.266V17.8301H324.19V19.2542H322.025V24.9507H320.43V19.2542Z" fill="#8B1232"/>
<path d="M328.69 21.9601L327.75 19.653L326.81 21.9601H328.69ZM327.066 17.7732H328.519L331.567 24.9508H329.915L329.26 23.3558H326.24L325.585 24.9508H323.99L327.066 17.7732Z" fill="#8B1232"/>
<path d="M332.734 17.8301H334.301V23.5266H337.833V24.9507H332.734V17.8301Z" fill="#8B1232"/>
<path d="M344.982 23.5266C346.263 23.5266 347.118 22.6721 347.118 21.3904V21.3619C347.118 20.1087 346.263 19.2257 344.982 19.2257H343.757V23.5266H344.982ZM342.19 17.8301H344.982C347.232 17.8301 348.77 19.3681 348.77 21.3619V21.3904C348.77 23.3842 347.232 24.9507 344.982 24.9507H342.19V17.8301Z" fill="#8B1232"/>
<path d="M350.279 17.8301H355.662V19.2257H351.846V20.6499H355.207V22.0455H351.846V23.5551H355.691V24.9507H350.279V17.8301Z" fill="#8B1232"/>
<path d="M243.954 30.0492H242.388V37.1699H243.954V30.0492Z" fill="#8B1232"/>
<path d="M245.862 30.0492H247.315L250.647 34.4355V30.0492H252.185V37.1699H250.875L247.4 32.6411V37.1699H245.862V30.0492Z" fill="#8B1232"/>
<path d="M254.094 30.0492H255.546L258.879 34.4355V30.0492H260.417V37.1699H259.078L255.632 32.6411V37.1699H254.094V30.0492Z" fill="#8B1232"/>
<path d="M267.908 33.638C267.908 32.3848 267.025 31.3879 265.743 31.3879C264.49 31.3879 263.607 32.3848 263.607 33.6096V33.638C263.607 34.8628 264.49 35.8882 265.772 35.8882C267.025 35.8597 267.908 34.8628 267.908 33.638ZM261.955 33.638C261.955 31.5873 263.55 29.9353 265.743 29.9353C267.936 29.9353 269.531 31.5873 269.531 33.6096V33.638C269.531 35.6603 267.936 37.3123 265.743 37.3123C263.55 37.2838 261.955 35.6603 261.955 33.638Z" fill="#8B1232"/>
<path d="M270.044 30.0492H271.753L273.633 35.0621L275.484 30.0492H277.193L274.288 37.2268H272.921L270.044 30.0492Z" fill="#8B1232"/>
<path d="M281.21 34.1791L280.27 31.872L279.33 34.1791H281.21ZM279.558 29.9922H281.01L284.058 37.1698H282.406L281.751 35.5748H278.732L278.076 37.1698H276.481L279.558 29.9922Z" fill="#8B1232"/>
<path d="M284.542 33.638C284.542 31.5873 286.08 29.9353 288.245 29.9353C289.583 29.9353 290.381 30.391 291.065 31.0461L290.068 32.1854C289.526 31.6727 288.957 31.3879 288.245 31.3879C287.048 31.3879 286.166 32.3848 286.166 33.6096V33.638C286.166 34.8628 287.02 35.8882 288.245 35.8882C289.071 35.8882 289.555 35.5749 290.125 35.0622L291.121 36.0591C290.381 36.8566 289.583 37.3408 288.188 37.3408C286.08 37.2838 284.542 35.6888 284.542 33.638Z" fill="#8B1232"/>
<path d="M293.998 30.0492H292.432V37.1699H293.998V30.0492Z" fill="#8B1232"/>
<path d="M299.951 27.6851L301.29 28.2547L299.979 29.4795H298.812L299.951 27.6851ZM301.489 33.6379C301.489 32.3847 300.606 31.3878 299.324 31.3878C298.071 31.3878 297.188 32.3847 297.188 33.6095V33.6379C297.188 34.8627 298.071 35.8881 299.353 35.8881C300.606 35.8596 301.489 34.8627 301.489 33.6379ZM295.536 33.6379C295.536 31.5872 297.131 29.9352 299.324 29.9352C301.518 29.9352 303.113 31.5872 303.113 33.6095V33.6379C303.113 35.6602 301.518 37.3122 299.324 37.3122C297.131 37.2837 295.536 35.6602 295.536 33.6379Z" fill="#8B1232"/>
<path d="M304.65 30.0492H306.103L309.435 34.4355V30.0492H310.974V37.1699H309.635L306.188 32.6411V37.1699H304.65V30.0492Z" fill="#8B1232"/>
<path d="M318.664 33.638C319.461 33.638 319.917 33.1823 319.917 32.5557V32.5272C319.917 31.8151 319.433 31.4448 318.635 31.4448H317.41V33.638H318.664ZM315.844 30.0492H318.749C320.458 30.0492 321.483 31.0461 321.483 32.5272V32.5557C321.483 34.2077 320.202 35.0621 318.607 35.0621H317.41V37.1983H315.844V30.0492Z" fill="#8B1232"/>
<path d="M326.212 27.7421L327.55 28.3117L326.24 29.5365H325.072L326.212 27.7421ZM322.651 34.1222V30.0492H324.218V34.0937C324.218 35.2615 324.788 35.8596 325.756 35.8596C326.724 35.8596 327.294 35.29 327.294 34.1507V30.0776H328.861V34.0937C328.861 36.2584 327.636 37.3122 325.727 37.3122C323.819 37.2838 322.651 36.2299 322.651 34.1222Z" fill="#8B1232"/>
<path d="M334.073 35.8027C334.757 35.8027 335.184 35.5463 335.184 35.0337V35.0052C335.184 34.521 334.814 34.2361 334.016 34.2361H332.193V35.8027H334.073ZM333.674 32.9259C334.358 32.9259 334.814 32.6981 334.814 32.1854V32.1569C334.814 31.7012 334.443 31.4164 333.788 31.4164H332.25V32.9259H333.674ZM330.684 30.0492H333.988C334.814 30.0492 335.44 30.2771 335.839 30.6758C336.152 30.9891 336.323 31.3879 336.323 31.9006V31.929C336.323 32.7266 335.896 33.1823 335.383 33.4671C336.209 33.7804 336.722 34.2646 336.722 35.2046V35.233C336.722 36.5432 335.668 37.1983 334.045 37.1983H330.684V30.0492Z" fill="#8B1232"/>
<path d="M338.26 30.0492H339.826V35.7457H343.358V37.1699H338.26V30.0492Z" fill="#8B1232"/>
<path d="M346.178 30.0492H344.611V37.1699H346.178V30.0492Z" fill="#8B1232"/>
<path d="M347.716 33.638C347.716 31.5873 349.254 29.9353 351.419 29.9353C352.757 29.9353 353.555 30.391 354.238 31.0461L353.241 32.1854C352.7 31.6727 352.131 31.3879 351.419 31.3879C350.222 31.3879 349.339 32.3848 349.339 33.6096V33.638C349.339 34.8628 350.194 35.8882 351.419 35.8882C352.245 35.8882 352.729 35.5749 353.298 35.0622L354.295 36.0591C353.555 36.8566 352.757 37.3408 351.362 37.3408C349.282 37.2838 347.716 35.6888 347.716 33.638Z" fill="#8B1232"/>
<path d="M359.736 34.1791L358.796 31.872L357.856 34.1791H359.736ZM358.084 29.9922H359.537L362.584 37.1698H360.932L360.277 35.5748H357.258L356.603 37.1698H355.008L358.084 29.9922Z" fill="#8B1232"/>
<path d="M231.307 7.17761H230.709V47.7939H231.307V7.17761Z" fill="#8B1232"/>
<path d="M73.2575 30.4479C73.5423 30.8752 73.941 31.0746 74.5107 31.103C75.2797 31.1315 75.7639 30.3625 75.7639 30.3625L88.4387 14.1274C89.4926 13.045 90.5179 13.928 90.5179 13.928C91.5148 14.9819 90.7743 15.9218 90.7743 15.9218L87.9545 19.5391V19.5676C87.6982 19.8239 87.5557 20.1657 87.5557 20.536C87.5557 20.8778 87.6697 21.1911 87.8975 21.4474L90.7458 25.0647L99.6894 13.6432L96.1005 9.05747L95.4454 8.20299C94.8758 7.37699 93.5656 7.17761 93.5656 7.17761H88.1824C86.7582 7.17761 85.9892 8.1745 85.9892 8.1745L70.9219 27.4857L73.2575 30.4479Z" fill="#8B1232"/>
<path d="M72.6025 20.536L69.0137 15.9218C68.2732 14.754 69.3555 13.8995 69.3555 13.8995C70.6942 13.102 71.4917 14.3268 71.4917 14.3268L74.4824 18.1434L78.0142 13.5862L73.9412 8.3454C72.9728 6.94975 71.4917 7.14913 71.4917 7.14913H66.6212C65.0546 7.14913 64.3995 8.11754 64.3995 8.11754L60.0986 13.5577L69.0707 25.0647L72.6025 20.536Z" fill="#8B1232"/>
<path d="M86.5022 24.4951C86.5022 24.4951 86.075 23.84 85.2775 23.8685C84.4515 23.8685 84.1097 24.4381 84.1097 24.4381L71.321 40.8726C70.2956 42.0119 69.1563 41.1005 69.1563 41.1005C68.1594 40.0466 68.9854 39.0782 68.9854 39.0782L71.8621 35.4039V35.3754C72.1185 35.1191 72.2609 34.7773 72.2609 34.407C72.2609 34.0652 72.147 33.7519 71.9191 33.4956L69.0708 29.8783L60.0703 41.4138L65.0833 47.7654L72.973 47.7939L88.8378 27.4858L86.5022 24.4951Z" fill="#8B1232"/>
<path d="M87.1568 34.3786L90.8026 39.0498C91.6286 40.2175 90.5747 41.072 90.5747 41.072C89.1791 42.0119 88.3246 40.6163 88.3246 40.6163L85.277 36.7427L81.7451 41.2999L86.8435 47.8224L94.6762 47.7939L99.6892 41.3568L90.6887 29.8499L87.1568 34.3786Z" fill="#8B1232"/>
<path d="M99.6321 29.451C98.5782 29.451 97.7238 28.5966 97.7238 27.5142C97.7238 26.4319 98.5782 25.5774 99.6321 25.5774C100.686 25.5774 101.54 26.4319 101.54 27.5142C101.54 28.5966 100.686 29.451 99.6321 29.451ZM99.6321 23.9254C97.6098 23.9254 95.9863 25.5489 95.9863 27.5142C95.9863 29.4795 97.6098 31.103 99.6321 31.103C101.654 31.103 103.278 29.4795 103.278 27.5142C103.278 25.5489 101.626 23.9254 99.6321 23.9254Z" fill="#8B1232"/>
<path d="M79.8655 1.65199C80.9194 1.65199 81.7738 2.50647 81.7738 3.58881C81.7738 4.67115 80.9194 5.52563 79.8655 5.52563C78.8116 5.52563 77.9572 4.67115 77.9572 3.58881C77.9572 2.50647 78.8116 1.65199 79.8655 1.65199ZM79.8655 7.17763C81.8878 7.17763 83.5113 5.55412 83.5113 3.58881C83.5113 1.62351 81.8593 0 79.8655 0C77.8432 0 76.2197 1.62351 76.2197 3.58881C76.2197 5.55412 77.8432 7.17763 79.8655 7.17763Z" fill="#8B1232"/>
<path d="M58.133 27.4858C58.133 26.4319 58.9874 25.549 60.0413 25.549C61.0951 25.549 61.9496 26.4034 61.9496 27.4858C61.9496 28.5396 61.0951 29.4226 60.0413 29.4226C58.9874 29.4226 58.133 28.5681 58.133 27.4858ZM63.6871 27.4858C63.6871 25.492 62.0636 23.897 60.0413 23.897C58.019 23.897 56.3955 25.5205 56.3955 27.4858C56.3955 29.4796 58.019 31.0746 60.0413 31.0746C62.0351 31.1031 63.6871 29.4796 63.6871 27.4858Z" fill="#8B1232"/>
<path d="M79.8655 53.348C78.8116 53.348 77.9572 52.4935 77.9572 51.4112C77.9572 50.3573 78.8116 49.4744 79.8655 49.4744C80.9194 49.4744 81.7738 50.3289 81.7738 51.4112C81.7738 52.4651 80.9194 53.348 79.8655 53.348ZM79.8655 47.8224C77.8432 47.8224 76.2197 49.4459 76.2197 51.4112C76.2197 53.3765 77.8432 55 79.8655 55C81.8878 55 83.5113 53.3765 83.5113 51.4112C83.5113 49.4459 81.8593 47.8224 79.8655 47.8224Z" fill="#8B1232"/>
<path d="M41.841 3.5603H0V31.4733C0 46.797 20.9063 51.4112 20.9063 51.4112H20.9347C20.9347 51.4112 41.841 46.797 41.841 31.4733V3.5603ZM40.8156 4.58568V31.4733C40.8156 34.7203 39.7903 37.7395 37.768 40.4169C36.116 42.61 33.8089 44.5753 30.9037 46.2843C26.4604 48.9047 21.9316 50.1294 20.9063 50.3573C19.9094 50.101 15.4091 48.9047 10.9658 46.3128C8.03211 44.6038 5.72501 42.6385 4.07302 40.4453C2.05075 37.768 1.02538 34.7488 1.02538 31.4733V4.58568H40.8156Z" fill="#B18147"/>
<path d="M25.9762 12.5039V9.94043H23.3558V12.333H22.3305V9.94043H19.6246V12.333H18.5992V9.94043H15.9219V12.5039L17.2321 14.754C17.289 14.8394 17.289 14.9249 17.289 15.0103V26.7452H18.5708V22.5298C18.5708 21.5329 19.7101 20.6214 20.9348 20.6214C22.1881 20.6214 23.2989 21.5329 23.2989 22.5298V26.7452H24.6091V22.3019C24.6091 22.2734 24.6091 22.2734 24.6091 22.2449V20.0518V20.0233V18.4283V17.7162V15.0388C24.6091 14.9534 24.6376 14.8679 24.6945 14.7825L25.9762 12.5039Z" fill="#B18147"/>
<path d="M16.2632 27.03V23.1279L15.8074 23.4127C15.6365 23.5266 15.4087 23.4982 15.2663 23.3842L14.6966 22.9855C14.6966 23.014 14.6966 23.014 14.6966 23.0424L14.6681 24.552C14.6681 24.7229 14.5827 24.8653 14.4688 24.9508C14.5257 24.9793 14.5827 25.0077 14.6396 25.0362C15.3232 25.5774 15.3802 26.3749 15.2378 27.0015L16.2632 27.03Z" fill="#B18147"/>
<path d="M20.9061 21.6753C20.1086 21.6753 19.5674 22.2449 19.5674 22.5298V26.7452H22.2448V22.5298C22.2732 22.2165 21.7036 21.6753 20.9061 21.6753Z" fill="#B18147"/>
<path d="M5.24118 27.03C5.09877 26.7167 4.98484 26.3179 4.89939 25.8337C4.75698 25.0077 4.78546 24.2672 4.78546 24.2387C4.78546 24.0108 4.92787 23.8399 5.15574 23.7545L6.26656 23.4127L4.98484 22.5012C4.84243 22.4158 4.75698 22.2449 4.75698 22.074V20.6499C4.75698 20.4505 4.87091 20.2796 5.0418 20.1941L5.52601 19.9378V19.4536L5.12725 19.3112C4.92787 19.2257 4.81394 19.0548 4.81394 18.827V17.118C4.81394 16.8332 5.0418 16.6053 5.32663 16.6053L6.92166 16.5768C6.89318 16.1496 6.89318 15.58 6.97862 15.0957C7.12104 14.4406 7.49131 13.7571 7.66221 13.4438L7.57676 12.8456C7.54828 12.7032 7.60524 12.5608 7.69069 12.4469C7.77614 12.3329 7.91855 12.276 8.08945 12.276H8.94393C9.02938 12.276 9.14331 12.3044 9.22875 12.3614L11.308 13.7001H12.2479C12.3903 13.7001 12.5327 13.7571 12.6182 13.871C12.7036 13.9849 12.7606 14.0989 12.7606 14.2413L12.6752 15.8933C12.6752 16.0357 12.6182 16.1496 12.5043 16.2635H13.1309C13.2733 16.2635 13.4157 16.3205 13.5012 16.4344L13.786 16.7477L14.0138 16.5768L14.3841 15.8078C14.4696 15.6369 14.6405 15.523 14.8398 15.523H16.207V15.2382L14.8968 12.988C14.8398 12.9026 14.8398 12.8171 14.8398 12.7317V9.4277C14.8398 9.14287 15.0677 8.91501 15.3525 8.91501H18.5426H19.568H22.2738H23.3561H26.5177C26.8025 8.91501 27.0304 9.14287 27.0304 9.4277V12.6462C27.0304 12.7317 27.0019 12.8171 26.945 12.9026L25.6348 15.1527V15.4375H27.0019C27.2013 15.4375 27.3722 15.5515 27.4577 15.7224L27.8279 16.4914L28.0558 16.6623L28.3406 16.349C28.4261 16.2351 28.5685 16.1781 28.7109 16.1781H29.3375C29.2521 16.0926 29.1666 15.9502 29.1666 15.8078L29.0812 14.1558C29.0812 14.0134 29.1381 13.871 29.2236 13.7855C29.309 13.6716 29.4514 13.6146 29.5938 13.6146H30.5623L32.6415 12.276C32.7269 12.219 32.8124 12.1905 32.9263 12.1905H33.7808C33.9232 12.1905 34.0656 12.2475 34.1796 12.3614C34.265 12.4753 34.322 12.6178 34.2935 12.7602L34.208 13.3583C34.3789 13.6716 34.7492 14.3552 34.8916 15.0103C35.0056 15.4945 34.9771 16.0642 34.9486 16.4914L36.5436 16.5199C36.8284 16.5199 37.0563 16.7477 37.0563 17.0326V18.7415C37.0563 18.9409 36.9424 19.1403 36.743 19.2257L36.2873 19.3966V19.8808L36.7715 20.1372C36.9424 20.2226 37.0563 20.3935 37.0563 20.5929V22.017C37.0563 22.1879 36.9709 22.3303 36.8284 22.4443L35.5467 23.3557L36.686 23.6975C36.8854 23.7545 37.0278 23.9539 37.0563 24.1817C37.0563 24.2102 37.0848 24.9507 36.9424 25.7767C36.8569 26.2325 36.7715 26.6312 36.6006 26.973H38.4804H38.5089V7.12061H3.36133V27.0015L5.24118 27.03Z" fill="#B18147"/>
<path d="M27.2298 25.0362C27.2868 25.0077 27.3437 24.9792 27.4007 24.9507C27.2868 24.8653 27.2013 24.7229 27.2013 24.552V23.0709C27.2013 23.0424 27.2013 23.0424 27.2013 23.0139L26.6317 23.4127C26.4608 23.5266 26.2614 23.5266 26.062 23.4412L25.6348 23.1563V27.03H26.6601C26.5177 26.3749 26.5462 25.6058 27.2298 25.0362Z" fill="#B18147"/>
<path d="M34.065 37.6541C33.7801 37.6541 33.5523 37.4263 33.5523 37.1414V33.7805C33.5523 33.5241 33.4099 33.2108 33.182 32.983C32.9826 32.7836 32.6408 32.5557 32.1281 32.5842C31.3306 32.5842 30.8749 33.2108 30.7895 33.809V37.1414C30.7895 37.2838 30.7325 37.3978 30.647 37.5117C30.5616 37.5972 30.4192 37.6541 30.2768 37.6541H27.2291C26.9443 37.6541 26.7164 37.4263 26.7164 37.1414V33.7805C26.7164 33.5241 26.574 33.2108 26.3177 32.983C26.1183 32.7836 25.7765 32.5557 25.2638 32.5842C24.922 32.5842 24.6087 32.7266 24.3809 32.926L26.8873 45.7432C30.4192 44.1767 34.6061 41.6132 36.8847 37.6541H34.065Z" fill="#B18147"/>
<path d="M25.8906 46.0849L22.3588 28.0554H19.5105L15.9787 46.0849C15.9787 46.1134 15.9787 46.1419 15.9502 46.1704C18.3997 47.1673 20.3935 47.68 20.9631 47.8509C21.5328 47.68 23.4981 47.1673 25.9476 46.1704C25.9191 46.1419 25.9191 46.1134 25.8906 46.0849Z" fill="#B18147"/>
<path d="M17.4879 32.926C17.2601 32.7266 16.9468 32.5842 16.605 32.5842H16.5765C16.0638 32.5842 15.7505 32.8121 15.5511 33.0115C15.3233 33.2393 15.1808 33.5526 15.1808 33.809V37.1699C15.1808 37.4548 14.953 37.6826 14.6682 37.6826H11.6205C11.4781 37.6826 11.3642 37.6257 11.2502 37.5402C11.1648 37.4548 11.1078 37.3123 11.1078 37.1699V33.8375C11.0509 33.2393 10.5666 32.6127 9.76914 32.6127H9.74065C9.22797 32.6127 8.91466 32.8406 8.71528 33.04C8.48742 33.2678 8.345 33.5811 8.345 33.8375V37.1984C8.345 37.4832 8.11714 37.7111 7.83232 37.7111H5.04102C7.29115 41.6702 11.4781 44.2336 15.0099 45.8002L17.4879 32.926Z" fill="#B18147"/>
<path d="M38.5089 28.0554H23.4131L24.1536 31.8436C24.4954 31.6727 24.8657 31.5588 25.236 31.5588C25.9196 31.5588 26.5462 31.7866 27.0304 32.2709C27.4576 32.6981 27.714 33.2677 27.714 33.7804V36.6287H29.7362V33.7804C29.7362 33.7519 29.7362 33.752 29.7362 33.7235C29.8502 32.4987 30.8471 31.5588 32.0718 31.5303C32.7554 31.5303 33.382 31.7582 33.8662 32.2424C34.2935 32.6696 34.5498 33.2393 34.5498 33.7519V36.6002H37.3696C38.0817 35.0622 38.4804 33.3247 38.4804 31.3594L38.5089 28.0554Z" fill="#B18147"/>
<path d="M7.29193 36.6286V33.7804C7.29193 33.2392 7.54828 32.698 7.97552 32.2708C8.45972 31.8151 9.08634 31.5587 9.76992 31.5587C10.9947 31.5872 11.9916 32.5271 12.1055 33.7519C12.1055 33.7804 12.1055 33.7804 12.1055 33.8088V36.6571H14.1278V33.8088C14.1278 33.2677 14.3841 32.7265 14.8114 32.2993C15.2956 31.8435 15.9222 31.5872 16.6058 31.5872C16.976 31.5872 17.3463 31.7011 17.6881 31.872L18.4286 28.1123H3.36133V31.4448C3.36133 33.4101 3.78857 35.1475 4.47215 36.6856H7.29193V36.6286Z" fill="#B18147"/>
<path d="M8.5164 25.9477H9.3424C9.39936 26.0616 9.45633 26.1756 9.45633 26.2895C9.45633 26.3464 9.45633 26.4319 9.45633 26.4889C9.45633 26.6598 9.42784 26.8591 9.39936 27.0015H6.46565C6.03841 26.7167 5.83903 25.5774 5.81055 24.6375L7.09227 24.2387C7.32013 24.1818 7.46254 23.9824 7.46254 23.7545V23.2703C7.46254 23.0994 7.37709 22.957 7.23468 22.8431L5.81055 21.8462V20.9917L6.29475 20.7354C6.46565 20.6499 6.57958 20.479 6.57958 20.2796V19.1403C6.57958 18.941 6.46565 18.7416 6.26627 18.6561L5.81055 18.4852V17.6308H7.14923L7.77585 18.6846V20.1372L7.34861 21.5329C7.29164 21.7038 7.32013 21.8462 7.43406 21.9886C7.51951 22.131 7.6904 22.188 7.8613 22.188H8.26005C8.5164 22.188 8.71578 22.0171 8.77274 21.7607C8.80122 21.5329 8.94364 20.8778 9.05757 20.593C9.14302 20.3651 9.51329 19.8809 9.74115 19.5961C9.91205 19.3967 9.91205 19.1119 9.74115 18.941L7.97523 16.9187C7.94675 16.6054 7.88978 15.8933 7.97523 15.3806C8.08916 14.811 8.48792 14.1274 8.63033 13.8995C8.68729 13.7856 8.71578 13.6717 8.68729 13.5577L8.65881 13.3868H8.77274L10.852 14.7255C10.9374 14.7825 11.0229 14.811 11.1368 14.811H11.7065L11.678 15.4661L10.9944 15.7224C10.795 15.8079 10.6526 15.9788 10.6526 16.2066V16.7478C10.6526 17.0326 10.8805 17.2605 11.1653 17.2605H12.9312L13.3869 17.7447C13.5578 17.9441 13.8711 17.9441 14.0705 17.8017C14.0705 17.8017 14.868 17.175 14.8965 17.0896L15.1813 16.4915H16.2352V17.6877V18.3428C16.2352 18.3428 14.3553 18.9979 14.2129 19.0549C14.099 19.1119 14.0135 19.71 14.042 19.8239C14.0705 19.9663 14.042 20.0233 14.2699 20.1657C14.2699 20.1657 14.8111 20.593 14.982 20.6499L15.5231 20.1372L16.2352 20.2227V21.9601L15.5516 22.3874L13.3869 20.8778C13.1591 20.7354 12.8458 20.7638 12.7033 20.9917L12.3616 21.4189C12.1907 21.6183 12.2191 21.9316 12.4185 22.1025L13.6433 23.2703V24.2102L12.39 24.7514C12.1907 24.8369 12.0767 25.0078 12.0767 25.2356V25.435C12.0767 25.7198 12.3046 25.9477 12.5894 25.9477H14.0705C14.3269 26.261 14.2129 26.7167 14.1275 27.0015H10.7096C10.5956 26.8876 10.5387 26.6598 10.5102 26.4319C10.5102 26.3749 10.5102 26.2895 10.5102 26.2325C10.5102 25.9192 10.5387 25.5774 10.5956 25.378L11.3931 24.3527C11.4501 24.2672 11.5071 24.1533 11.5071 24.0678L11.5356 23.5836C11.5356 23.4127 11.4501 23.2418 11.3077 23.1279C11.1653 23.014 10.9659 23.014 10.8235 23.0709L9.54177 23.5836C9.37088 23.6406 9.25695 23.8115 9.22847 23.9824L9.11453 24.5236L8.37399 24.7514C8.14612 24.8084 8.00371 25.0078 8.00371 25.2356V25.435C7.97523 25.7198 8.23157 25.9477 8.5164 25.9477Z" fill="#B18147"/>
<path d="M33.3536 25.9477H32.5276C32.4706 26.0616 32.4136 26.1756 32.4136 26.2895C32.4136 26.3464 32.4136 26.4319 32.4136 26.4889C32.4136 26.6598 32.4421 26.8591 32.4706 27.0015H35.4043C35.8316 26.7167 36.0309 25.5774 36.0594 24.6375L34.7777 24.2387C34.5498 24.1818 34.4074 23.9824 34.4074 23.7545V23.2703C34.4074 23.0994 34.4929 22.957 34.6353 22.8431L36.0594 21.8462V20.9917L35.5752 20.7354C35.4043 20.6499 35.2904 20.479 35.2904 20.2796V19.1403C35.2904 18.941 35.4043 18.7416 35.6037 18.6561L36.0594 18.4852V17.6308H34.7207L34.0941 18.6846V20.1372L34.5214 21.5329C34.5783 21.7038 34.5498 21.8462 34.4359 21.9886C34.3505 22.131 34.1796 22.188 34.0087 22.188H33.6099C33.3536 22.188 33.1542 22.0171 33.0972 21.7607C33.0687 21.5329 32.9263 20.8778 32.8124 20.593C32.7269 20.3651 32.3567 19.8809 32.1288 19.5961C31.9579 19.3967 31.9579 19.1119 32.1288 18.941L33.8947 16.9187C33.9232 16.6054 33.9802 15.8933 33.8947 15.3806C33.7808 14.811 33.382 14.1274 33.2396 13.8995C33.1827 13.7856 33.1542 13.6717 33.1827 13.5577L33.2111 13.3868H33.0972L31.018 14.7255C30.9325 14.7825 30.8471 14.811 30.7332 14.811H30.1635L30.192 15.58L30.8756 15.8363C31.075 15.9218 31.2174 16.0927 31.2174 16.3206V16.8617C31.2174 17.1466 30.9895 17.3744 30.7047 17.3744H28.9388L28.483 17.8586C28.3121 18.058 27.9988 18.058 27.7994 17.9156C27.7994 17.9156 27.0019 17.289 26.9734 17.2035L26.6886 16.6054H25.6348V17.8017V18.4568C25.6348 18.4568 27.5146 19.1119 27.657 19.1688C27.771 19.2258 27.8564 19.8239 27.8279 19.9379C27.7994 20.0803 27.8279 20.1372 27.6001 20.2796C27.6001 20.2796 27.0589 20.7069 26.888 20.7638L26.3468 20.2512L25.6348 20.2227V21.9601L26.3183 22.3874L28.483 20.9063C28.7109 20.7638 29.0242 20.7923 29.1666 21.0202L29.5084 21.4474C29.6793 21.6468 29.6508 21.9601 29.4514 22.131L28.2267 23.2988V24.2387L29.4799 24.7799C29.6793 24.8653 29.7932 25.0362 29.7932 25.2641V25.4635C29.7932 25.7483 29.5654 25.9762 29.2805 25.9762H27.7994C27.5431 26.2895 27.657 26.7452 27.7425 27.03H31.1889C31.3028 26.9161 31.3598 26.6882 31.3883 26.4604C31.3883 26.4034 31.3883 26.318 31.3883 26.261C31.3883 25.9477 31.3598 25.6059 31.3028 25.4065L30.5053 24.3811C30.4483 24.2957 30.3914 24.1818 30.3914 24.0963L30.3629 23.6121C30.3629 23.4412 30.4483 23.2703 30.5907 23.1564C30.7332 23.0425 30.9325 23.0425 31.075 23.0994L32.3567 23.6121C32.5276 23.6691 32.6415 23.84 32.67 24.0109L32.7554 24.5236L33.496 24.7514C33.7238 24.8084 33.8663 25.0078 33.8663 25.2356V25.435C33.8663 25.7198 33.6384 25.9477 33.3536 25.9477Z" fill="#B18147"/>
<path d="M114.272 21.3905C114.272 19.4252 115.697 17.6877 117.861 17.6877C119.058 17.6877 119.798 18.0295 120.51 18.6277L119.997 19.2258C119.456 18.7416 118.83 18.3998 117.833 18.3998C116.266 18.3998 115.127 19.7385 115.127 21.3335V21.362C115.127 23.071 116.209 24.3242 117.947 24.3242C118.773 24.3242 119.513 24.0109 119.997 23.6121V21.8462H117.833V21.1341H120.767V23.9824C120.111 24.5805 119.115 25.0648 117.89 25.0648C115.668 25.0648 114.272 23.4412 114.272 21.3905Z" fill="#8B1232"/>
<path d="M129.852 21.3905C129.852 19.7385 128.656 18.4283 127.032 18.4283C125.409 18.4283 124.241 19.7385 124.241 21.362V21.3905C124.241 23.014 125.409 24.3242 127.061 24.3242C128.713 24.3242 129.852 23.014 129.852 21.3905ZM123.415 21.3905C123.415 19.3967 124.896 17.6877 127.061 17.6877C129.226 17.6877 130.678 19.3967 130.678 21.362V21.3905C130.678 23.3558 129.197 25.0648 127.032 25.0648C124.868 25.0648 123.415 23.3558 123.415 21.3905Z" fill="#8B1232"/>
<path d="M136.602 21.7038H134.352V24.2102H136.745C137.827 24.2102 138.482 23.726 138.482 22.9285V22.9C138.511 22.1595 137.856 21.7038 136.602 21.7038ZM138.112 19.71C138.112 18.9979 137.542 18.5422 136.545 18.5422H134.381V20.9917H136.488C137.428 20.9917 138.112 20.5645 138.112 19.71ZM133.555 17.8016H136.602C137.428 17.8016 138.055 18.0295 138.454 18.4283C138.739 18.7416 138.909 19.1118 138.909 19.5676V19.596C138.909 20.536 138.34 20.9917 137.77 21.248C138.625 21.5044 139.308 21.9886 139.308 22.957V22.9855C139.308 24.2102 138.283 24.9223 136.716 24.9223H133.555V17.8016Z" fill="#8B1232"/>
<path d="M142.983 17.8016H142.186V24.9223H142.983V17.8016Z" fill="#8B1232"/>
<path d="M146.259 17.8016H151.414V18.5422H147.056V20.9917H150.958V21.7038H147.056V24.2102H151.471V24.9508H146.259V17.8016Z" fill="#8B1232"/>
<path d="M157.138 21.4474C158.221 21.4474 158.961 20.9062 158.961 19.9663V19.9378C158.961 19.0549 158.278 18.5422 157.138 18.5422H154.945V21.4474H157.138ZM154.119 17.8016H157.195C158.078 17.8016 158.762 18.058 159.218 18.5137C159.559 18.8555 159.759 19.3682 159.759 19.9094V19.9378C159.759 21.1056 158.933 21.8177 157.822 22.0171L160.015 24.9223H159.018L156.939 22.1595H154.945V24.9223H154.148V17.8016H154.119Z" fill="#8B1232"/>
<path d="M162.664 17.8016H163.433L167.905 23.5266V17.8016H168.702V24.9508H168.047L163.462 19.0834V24.9508H162.664V17.8016Z" fill="#8B1232"/>
<path d="M178.016 21.3905C178.016 19.7385 176.82 18.4283 175.196 18.4283C173.573 18.4283 172.405 19.7385 172.405 21.362V21.3905C172.405 23.014 173.573 24.3242 175.225 24.3242C176.848 24.3242 178.016 23.014 178.016 21.3905ZM171.579 21.3905C171.579 19.3967 173.06 17.6877 175.225 17.6877C177.39 17.6877 178.842 19.3967 178.842 21.362V21.3905C178.842 23.3558 177.361 25.0648 175.196 25.0648C173.032 25.0648 171.579 23.3558 171.579 21.3905Z" fill="#8B1232"/>
<path d="M186.248 18.5423V24.2104H187.928C189.723 24.2104 190.89 22.9856 190.89 21.4191V21.3906C190.89 19.824 189.751 18.5708 187.928 18.5708L186.248 18.5423ZM185.45 17.8018H187.928C190.178 17.8018 191.716 19.3398 191.716 21.3336V21.3621C191.716 23.3559 190.178 24.9224 187.928 24.9224H185.45V17.8018Z" fill="#8B1232"/>
<path d="M194.28 17.8016H199.407V18.5422H195.078V20.9917H198.951V21.7038H195.078V24.2102H199.464V24.9508H194.28V17.8016Z" fill="#8B1232"/>
<path d="M205.873 17.8016H206.671V24.2102H210.687V24.9508H205.873V17.8016Z" fill="#8B1232"/>
<path d="M217.636 22.3304L216.013 18.7131L214.389 22.3304H217.636ZM215.643 17.7732H216.383L219.63 24.9508H218.776L217.95 23.071H214.076L213.221 24.9508H212.396L215.643 17.7732Z" fill="#8B1232"/>
<path d="M114.13 33.6095C114.13 31.5587 115.668 29.9067 117.861 29.9067C119.2 29.9067 119.997 30.3625 120.681 31.0176L119.684 32.1569C119.143 31.6442 118.573 31.3594 117.861 31.3594C116.665 31.3594 115.782 32.3562 115.782 33.581V33.6095C115.782 34.8342 116.636 35.8596 117.861 35.8596C118.687 35.8596 119.171 35.5463 119.741 35.0336L120.738 36.0305C119.997 36.828 119.2 37.3122 117.804 37.3122C115.696 37.2837 114.13 35.6602 114.13 33.6095Z" fill="#8B1232"/>
<path d="M123.558 30.0492H121.991V37.1699H123.558V30.0492Z" fill="#8B1232"/>
<path d="M125.381 34.1222V30.0492H126.947V34.0937C126.947 35.2615 127.517 35.8597 128.485 35.8597C129.454 35.8597 130.024 35.29 130.024 34.1507V30.0777H131.59V34.0937C131.59 36.2584 130.365 37.3123 128.457 37.3123C126.549 37.2838 125.381 36.2014 125.381 34.1222Z" fill="#8B1232"/>
<path d="M136.176 35.7457C137.458 35.7457 138.312 34.8912 138.312 33.6095C138.312 32.3563 137.458 31.4733 136.176 31.4733H134.951V35.7742L136.176 35.7457ZM133.385 30.0492H136.176C138.426 30.0492 139.964 31.5873 139.964 33.581V33.6095C139.964 35.6033 138.426 37.1699 136.176 37.1699H133.385V30.0492Z" fill="#8B1232"/>
<path d="M145.062 34.1791L144.122 31.872L143.182 34.1791H145.062ZM143.438 29.9922H144.891L147.939 37.1698H146.287L145.632 35.5748H142.612L141.957 37.1698H140.362L143.438 29.9922Z" fill="#8B1232"/>
<path d="M151.841 35.7457C153.123 35.7457 153.977 34.8912 153.977 33.6095C153.977 32.3563 153.123 31.4733 151.841 31.4733H150.616V35.7742L151.841 35.7457ZM149.05 30.0492H151.841C154.091 30.0492 155.629 31.5873 155.629 33.581V33.6095C155.629 35.6033 154.091 37.1699 151.841 37.1699H149.05V30.0492Z" fill="#8B1232"/>
<path d="M162.978 35.7457C164.26 35.7457 165.114 34.8912 165.114 33.6095C165.114 32.3563 164.26 31.4733 162.978 31.4733H161.753V35.7742L162.978 35.7457ZM160.187 30.0492H162.978C165.228 30.0492 166.766 31.5873 166.766 33.581V33.6095C166.766 35.6033 165.228 37.1699 162.978 37.1699H160.187V30.0492Z" fill="#8B1232"/>
<path d="M168.247 30.0492H173.63V31.4448H169.814V32.869H173.175V34.2646H169.814V35.7742H173.687V37.1699H168.247V30.0492Z" fill="#8B1232"/>
<path d="M178.216 30.0492H179.925L181.805 33.0399L183.656 30.0492H185.365V37.1699H183.798V32.4987L181.805 35.5463H181.748L179.754 32.5557V37.1699H178.216V30.0492Z" fill="#8B1232"/>
<path d="M190.207 27.6851L191.546 28.2547L190.236 29.4795H189.04L190.207 27.6851ZM187.217 30.0491H192.6V31.4448H188.783V32.8974H192.144V34.293H188.783V35.8026H192.657V37.1983H187.217V30.0491Z" fill="#8B1232"/>
<path d="M196.16 33.5526L193.767 30.0492H195.59L197.1 32.3563L198.609 30.0492H200.375L198.011 33.5241L200.489 37.1699H198.666L197.043 34.7203L195.448 37.1699H193.653L196.16 33.5526Z" fill="#8B1232"/>
<path d="M203.252 30.0492H201.686V37.1699H203.252V30.0492Z" fill="#8B1232"/>
<path d="M204.79 33.6095C204.79 31.5587 206.328 29.9067 208.521 29.9067C209.86 29.9067 210.657 30.3625 211.341 31.0176L210.344 32.1569C209.803 31.6442 209.233 31.3594 208.521 31.3594C207.325 31.3594 206.442 32.3562 206.442 33.581V33.6095C206.442 34.8342 207.297 35.8596 208.521 35.8596C209.347 35.8596 209.831 35.5463 210.401 35.0336L211.398 36.0305C210.657 36.828 209.86 37.3122 208.464 37.3122C206.328 37.2837 204.79 35.6602 204.79 33.6095Z" fill="#8B1232"/>
<path d="M218.035 33.6095C218.035 32.3562 217.152 31.3594 215.87 31.3594C214.617 31.3594 213.734 32.3562 213.734 33.581V33.6095C213.734 34.8342 214.617 35.8596 215.899 35.8596C217.152 35.8311 218.035 34.8342 218.035 33.6095ZM212.11 33.6095C212.11 31.5587 213.705 29.9067 215.899 29.9067C218.092 29.9067 219.687 31.5587 219.687 33.581V33.6095C219.687 35.6318 218.092 37.2837 215.899 37.2837C213.677 37.2837 212.11 35.6602 212.11 33.6095Z" fill="#8B1232"/>
</svg>
