<svg width="36" height="31" viewBox="0 0 36 31" fill="none" xmlns="http://www.w3.org/2000/svg">
<g clip-path="url(#clip0_972_16045)">
<path d="M23.0446 15.8658C27.4357 15.8658 30.9832 12.324 30.9832 7.9358C30.9861 3.53316 27.4328 0.0173953 22.9579 6.20906e-05C18.6333 -0.0172712 15.0973 3.59671 15.1146 8.02247C15.132 12.3644 18.6708 15.8658 23.0446 15.8658Z" fill="#235B4E"/>
<path d="M35.1663 26.0779C35.0941 24.6508 34.6579 23.3219 33.8114 22.1404C32.2225 19.9246 30.0501 18.8471 27.3201 18.7662C26.2859 18.7344 25.5348 18.9771 24.9195 19.8379C24.3908 20.5775 23.7235 21.2188 23.0446 21.9902C22.4321 21.2968 21.8139 20.7451 21.3777 20.0748C20.6324 18.9395 19.6415 18.7055 18.3531 18.7691C14.3953 18.9626 11.0067 22.1577 10.946 26.0779V30.7521H35.1808V26.0779H35.1663Z" fill="#235B4E"/>
<path d="M3.43487 13.7336H0V9.70078H3.43487V6.19946H7.62085V9.70078H11.0326V13.7336H7.62085V17.2552H3.43487V13.7336Z" fill="#BC955C"/>
</g>
<defs>
<clipPath id="clip0_972_16045">
<rect width="35.1807" height="30.7521" fill="white"/>
</clipPath>
</defs>
</svg>
