<svg width="270" height="60" viewBox="0 0 270 60" fill="none" xmlns="http://www.w3.org/2000/svg">
<path d="M18.2232 16.3817V16.3222C18.2232 13.5291 16.7375 12.1325 14.3306 11.2113C15.8163 10.3793 17.0643 9.07185 17.0643 6.72438V6.66495C17.0643 3.39633 14.4494 1.28658 10.2002 1.28658H0.542915V22.0869H10.4379C15.1329 22.0869 18.2232 20.1852 18.2232 16.3817ZM12.518 7.49696C12.518 9.04213 11.2402 9.69586 9.21963 9.69586H5.00013V5.29807H9.51677C11.4482 5.29807 12.518 6.07065 12.518 7.43753V7.49696ZM13.6768 15.8171C13.6768 17.3623 12.4585 18.0754 10.4379 18.0754H5.00013V13.4993H10.2894C12.6368 13.4993 13.6768 14.3611 13.6768 15.7577V15.8171ZM36.3694 14.5691V14.5096C36.3694 9.993 33.9328 5.86265 28.6139 5.86265C23.9783 5.86265 20.7394 9.60671 20.7394 14.1531V14.2125C20.7394 19.0857 24.2755 22.4435 29.0596 22.4435C31.9419 22.4435 34.0814 21.3143 35.5671 19.472L32.9819 17.184C31.7339 18.3429 30.6345 18.8183 29.119 18.8183C27.0984 18.8183 25.6721 17.7486 25.2264 15.6982H36.31C36.3397 15.2822 36.3694 15.0148 36.3694 14.5691ZM31.9716 12.8753H25.1669C25.5235 10.825 26.7418 9.48785 28.6139 9.48785C30.5156 9.48785 31.7042 10.8547 31.9716 12.8753ZM53.7609 19.5314L51.1163 16.8571C50.0168 17.8971 48.9768 18.5509 47.4614 18.5509C44.995 18.5509 43.4202 16.5897 43.4202 14.1531V14.0936C43.4202 11.7462 45.0248 9.75529 47.2831 9.75529C48.8877 9.75529 49.898 10.4387 50.9083 11.5085L53.6718 8.53698C52.186 6.87295 50.314 5.86265 47.3128 5.86265C42.4396 5.86265 38.9629 9.60671 38.9629 14.1531V14.2125C38.9629 18.7589 42.4693 22.4435 47.2534 22.4435C50.4328 22.4435 52.2157 21.2252 53.7609 19.5314ZM70.4098 22.0869V12.8456C70.4098 8.53698 68.2406 5.98151 63.3079 5.98151C60.6039 5.98151 58.8804 6.48666 57.1273 7.25925L58.2564 10.7062C59.7124 10.1713 60.9307 9.84443 62.6542 9.84443C64.9125 9.84443 66.0714 10.8844 66.0714 12.7565V13.0239C64.9422 12.6376 63.7834 12.3702 62.1788 12.3702C58.405 12.3702 55.7604 13.9748 55.7604 17.4514V17.5108C55.7604 20.6606 58.2267 22.3841 61.2279 22.3841C63.4268 22.3841 64.9422 21.5818 66.0417 20.3635V22.0869H70.4098ZM66.1308 16.4708C66.1308 18.1051 64.7045 19.264 62.5948 19.264C61.1388 19.264 60.1284 18.5509 60.1284 17.3326V17.2731C60.1284 15.8468 61.317 15.0742 63.2485 15.0742C64.3479 15.0742 65.3582 15.3119 66.1308 15.6685V16.4708ZM99.2212 22.0869V0.395135H94.7046V8.23983C93.6349 6.9621 92.1491 5.86265 89.7422 5.86265C85.9685 5.86265 82.4918 8.7747 82.4918 14.0936V14.1531C82.4918 19.472 86.0279 22.3841 89.7422 22.3841C92.0897 22.3841 93.6052 21.2846 94.7046 19.7989V22.0869H99.2212ZM94.764 14.1531C94.764 16.7977 93.0109 18.5509 90.9011 18.5509C88.7914 18.5509 87.0085 16.7977 87.0085 14.1531V14.0936C87.0085 11.4193 88.7914 9.69586 90.9011 9.69586C93.0109 9.69586 94.764 11.449 94.764 14.0936V14.1531ZM118.114 14.5691V14.5096C118.114 9.993 115.677 5.86265 110.358 5.86265C105.723 5.86265 102.484 9.60671 102.484 14.1531V14.2125C102.484 19.0857 106.02 22.4435 110.804 22.4435C113.687 22.4435 115.826 21.3143 117.312 19.472L114.727 17.184C113.479 18.3429 112.379 18.8183 110.864 18.8183C108.843 18.8183 107.417 17.7486 106.971 15.6982H118.055C118.084 15.2822 118.114 15.0148 118.114 14.5691ZM113.716 12.8753H106.912C107.268 10.825 108.486 9.48785 110.358 9.48785C112.26 9.48785 113.449 10.8547 113.716 12.8753ZM148.545 16.3817V16.3222C148.545 13.5291 147.059 12.1325 144.652 11.2113C146.138 10.3793 147.386 9.07185 147.386 6.72438V6.66495C147.386 3.39633 144.771 1.28658 140.522 1.28658H130.864V22.0869H140.759C145.454 22.0869 148.545 20.1852 148.545 16.3817ZM142.839 7.49696C142.839 9.04213 141.562 9.69586 139.541 9.69586H135.321V5.29807H139.838C141.77 5.29807 142.839 6.07065 142.839 7.43753V7.49696ZM143.998 15.8171C143.998 17.3623 142.78 18.0754 140.759 18.0754H135.321V13.4993H140.611C142.958 13.4993 143.998 14.3611 143.998 15.7577V15.8171ZM156.677 4.40663V0.395135H151.922V4.40663H156.677ZM156.558 22.0869V6.1598H152.041V22.0869H156.558ZM175.657 14.5691V14.5096C175.657 9.993 173.221 5.86265 167.902 5.86265C163.266 5.86265 160.027 9.60671 160.027 14.1531V14.2125C160.027 19.0857 163.563 22.4435 168.348 22.4435C171.23 22.4435 173.369 21.3143 174.855 19.472L172.27 17.184C171.022 18.3429 169.922 18.8183 168.407 18.8183C166.386 18.8183 164.96 17.7486 164.514 15.6982H175.598C175.628 15.2822 175.657 15.0148 175.657 14.5691ZM171.26 12.8753H164.455C164.811 10.825 166.03 9.48785 167.902 9.48785C169.804 9.48785 170.992 10.8547 171.26 12.8753ZM193.613 22.0869V11.7759C193.613 8.12097 191.623 5.86265 188.205 5.86265C185.917 5.86265 184.58 7.08096 183.54 8.41812V6.1598H179.023V22.0869H183.54V13.2022C183.54 11.0627 184.64 9.96329 186.363 9.96329C188.086 9.96329 189.097 11.0627 189.097 13.2022V22.0869H193.613ZM212.395 14.5691V14.5096C212.395 9.993 209.958 5.86265 204.639 5.86265C200.004 5.86265 196.765 9.60671 196.765 14.1531V14.2125C196.765 19.0857 200.301 22.4435 205.085 22.4435C207.967 22.4435 210.107 21.3143 211.592 19.472L209.007 17.184C207.759 18.3429 206.66 18.8183 205.144 18.8183C203.124 18.8183 201.697 17.7486 201.252 15.6982H212.335C212.365 15.2822 212.395 15.0148 212.395 14.5691ZM207.997 12.8753H201.192C201.549 10.825 202.767 9.48785 204.639 9.48785C206.541 9.48785 207.729 10.8547 207.997 12.8753ZM227.439 17.2434V17.184C227.439 14.2719 224.853 13.2022 222.625 12.4593C220.901 11.865 219.386 11.449 219.386 10.5576V10.4982C219.386 9.87415 219.95 9.39871 221.05 9.39871C222.209 9.39871 223.784 9.96329 225.359 10.8844L227.082 7.7644C225.359 6.60552 223.16 5.92208 221.139 5.92208C217.93 5.92208 215.315 7.73468 215.315 10.9736V11.033C215.315 14.1234 217.841 15.1634 220.069 15.8171C221.822 16.352 223.368 16.6788 223.368 17.6594V17.7188C223.368 18.432 222.773 18.9074 221.466 18.9074C219.98 18.9074 218.168 18.2537 216.444 17.0057L214.513 19.9772C216.622 21.6412 219.118 22.3841 221.347 22.3841C224.794 22.3841 227.439 20.7795 227.439 17.2434ZM239.33 21.4332V17.808C238.676 18.1646 237.933 18.3726 237.101 18.3726C236.091 18.3726 235.645 17.8674 235.645 16.8274V10.0227H239.39V6.1598H235.645V2.08888H231.129V6.1598H229.227V10.0227H231.129V17.5703C231.129 21.2549 233.001 22.3543 235.764 22.3543C237.28 22.3543 238.379 21.9978 239.33 21.4332ZM256.417 22.0869V12.8456C256.417 8.53698 254.248 5.98151 249.315 5.98151C246.611 5.98151 244.888 6.48666 243.135 7.25925L244.264 10.7062C245.72 10.1713 246.938 9.84443 248.662 9.84443C250.92 9.84443 252.079 10.8844 252.079 12.7565V13.0239C250.95 12.6376 249.791 12.3702 248.186 12.3702C244.412 12.3702 241.768 13.9748 241.768 17.4514V17.5108C241.768 20.6606 244.234 22.3841 247.235 22.3841C249.434 22.3841 250.95 21.5818 252.049 20.3635V22.0869H256.417ZM252.138 16.4708C252.138 18.1051 250.712 19.264 248.602 19.264C247.146 19.264 246.136 18.5509 246.136 17.3326V17.2731C246.136 15.8468 247.325 15.0742 249.256 15.0742C250.355 15.0742 251.366 15.3119 252.138 15.6685V16.4708ZM269.902 10.5873V5.86265C267.227 5.74379 265.742 7.1701 264.82 9.36899V6.1598H260.304V22.0869H264.82V16.2034C264.82 12.3999 266.663 10.5873 269.664 10.5873H269.902Z" fill="#BC955C"/>
<path d="M16.7969 47.1531V47.0936C16.7969 41.7747 13.2608 38.8627 9.54649 38.8627C7.19902 38.8627 5.68357 39.9621 4.58412 41.4478V39.1598H0.0674792V59.8413H4.58412V53.0069C5.65386 54.2846 7.13959 55.3841 9.54649 55.3841C13.3203 55.3841 16.7969 52.472 16.7969 47.1531ZM12.2802 47.1531C12.2802 49.8274 10.4974 51.5509 8.38761 51.5509C6.27787 51.5509 4.52469 49.7977 4.52469 47.1531V47.0936C4.52469 44.449 6.27787 42.6959 8.38761 42.6959C10.4974 42.6959 12.2802 44.449 12.2802 47.0936V47.1531ZM33.8176 55.0869V45.8456C33.8176 41.537 31.6485 38.9815 26.7158 38.9815C24.0118 38.9815 22.2883 39.4867 20.5351 40.2592L21.6643 43.7062C23.1203 43.1713 24.3386 42.8444 26.0621 42.8444C28.3204 42.8444 29.4793 43.8844 29.4793 45.7565V46.0239C28.3501 45.6376 27.1913 45.3702 25.5867 45.3702C21.8129 45.3702 19.1683 46.9748 19.1683 50.4514V50.5108C19.1683 53.6606 21.6346 55.3841 24.6358 55.3841C26.8347 55.3841 28.3501 54.5818 29.4496 53.3635V55.0869H33.8176ZM29.5387 49.4708C29.5387 51.1051 28.1124 52.264 26.0027 52.264C24.5466 52.264 23.5363 51.5509 23.5363 50.3326V50.2731C23.5363 48.8468 24.7249 48.0742 26.6564 48.0742C27.7558 48.0742 28.7661 48.3119 29.5387 48.6685V49.4708ZM47.3021 43.5873V38.8627C44.6278 38.7438 43.142 40.1701 42.2209 42.369V39.1598H37.7042V55.0869H42.2209V49.2034C42.2209 45.3999 44.0632 43.5873 47.0644 43.5873H47.3021ZM63.0681 55.0869V45.8456C63.0681 41.537 60.8989 38.9815 55.9663 38.9815C53.2622 38.9815 51.5388 39.4867 49.7856 40.2592L50.9148 43.7062C52.3708 43.1713 53.5891 42.8444 55.3126 42.8444C57.5709 42.8444 58.7298 43.8844 58.7298 45.7565V46.0239C57.6006 45.6376 56.4417 45.3702 54.8371 45.3702C51.0634 45.3702 48.4187 46.9748 48.4187 50.4514V50.5108C48.4187 53.6606 50.8851 55.3841 53.8863 55.3841C56.0852 55.3841 57.6006 54.5818 58.7001 53.3635V55.0869H63.0681ZM58.7892 49.4708C58.7892 51.1051 57.3629 52.264 55.2531 52.264C53.7971 52.264 52.7868 51.5509 52.7868 50.3326V50.2731C52.7868 48.8468 53.9754 48.0742 55.9069 48.0742C57.0063 48.0742 58.0166 48.3119 58.7892 48.6685V49.4708ZM90.4533 55.0869V44.7759C90.4533 41.121 88.4624 38.8627 85.0452 38.8627C82.7572 38.8627 81.42 40.081 80.38 41.4181V39.1598H75.8633V55.0869H80.38V46.2022C80.38 44.0627 81.4794 42.9633 83.2029 42.9633C84.9264 42.9633 85.9367 44.0627 85.9367 46.2022V55.0869H90.4533ZM99.2205 37.4066V33.3951H94.4662V37.4066H99.2205ZM99.1017 55.0869V39.1598H94.585V55.0869H99.1017ZM117.934 55.0869V44.7759C117.934 41.121 115.943 38.8627 112.526 38.8627C110.238 38.8627 108.9 40.081 107.86 41.4181V39.1598H103.344V55.0869H107.86V46.2022C107.86 44.0627 108.96 42.9633 110.683 42.9633C112.407 42.9633 113.417 44.0627 113.417 46.2022V55.0869H117.934ZM116.834 33.306L114.427 32.5631C114.011 33.514 113.655 34.0191 112.734 34.0191C111.664 34.0191 110.119 32.8603 108.276 32.8603C106.196 32.8603 105.275 34.4649 104.592 36.9609L106.999 37.7038C107.415 36.7529 107.771 36.2478 108.692 36.2478C109.762 36.2478 111.307 37.4066 113.15 37.4066C115.23 37.4066 116.151 35.802 116.834 33.306ZM135.556 55.0869V45.8456C135.556 41.537 133.387 38.9815 128.454 38.9815C125.75 38.9815 124.027 39.4867 122.273 40.2592L123.403 43.7062C124.859 43.1713 126.077 42.8444 127.8 42.8444C130.059 42.8444 131.218 43.8844 131.218 45.7565V46.0239C130.088 45.6376 128.93 45.3702 127.325 45.3702C123.551 45.3702 120.907 46.9748 120.907 50.4514V50.5108C120.907 53.6606 123.373 55.3841 126.374 55.3841C128.573 55.3841 130.088 54.5818 131.188 53.3635V55.0869H135.556ZM131.277 49.4708C131.277 51.1051 129.851 52.264 127.741 52.264C126.285 52.264 125.275 51.5509 125.275 50.3326V50.2731C125.275 48.8468 126.463 48.0742 128.395 48.0742C129.494 48.0742 130.504 48.3119 131.277 48.6685V49.4708ZM151.12 50.2434V50.184C151.12 47.2719 148.535 46.2022 146.307 45.4593C144.583 44.865 143.068 44.449 143.068 43.5576V43.4982C143.068 42.8741 143.632 42.3987 144.732 42.3987C145.891 42.3987 147.465 42.9633 149.04 43.8844L150.764 40.7644C149.04 39.6055 146.841 38.9221 144.821 38.9221C141.612 38.9221 138.997 40.7347 138.997 43.9736V44.033C138.997 47.1234 141.523 48.1634 143.751 48.8171C145.504 49.352 147.049 49.6788 147.049 50.6594V50.7188C147.049 51.432 146.455 51.9074 145.148 51.9074C143.662 51.9074 141.849 51.2537 140.126 50.0057L138.194 52.9772C140.304 54.6412 142.8 55.3841 145.029 55.3841C148.476 55.3841 151.12 53.7795 151.12 50.2434ZM178.421 39.1598H173.726L170.25 50.0057L166.624 39.1598H161.84L168.08 55.1463C167.694 55.9486 167.278 56.1864 166.505 56.1864C165.911 56.1864 165.168 55.9189 164.574 55.5624L163.059 58.831C164.217 59.5144 165.436 59.9304 167.07 59.9304C169.774 59.9304 171.082 58.7121 172.3 55.4732L178.421 39.1598ZM204.582 55.0869V44.7759C204.582 41.121 202.591 38.8627 199.174 38.8627C196.886 38.8627 195.549 40.081 194.509 41.4181V39.1598H189.992V55.0869H194.509V46.2022C194.509 44.0627 195.609 42.9633 197.332 42.9633C199.055 42.9633 200.066 44.0627 200.066 46.2022V55.0869H204.582ZM213.35 37.4066V33.3951H208.595V37.4066H213.35ZM213.231 55.0869V39.1598H208.714V55.0869H213.231ZM232.063 55.0869V44.7759C232.063 41.121 230.072 38.8627 226.655 38.8627C224.367 38.8627 223.029 40.081 221.989 41.4181V39.1598H217.473V55.0869H221.989V46.2022C221.989 44.0627 223.089 42.9633 224.812 42.9633C226.536 42.9633 227.546 44.0627 227.546 46.2022V55.0869H232.063ZM230.963 33.306L228.556 32.5631C228.14 33.514 227.784 34.0191 226.863 34.0191C225.793 34.0191 224.248 32.8603 222.405 32.8603C220.325 32.8603 219.404 34.4649 218.721 36.9609L221.128 37.7038C221.544 36.7529 221.9 36.2478 222.821 36.2478C223.891 36.2478 225.436 37.4066 227.279 37.4066C229.359 37.4066 230.28 35.802 230.963 33.306ZM252.448 47.1531V47.0936C252.448 42.5176 248.794 38.8627 243.861 38.8627C238.899 38.8627 235.214 42.577 235.214 47.1531V47.2125C235.214 51.7886 238.869 55.4435 243.801 55.4435C248.764 55.4435 252.448 51.7291 252.448 47.1531ZM247.991 47.2125C247.991 49.56 246.446 51.5509 243.861 51.5509C241.365 51.5509 239.671 49.5005 239.671 47.1531V47.0936C239.671 44.7462 241.216 42.7553 243.801 42.7553C246.297 42.7553 247.991 44.8056 247.991 47.1531V47.2125ZM267.397 50.2434V50.184C267.397 47.2719 264.812 46.2022 262.583 45.4593C260.86 44.865 259.344 44.449 259.344 43.5576V43.4982C259.344 42.8741 259.909 42.3987 261.008 42.3987C262.167 42.3987 263.742 42.9633 265.317 43.8844L267.04 40.7644C265.317 39.6055 263.118 38.9221 261.097 38.9221C257.888 38.9221 255.273 40.7347 255.273 43.9736V44.033C255.273 47.1234 257.799 48.1634 260.028 48.8171C261.781 49.352 263.326 49.6788 263.326 50.6594V50.7188C263.326 51.432 262.732 51.9074 261.424 51.9074C259.938 51.9074 258.126 51.2537 256.402 50.0057L254.471 52.9772C256.581 54.6412 259.077 55.3841 261.305 55.3841C264.752 55.3841 267.397 53.7795 267.397 50.2434Z" fill="#235B4E"/>
</svg>
