<svg width="213" height="68" viewBox="0 0 213 68" fill="none" xmlns="http://www.w3.org/2000/svg">
<g filter="url(#filter0_d_439_13118)">
<rect x="4" width="205" height="60" rx="16.1973" fill="#FAFAFA"/>
<rect x="5.5" y="1.5" width="202" height="57" rx="14.6973" stroke="#235B4E" stroke-width="3"/>
</g>
<path d="M55.861 36V24.3636H60.5201C61.3761 24.3636 62.0901 24.4905 62.6621 24.7443C63.2341 24.9981 63.664 25.3504 63.9519 25.8011C64.2398 26.2481 64.3837 26.7633 64.3837 27.3466C64.3837 27.8011 64.2928 28.2008 64.111 28.5455C63.9292 28.8864 63.6792 29.1667 63.361 29.3864C63.0466 29.6023 62.6867 29.7557 62.2814 29.8466V29.9602C62.7246 29.9792 63.1394 30.1042 63.5257 30.3352C63.9159 30.5663 64.2322 30.8902 64.4746 31.3068C64.717 31.7197 64.8382 32.2121 64.8382 32.7841C64.8382 33.4015 64.6848 33.9527 64.378 34.4375C64.075 34.9186 63.6261 35.2992 63.0314 35.5795C62.4367 35.8598 61.7038 36 60.8326 36H55.861ZM58.3212 33.9886H60.3269C61.0125 33.9886 61.5125 33.858 61.8269 33.5966C62.1413 33.3314 62.2985 32.9792 62.2985 32.5398C62.2985 32.2178 62.2208 31.9337 62.0655 31.6875C61.9102 31.4413 61.6886 31.2481 61.4007 31.108C61.1167 30.9678 60.7776 30.8977 60.3837 30.8977H58.3212V33.9886ZM58.3212 29.233H60.1451C60.4822 29.233 60.7814 29.1742 61.0428 29.0568C61.3079 28.9356 61.5163 28.7652 61.6678 28.5455C61.8231 28.3258 61.9007 28.0625 61.9007 27.7557C61.9007 27.3352 61.7511 26.9962 61.4519 26.7386C61.1564 26.4811 60.736 26.3523 60.1905 26.3523H58.3212V29.233ZM68.8141 24.3636V36H66.3936V24.3636H68.8141ZM74.6962 36.1705C73.8136 36.1705 73.0504 35.983 72.4064 35.608C71.7663 35.2292 71.272 34.7027 70.9235 34.0284C70.575 33.3504 70.4007 32.5644 70.4007 31.6705C70.4007 30.7689 70.575 29.9811 70.9235 29.3068C71.272 28.6288 71.7663 28.1023 72.4064 27.7273C73.0504 27.3485 73.8136 27.1591 74.6962 27.1591C75.5788 27.1591 76.3401 27.3485 76.9803 27.7273C77.6242 28.1023 78.1204 28.6288 78.4689 29.3068C78.8174 29.9811 78.9917 30.7689 78.9917 31.6705C78.9917 32.5644 78.8174 33.3504 78.4689 34.0284C78.1204 34.7027 77.6242 35.2292 76.9803 35.608C76.3401 35.983 75.5788 36.1705 74.6962 36.1705ZM74.7076 34.2955C75.1091 34.2955 75.4443 34.1818 75.7132 33.9545C75.9822 33.7235 76.1848 33.4091 76.3212 33.0114C76.4614 32.6136 76.5314 32.161 76.5314 31.6534C76.5314 31.1458 76.4614 30.6932 76.3212 30.2955C76.1848 29.8977 75.9822 29.5833 75.7132 29.3523C75.4443 29.1212 75.1091 29.0057 74.7076 29.0057C74.3023 29.0057 73.9614 29.1212 73.6848 29.3523C73.4121 29.5833 73.2057 29.8977 73.0655 30.2955C72.9292 30.6932 72.861 31.1458 72.861 31.6534C72.861 32.161 72.9292 32.6136 73.0655 33.0114C73.2057 33.4091 73.4121 33.7235 73.6848 33.9545C73.9614 34.1818 74.3023 34.2955 74.7076 34.2955ZM86.3326 39.2727V34.6023H86.2587C86.1451 34.8447 85.9841 35.0852 85.7757 35.3239C85.5712 35.5587 85.3042 35.7538 84.9746 35.9091C84.6489 36.0644 84.2511 36.142 83.7814 36.142C83.1185 36.142 82.5182 35.9716 81.9803 35.6307C81.4462 35.286 81.022 34.7803 80.7076 34.1136C80.397 33.4432 80.2417 32.6212 80.2417 31.6477C80.2417 30.6477 80.4026 29.8163 80.7246 29.1534C81.0466 28.4867 81.4746 27.9886 82.0087 27.6591C82.5466 27.3258 83.1356 27.1591 83.7757 27.1591C84.2644 27.1591 84.6716 27.2424 84.9973 27.4091C85.3269 27.572 85.592 27.7765 85.7928 28.0227C85.9973 28.2652 86.1526 28.5038 86.2587 28.7386H86.361V27.2727H88.7473V39.2727H86.3326ZM84.5485 34.2159C84.9386 34.2159 85.2682 34.1098 85.5371 33.8977C85.8098 33.6818 86.0182 33.3807 86.1621 32.9943C86.3098 32.608 86.3837 32.1553 86.3837 31.6364C86.3837 31.1174 86.3117 30.6667 86.1678 30.2841C86.0239 29.9015 85.8155 29.6061 85.5428 29.3977C85.2701 29.1894 84.9386 29.0852 84.5485 29.0852C84.1507 29.0852 83.8155 29.1932 83.5428 29.4091C83.2701 29.625 83.0636 29.9242 82.9235 30.3068C82.7833 30.6894 82.7132 31.1326 82.7132 31.6364C82.7132 32.1439 82.7833 32.5928 82.9235 32.983C83.0674 33.3693 83.2739 33.6723 83.5428 33.892C83.8155 34.108 84.1507 34.2159 84.5485 34.2159ZM96.2871 32.2841V27.2727H98.7076V36H96.3837V34.4148H96.2928C96.0958 34.9261 95.7682 35.3371 95.3098 35.6477C94.8553 35.9583 94.3004 36.1136 93.6451 36.1136C93.0617 36.1136 92.5485 35.9811 92.1053 35.7159C91.6621 35.4508 91.3155 35.0739 91.0655 34.5852C90.8193 34.0966 90.6943 33.5114 90.6905 32.8295V27.2727H93.111V32.3977C93.1148 32.9129 93.253 33.3201 93.5257 33.6193C93.7985 33.9186 94.164 34.0682 94.6223 34.0682C94.914 34.0682 95.1867 34.0019 95.4405 33.8693C95.6943 33.733 95.8989 33.5322 96.0542 33.267C96.2132 33.0019 96.2909 32.6742 96.2871 32.2841ZM104.621 36.1705C103.723 36.1705 102.95 35.9886 102.303 35.625C101.659 35.2576 101.163 34.7386 100.814 34.0682C100.466 33.3939 100.291 32.5966 100.291 31.6761C100.291 30.7784 100.466 29.9905 100.814 29.3125C101.163 28.6345 101.653 28.1061 102.286 27.7273C102.922 27.3485 103.668 27.1591 104.524 27.1591C105.1 27.1591 105.636 27.2519 106.132 27.4375C106.632 27.6193 107.068 27.8939 107.439 28.2614C107.814 28.6288 108.106 29.0909 108.314 29.6477C108.522 30.2008 108.627 30.8485 108.627 31.5909V32.2557H101.257V30.7557H106.348C106.348 30.4072 106.272 30.0985 106.121 29.8295C105.969 29.5606 105.759 29.3504 105.49 29.1989C105.225 29.0436 104.916 28.9659 104.564 28.9659C104.197 28.9659 103.871 29.0511 103.587 29.2216C103.307 29.3883 103.087 29.6136 102.928 29.8977C102.769 30.178 102.687 30.4905 102.683 30.8352V32.2614C102.683 32.6932 102.763 33.0663 102.922 33.3807C103.085 33.6951 103.314 33.9375 103.61 34.108C103.905 34.2784 104.255 34.3636 104.661 34.3636C104.93 34.3636 105.176 34.3258 105.399 34.25C105.623 34.1742 105.814 34.0606 105.973 33.9091C106.132 33.7576 106.253 33.572 106.337 33.3523L108.575 33.5C108.462 34.0379 108.229 34.5076 107.877 34.9091C107.528 35.3068 107.077 35.6174 106.524 35.8409C105.975 36.0606 105.341 36.1705 104.621 36.1705ZM114.149 36.1705C113.267 36.1705 112.503 35.983 111.86 35.608C111.219 35.2292 110.725 34.7027 110.377 34.0284C110.028 33.3504 109.854 32.5644 109.854 31.6705C109.854 30.7689 110.028 29.9811 110.377 29.3068C110.725 28.6288 111.219 28.1023 111.86 27.7273C112.503 27.3485 113.267 27.1591 114.149 27.1591C115.032 27.1591 115.793 27.3485 116.433 27.7273C117.077 28.1023 117.574 28.6288 117.922 29.3068C118.271 29.9811 118.445 30.7689 118.445 31.6705C118.445 32.5644 118.271 33.3504 117.922 34.0284C117.574 34.7027 117.077 35.2292 116.433 35.608C115.793 35.983 115.032 36.1705 114.149 36.1705ZM114.161 34.2955C114.562 34.2955 114.897 34.1818 115.166 33.9545C115.435 33.7235 115.638 33.4091 115.774 33.0114C115.914 32.6136 115.985 32.161 115.985 31.6534C115.985 31.1458 115.914 30.6932 115.774 30.2955C115.638 29.8977 115.435 29.5833 115.166 29.3523C114.897 29.1212 114.562 29.0057 114.161 29.0057C113.755 29.0057 113.414 29.1212 113.138 29.3523C112.865 29.5833 112.659 29.8977 112.519 30.2955C112.382 30.6932 112.314 31.1458 112.314 31.6534C112.314 32.161 112.382 32.6136 112.519 33.0114C112.659 33.4091 112.865 33.7235 113.138 33.9545C113.414 34.1818 113.755 34.2955 114.161 34.2955ZM126.938 36.142C126.275 36.142 125.674 35.9716 125.137 35.6307C124.602 35.286 124.178 34.7803 123.864 34.1136C123.553 33.4432 123.398 32.6212 123.398 31.6477C123.398 30.6477 123.559 29.8163 123.881 29.1534C124.203 28.4867 124.631 27.9886 125.165 27.6591C125.703 27.3258 126.292 27.1591 126.932 27.1591C127.421 27.1591 127.828 27.2424 128.154 27.4091C128.483 27.572 128.748 27.7765 128.949 28.0227C129.154 28.2652 129.309 28.5038 129.415 28.7386H129.489V24.3636H131.904V36H129.517V34.6023H129.415C129.301 34.8447 129.14 35.0852 128.932 35.3239C128.727 35.5587 128.46 35.7538 128.131 35.9091C127.805 36.0644 127.407 36.142 126.938 36.142ZM127.705 34.2159C128.095 34.2159 128.424 34.1098 128.693 33.8977C128.966 33.6818 129.174 33.3807 129.318 32.9943C129.466 32.608 129.54 32.1553 129.54 31.6364C129.54 31.1174 129.468 30.6667 129.324 30.2841C129.18 29.9015 128.972 29.6061 128.699 29.3977C128.426 29.1894 128.095 29.0852 127.705 29.0852C127.307 29.0852 126.972 29.1932 126.699 29.4091C126.426 29.625 126.22 29.9242 126.08 30.3068C125.94 30.6894 125.869 31.1326 125.869 31.6364C125.869 32.1439 125.94 32.5928 126.08 32.983C126.224 33.3693 126.43 33.6723 126.699 33.892C126.972 34.108 127.307 34.2159 127.705 34.2159ZM137.871 36.1705C136.973 36.1705 136.2 35.9886 135.553 35.625C134.909 35.2576 134.413 34.7386 134.064 34.0682C133.716 33.3939 133.541 32.5966 133.541 31.6761C133.541 30.7784 133.716 29.9905 134.064 29.3125C134.413 28.6345 134.903 28.1061 135.536 27.7273C136.172 27.3485 136.918 27.1591 137.774 27.1591C138.35 27.1591 138.886 27.2519 139.382 27.4375C139.882 27.6193 140.318 27.8939 140.689 28.2614C141.064 28.6288 141.356 29.0909 141.564 29.6477C141.772 30.2008 141.877 30.8485 141.877 31.5909V32.2557H134.507V30.7557H139.598C139.598 30.4072 139.522 30.0985 139.371 29.8295C139.219 29.5606 139.009 29.3504 138.74 29.1989C138.475 29.0436 138.166 28.9659 137.814 28.9659C137.447 28.9659 137.121 29.0511 136.837 29.2216C136.557 29.3883 136.337 29.6136 136.178 29.8977C136.019 30.178 135.937 30.4905 135.933 30.8352V32.2614C135.933 32.6932 136.013 33.0663 136.172 33.3807C136.335 33.6951 136.564 33.9375 136.86 34.108C137.155 34.2784 137.505 34.3636 137.911 34.3636C138.18 34.3636 138.426 34.3258 138.649 34.25C138.873 34.1742 139.064 34.0606 139.223 33.9091C139.382 33.7576 139.503 33.572 139.587 33.3523L141.825 33.5C141.712 34.0379 141.479 34.5076 141.127 34.9091C140.778 35.3068 140.327 35.6174 139.774 35.8409C139.225 36.0606 138.591 36.1705 137.871 36.1705ZM151.801 27.2727V29.0909H146.546V27.2727H151.801ZM147.739 25.1818H150.159V33.3182C150.159 33.5417 150.193 33.7159 150.262 33.8409C150.33 33.9621 150.424 34.0473 150.546 34.0966C150.671 34.1458 150.815 34.1705 150.977 34.1705C151.091 34.1705 151.205 34.161 151.318 34.142C151.432 34.1193 151.519 34.1023 151.58 34.0909L151.96 35.892C151.839 35.9299 151.669 35.9735 151.449 36.0227C151.229 36.0758 150.962 36.108 150.648 36.1193C150.065 36.142 149.553 36.0644 149.114 35.8864C148.678 35.7083 148.339 35.4318 148.097 35.0568C147.854 34.6818 147.735 34.2083 147.739 33.6364V25.1818ZM155.867 36.1648C155.31 36.1648 154.814 36.0682 154.378 35.875C153.942 35.678 153.598 35.3883 153.344 35.0057C153.094 34.6193 152.969 34.1383 152.969 33.5625C152.969 33.0777 153.058 32.6705 153.236 32.3409C153.414 32.0114 153.656 31.7462 153.963 31.5455C154.27 31.3447 154.619 31.1932 155.009 31.0909C155.403 30.9886 155.816 30.9167 156.247 30.875C156.755 30.822 157.164 30.7727 157.475 30.7273C157.785 30.678 158.011 30.6061 158.151 30.5114C158.291 30.4167 158.361 30.2765 158.361 30.0909V30.0568C158.361 29.697 158.247 29.4186 158.02 29.2216C157.797 29.0246 157.478 28.9261 157.066 28.9261C156.63 28.9261 156.283 29.0227 156.026 29.2159C155.768 29.4053 155.598 29.6439 155.514 29.9318L153.276 29.75C153.389 29.2197 153.613 28.7614 153.946 28.375C154.28 27.9848 154.709 27.6856 155.236 27.4773C155.766 27.2652 156.38 27.1591 157.077 27.1591C157.562 27.1591 158.026 27.2159 158.469 27.3295C158.916 27.4432 159.312 27.6193 159.656 27.858C160.005 28.0966 160.28 28.4034 160.48 28.7784C160.681 29.1496 160.781 29.5947 160.781 30.1136V36H158.486V34.7898H158.418C158.278 35.0625 158.09 35.303 157.855 35.5114C157.62 35.7159 157.338 35.8769 157.009 35.9943C156.679 36.108 156.298 36.1648 155.867 36.1648ZM156.56 34.4943C156.916 34.4943 157.23 34.4242 157.503 34.2841C157.776 34.1402 157.99 33.947 158.145 33.7045C158.3 33.4621 158.378 33.1875 158.378 32.8807V31.9545C158.302 32.0038 158.198 32.0492 158.066 32.0909C157.937 32.1288 157.791 32.1648 157.628 32.1989C157.465 32.2292 157.302 32.2576 157.139 32.2841C156.977 32.3068 156.829 32.3277 156.696 32.3466C156.412 32.3883 156.164 32.4545 155.952 32.5455C155.74 32.6364 155.575 32.7595 155.458 32.9148C155.34 33.0663 155.281 33.2557 155.281 33.483C155.281 33.8125 155.401 34.0644 155.639 34.2386C155.882 34.4091 156.189 34.4943 156.56 34.4943ZM162.659 36V27.2727H165.006V28.7955H165.097C165.256 28.2538 165.523 27.8447 165.898 27.5682C166.273 27.2879 166.705 27.1477 167.193 27.1477C167.315 27.1477 167.445 27.1553 167.585 27.1705C167.726 27.1856 167.849 27.2064 167.955 27.233V29.3807C167.841 29.3466 167.684 29.3163 167.483 29.2898C167.282 29.2633 167.099 29.25 166.932 29.25C166.576 29.25 166.258 29.3277 165.977 29.483C165.701 29.6345 165.481 29.8466 165.318 30.1193C165.159 30.392 165.08 30.7064 165.08 31.0625V36H162.659ZM169.206 27.2727H171.627V36.4318C171.627 37.1061 171.494 37.6515 171.229 38.0682C170.964 38.4848 170.583 38.7898 170.087 38.983C169.594 39.1761 169.005 39.2727 168.32 39.2727C168.236 39.2727 168.157 39.2708 168.081 39.267C168.002 39.267 167.918 39.2652 167.831 39.2614V37.3693C167.896 37.3731 167.952 37.375 168.002 37.375C168.047 37.3788 168.096 37.3807 168.149 37.3807C168.539 37.3807 168.812 37.2973 168.968 37.1307C169.127 36.9678 169.206 36.7216 169.206 36.392V27.2727ZM170.411 26.1477C170.055 26.1477 169.748 26.0284 169.49 25.7898C169.233 25.5473 169.104 25.2576 169.104 24.9205C169.104 24.5871 169.233 24.3011 169.49 24.0625C169.748 23.8201 170.055 23.6989 170.411 23.6989C170.774 23.6989 171.083 23.8201 171.337 24.0625C171.594 24.3011 171.723 24.5871 171.723 24.9205C171.723 25.2576 171.594 25.5473 171.337 25.7898C171.083 26.0284 170.774 26.1477 170.411 26.1477ZM177.543 36.1705C176.645 36.1705 175.872 35.9886 175.225 35.625C174.581 35.2576 174.084 34.7386 173.736 34.0682C173.387 33.3939 173.213 32.5966 173.213 31.6761C173.213 30.7784 173.387 29.9905 173.736 29.3125C174.084 28.6345 174.575 28.1061 175.208 27.7273C175.844 27.3485 176.59 27.1591 177.446 27.1591C178.022 27.1591 178.558 27.2519 179.054 27.4375C179.554 27.6193 179.99 27.8939 180.361 28.2614C180.736 28.6288 181.028 29.0909 181.236 29.6477C181.444 30.2008 181.548 30.8485 181.548 31.5909V32.2557H174.179V30.7557H179.27C179.27 30.4072 179.194 30.0985 179.043 29.8295C178.891 29.5606 178.681 29.3504 178.412 29.1989C178.147 29.0436 177.838 28.9659 177.486 28.9659C177.119 28.9659 176.793 29.0511 176.509 29.2216C176.228 29.3883 176.009 29.6136 175.85 29.8977C175.691 30.178 175.609 30.4905 175.605 30.8352V32.2614C175.605 32.6932 175.685 33.0663 175.844 33.3807C176.007 33.6951 176.236 33.9375 176.531 34.108C176.827 34.2784 177.177 34.3636 177.583 34.3636C177.852 34.3636 178.098 34.3258 178.321 34.25C178.545 34.1742 178.736 34.0606 178.895 33.9091C179.054 33.7576 179.175 33.572 179.259 33.3523L181.497 33.5C181.384 34.0379 181.151 34.5076 180.798 34.9091C180.45 35.3068 179.999 35.6174 179.446 35.8409C178.897 36.0606 178.262 36.1705 177.543 36.1705ZM187.77 27.2727V29.0909H182.514V27.2727H187.77ZM183.708 25.1818H186.128V33.3182C186.128 33.5417 186.162 33.7159 186.23 33.8409C186.298 33.9621 186.393 34.0473 186.514 34.0966C186.639 34.1458 186.783 34.1705 186.946 34.1705C187.06 34.1705 187.173 34.161 187.287 34.142C187.401 34.1193 187.488 34.1023 187.548 34.0909L187.929 35.892C187.808 35.9299 187.637 35.9735 187.418 36.0227C187.198 36.0758 186.931 36.108 186.617 36.1193C186.033 36.142 185.522 36.0644 185.083 35.8864C184.647 35.7083 184.308 35.4318 184.066 35.0568C183.823 34.6818 183.704 34.2083 183.708 33.6364V25.1818ZM191.835 36.1648C191.279 36.1648 190.782 36.0682 190.347 35.875C189.911 35.678 189.566 35.3883 189.313 35.0057C189.063 34.6193 188.938 34.1383 188.938 33.5625C188.938 33.0777 189.027 32.6705 189.205 32.3409C189.383 32.0114 189.625 31.7462 189.932 31.5455C190.239 31.3447 190.587 31.1932 190.977 31.0909C191.371 30.9886 191.784 30.9167 192.216 30.875C192.724 30.822 193.133 30.7727 193.443 30.7273C193.754 30.678 193.979 30.6061 194.119 30.5114C194.26 30.4167 194.33 30.2765 194.33 30.0909V30.0568C194.33 29.697 194.216 29.4186 193.989 29.2216C193.765 29.0246 193.447 28.9261 193.034 28.9261C192.599 28.9261 192.252 29.0227 191.994 29.2159C191.737 29.4053 191.566 29.6439 191.483 29.9318L189.244 29.75C189.358 29.2197 189.582 28.7614 189.915 28.375C190.248 27.9848 190.678 27.6856 191.205 27.4773C191.735 27.2652 192.349 27.1591 193.046 27.1591C193.53 27.1591 193.994 27.2159 194.438 27.3295C194.885 27.4432 195.28 27.6193 195.625 27.858C195.974 28.0966 196.248 28.4034 196.449 28.7784C196.65 29.1496 196.75 29.5947 196.75 30.1136V36H194.455V34.7898H194.387C194.246 35.0625 194.059 35.303 193.824 35.5114C193.589 35.7159 193.307 35.8769 192.977 35.9943C192.648 36.108 192.267 36.1648 191.835 36.1648ZM192.529 34.4943C192.885 34.4943 193.199 34.4242 193.472 34.2841C193.744 34.1402 193.959 33.947 194.114 33.7045C194.269 33.4621 194.347 33.1875 194.347 32.8807V31.9545C194.271 32.0038 194.167 32.0492 194.034 32.0909C193.905 32.1288 193.76 32.1648 193.597 32.1989C193.434 32.2292 193.271 32.2576 193.108 32.2841C192.945 32.3068 192.798 32.3277 192.665 32.3466C192.381 32.3883 192.133 32.4545 191.921 32.5455C191.709 32.6364 191.544 32.7595 191.426 32.9148C191.309 33.0663 191.25 33.2557 191.25 33.483C191.25 33.8125 191.369 34.0644 191.608 34.2386C191.851 34.4091 192.157 34.4943 192.529 34.4943Z" fill="#235B4E"/>
<path d="M50.197 24.2744H16V25.7273H50.197V24.2744Z" fill="#235B4E"/>
<path d="M50.197 26.5645H16V38.6221C16 39.137 16.4229 39.5557 16.9377 39.5557H49.2635C49.7783 39.5557 50.1971 39.137 50.1971 38.6221L50.197 26.5645ZM19.2992 31.1951H25.6838V33.7028H18.8594V31.1951H19.2992Z" fill="#235B4E"/>
<path d="M16.0001 23.4367H50.1971V21.9336C50.1971 21.4188 49.7742 21 49.2635 21H16.9377C16.4229 21 16 21.4229 16 21.9336L16.0001 23.4367Z" fill="#235B4E"/>
<defs>
<filter id="filter0_d_439_13118" x="0" y="0" width="213" height="68" filterUnits="userSpaceOnUse" color-interpolation-filters="sRGB">
<feFlood flood-opacity="0" result="BackgroundImageFix"/>
<feColorMatrix in="SourceAlpha" type="matrix" values="0 0 0 0 0 0 0 0 0 0 0 0 0 0 0 0 0 0 127 0" result="hardAlpha"/>
<feOffset dy="4"/>
<feGaussianBlur stdDeviation="2"/>
<feComposite in2="hardAlpha" operator="out"/>
<feColorMatrix type="matrix" values="0 0 0 0 0 0 0 0 0 0 0 0 0 0 0 0 0 0 0.1 0"/>
<feBlend mode="normal" in2="BackgroundImageFix" result="effect1_dropShadow_439_13118"/>
<feBlend mode="normal" in="SourceGraphic" in2="effect1_dropShadow_439_13118" result="shape"/>
</filter>
</defs>
</svg>
