<svg width="64" height="26" viewBox="0 0 64 26" fill="none" xmlns="http://www.w3.org/2000/svg">
<g clip-path="url(#clip0_956_15987)">
<path d="M10.2221 13.303C13.9312 13.303 16.9279 10.3333 16.9279 6.65395C16.9303 2.96245 13.9288 0.0145855 10.1489 5.20612e-05C6.49587 -0.0144814 3.50903 3.01574 3.52367 6.72662C3.53832 10.3672 6.5276 13.303 10.2221 13.303Z" fill="#235B4E"/>
<path d="M20.4613 21.8655C20.4003 20.6689 20.0318 19.5547 19.3169 18.564C17.9747 16.7061 16.1397 15.8027 13.8337 15.7348C12.9601 15.7082 12.3256 15.9117 11.8058 16.6335C11.3593 17.2536 10.7956 17.7913 10.2221 18.4381C9.70479 17.8567 9.18258 17.3941 8.81411 16.8321C8.18453 15.8802 7.34753 15.684 6.25919 15.7373C2.91607 15.8995 0.0512448 18.5785 0 21.8655V25.7847H20.4735V21.8655H20.4613Z" fill="#235B4E"/>
<path d="M53.6923 13.303C57.4015 13.303 60.3981 10.3333 60.3981 6.65395C60.4029 2.96245 57.399 0.0145855 53.6216 5.20612e-05C49.9685 -0.0144814 46.9817 3.01574 46.9963 6.72662C47.011 10.3672 50.0003 13.303 53.6948 13.303H53.6923Z" fill="#235B4E"/>
<path d="M63.934 21.8655C63.873 20.6689 63.5045 19.5547 62.7895 18.564C61.4474 16.7061 59.6123 15.8027 57.3063 15.7348C56.4327 15.7082 55.7983 15.9117 55.2785 16.6335C54.8319 17.2536 54.2682 17.7913 53.6948 18.4381C53.1774 17.8567 52.6552 17.3941 52.2868 16.8321C51.6572 15.8802 50.8202 15.684 49.7318 15.7373C46.3887 15.8995 43.5263 18.5785 43.4751 21.8655V25.7847H63.9486V21.8655H63.9364H63.934Z" fill="#235B4E"/>
<path d="M40.8958 6.65145L32.948 2.09521V5.44033H23.048V7.86257H32.948V11.2077L40.8958 6.65145Z" fill="#BC955C"/>
<path d="M23.048 17.8324L30.9982 22.3886V19.0435H40.8958V16.6213H30.9982V13.2786L23.048 17.8324Z" fill="#BC955C"/>
</g>
<defs>
<clipPath id="clip0_956_15987">
<rect width="63.9462" height="25.7848" fill="white"/>
</clipPath>
</defs>
</svg>
