<svg width="1320" height="28" viewBox="0 0 1320 28" fill="none" xmlns="http://www.w3.org/2000/svg">
<g clip-path="url(#clip0)">
<path d="M10.8688 16.0056V18.3347V20.6637V22.9222V22.9927V25.2512H2.32904V20.6637H5.85788V22.9222H8.18692V20.6637V18.3347H5.85788H2.32904H0V20.6637V25.2512V26.451V27.5802H14.3271V25.2512H18.4912V22.9927H23.0787V20.6637H27.3133V18.3347H31.4773V16.0056H10.8688Z" fill="#002E29"/>
<path d="M28.2309 12.1944V9.86539V7.53635V5.27789V5.20731V2.94885H19.6205V7.53635H23.1494V5.27789H25.4784V7.53635V9.86539H23.1494H19.6205H17.2915V7.53635V2.94885V1.67847V0.619812H31.6186V2.94885H35.7826V5.20731H40.3701V7.53635H44.6753V9.86539H48.7688V12.1944H28.2309Z" fill="#002E29"/>
<path d="M48.7685 16.0056V18.3347V20.6637V22.9222V22.9927V25.2512H40.2287V20.6637H43.7575V22.9222H46.0866V20.6637V18.3347H43.7575H40.2287H37.8997V20.6637V25.2512V26.451V27.5802H52.2268V25.2512H56.3202V22.9927H60.9783V20.6637H65.2129V18.3347H69.377V16.0056H48.7685Z" fill="#002E29"/>
<path d="M66.1306 12.1944V9.86539V7.53635V5.27789V5.20731V2.94885H57.5202V7.53635H61.049V5.27789H63.3781V7.53635V9.86539H61.049H57.5202H55.1912V7.53635V2.94885V1.67847V0.619812H69.5183V2.94885H73.6823V5.20731H78.2698V7.53635H82.575V9.86539H86.6685V12.1944H66.1306Z" fill="#002E29"/>
<path d="M86.6684 16.0056V18.3347V20.6637V22.9222V22.9927V25.2512H78.1286V20.6637H81.6574V22.9222H83.9865V20.6637V18.3347H81.6574H78.1286H75.7996V20.6637V25.2512V26.451V27.5802H90.1267V25.2512H94.2201V22.9927H98.8782V20.6637H103.113V18.3347H107.277V16.0056H86.6684Z" fill="#002E29"/>
<path d="M104.03 12.1944V9.86539V7.53635V5.27789V5.20731V2.94885H95.4199V7.53635H98.9487V5.27789H101.278V7.53635V9.86539H98.9487H95.4199H93.0908V7.53635V2.94885V1.67847V0.619812H107.418V2.94885H111.582V5.20731H116.169V7.53635H120.475V9.86539H124.568V12.1944H104.03Z" fill="#002E29"/>
<path d="M124.568 16.0056V18.3347V20.6637V22.9222V22.9927V25.2512H116.028V20.6637H119.557V22.9222H121.816V20.6637V18.3347H119.557H116.028H113.699V20.6637V25.2512V26.451V27.5802H128.027V25.2512H132.12V22.9927H136.778V20.6637H141.013V18.3347H145.177V16.0056H124.568Z" fill="#002E29"/>
<path d="M141.93 12.1944V9.86539V7.53635V5.27789V5.20731V2.94885H133.32V7.53635H136.849V5.27789H139.178V7.53635V9.86539H136.849H133.32H130.991V7.53635V2.94885V1.67847V0.619812H145.318V2.94885H149.482V5.20731H154.069V7.53635H158.375V9.86539H162.468V12.1944H141.93Z" fill="#002E29"/>
<path d="M162.468 16.0056V18.3347V20.6637V22.9222V22.9927V25.2512H153.928V20.6637H157.457V22.9222H159.715V20.6637V18.3347H157.457H153.928H151.599V20.6637V25.2512V26.451V27.5802H165.926V25.2512H170.02V22.9927H174.678V20.6637H178.912V18.3347H183.006V16.0056H162.468Z" fill="#002E29"/>
<path d="M179.83 12.1944V9.86539V7.53635V5.27789V5.20731V2.94885H171.22V7.53635H174.749V5.27789H177.078V7.53635V9.86539H174.749H171.22H168.891V7.53635V2.94885V1.67847V0.619812H183.218V2.94885H187.382V5.20731H191.969V7.53635H196.274V9.86539H200.368V12.1944H179.83Z" fill="#002E29"/>
<path d="M200.368 16.0056V18.3347V20.6637V22.9222V22.9927V25.2512H191.828V20.6637H195.357V22.9222H197.615V20.6637V18.3347H195.357H191.828H189.499V20.6637V25.2512V26.451V27.5802H203.826V25.2512H207.92V22.9927H212.578V20.6637H216.812V18.3347H220.906V16.0056H200.368Z" fill="#002E29"/>
<path d="M217.73 12.1944V9.86539V7.53635V5.27789V5.20731V2.94885H209.119V7.53635H212.648V5.27789H214.977V7.53635V9.86539H212.648H209.119H206.79V7.53635V2.94885V1.67847V0.619812H221.117V2.94885H225.281V5.20731H229.869V7.53635H234.104V9.86539H238.268V12.1944H217.73Z" fill="#002E29"/>
<path d="M238.268 16.0056V18.3347V20.6637V22.9222V22.9927V25.2512H229.728V20.6637H233.257V22.9222H235.515V20.6637V18.3347H233.257H229.728H227.399V20.6637V25.2512V26.451V27.5802H241.726V25.2512H245.819V22.9927H250.477V20.6637H254.712V18.3347H258.805V16.0056H238.268Z" fill="#002E29"/>
<path d="M255.559 12.1944V9.86539V7.53635V5.27789V5.20731V2.94885H247.019V7.53635H250.548V5.27789H252.877V7.53635V9.86539H250.548H247.019H244.69V7.53635V2.94885V1.67847V0.619812H259.017V2.94885H263.181V5.20731H267.769V7.53635H272.004V9.86539H276.168V12.1944H255.559Z" fill="#002E29"/>
<path d="M276.167 16.0056V18.3347V20.6637V22.9222V22.9927V25.2512H267.628V20.6637H271.086V22.9222H273.415V20.6637V18.3347H271.086H267.628H265.299V20.6637V25.2512V26.451V27.5802H279.555V25.2512H283.719V22.9927H288.377V20.6637H292.612V18.3347H296.705V16.0056H276.167Z" fill="#002E29"/>
<path d="M293.459 12.1944V9.86539V7.53635V5.27789V5.20731V2.94885H284.919V7.53635H288.448V5.27789H290.777V7.53635V9.86539H288.448H284.919H282.59V7.53635V2.94885V1.67847V0.619812H296.917V2.94885H301.081V5.20731H305.669V7.53635H309.903V9.86539H314.067V12.1944H293.459Z" fill="#002E29"/>
<path d="M314.067 16.0056V18.3347V20.6637V22.9222V22.9927V25.2512H305.528V20.6637H308.986V22.9222H311.315V20.6637V18.3347H308.986H305.528H303.198V20.6637V25.2512V26.451V27.5802H317.455V25.2512H321.619V22.9927H326.277V20.6637H330.512V18.3347H334.605V16.0056H314.067Z" fill="#002E29"/>
<path d="M331.359 12.1944V9.86539V7.53635V5.27789V5.20731V2.94885H322.819V7.53635H326.348V5.27789H328.677V7.53635V9.86539H326.348H322.819H320.49V7.53635V2.94885V1.67847V0.619812H334.817V2.94885H338.981V5.20731H343.568V7.53635H347.803V9.86539H351.967V12.1944H331.359Z" fill="#002E29"/>
<path d="M351.967 16.0056V18.3347V20.6637V22.9222V22.9927V25.2512H343.427V20.6637H346.885V22.9222H349.214V20.6637V18.3347H346.885H343.427H341.098V20.6637V25.2512V26.451V27.5802H355.355V25.2512H359.519V22.9927H364.177V20.6637H368.411V18.3347H372.505V16.0056H351.967Z" fill="#002E29"/>
<path d="M369.258 12.1944V9.86539V7.53635V5.27789V5.20731V2.94885H360.719V7.53635H364.248V5.27789H366.577V7.53635V9.86539H364.248H360.719H358.39V7.53635V2.94885V1.67847V0.619812H372.717V2.94885H376.81V5.20731H381.468V7.53635H385.703V9.86539H389.867V12.1944H369.258Z" fill="#002E29"/>
<path d="M389.867 16.0056V18.3347V20.6637V22.9222V22.9927V25.2512H381.327V20.6637H384.785V22.9222H387.114V20.6637V18.3347H384.785H381.327H378.998V20.6637V25.2512V26.451V27.5802H393.255V25.2512H397.419V22.9927H402.077V20.6637H406.311V18.3347H410.405V16.0056H389.867Z" fill="#002E29"/>
<path d="M407.158 12.1944V9.86539V7.53635V5.27789V5.20731V2.94885H398.618V7.53635H402.147V5.27789H404.476V7.53635V9.86539H402.147H398.618H396.289V7.53635V2.94885V1.67847V0.619812H410.616V2.94885H414.71V5.20731H419.368V7.53635H423.603V9.86539H427.767V12.1944H407.158Z" fill="#002E29"/>
<path d="M427.767 16.0056V18.3347V20.6637V22.9222V22.9927V25.2512H419.227V20.6637H422.685V22.9222H425.014V20.6637V18.3347H422.685H419.227H416.898V20.6637V25.2512V26.451V27.5802H431.154V25.2512H435.318V22.9927H439.977V20.6637H444.211V18.3347H448.305V16.0056H427.767Z" fill="#002E29"/>
<path d="M445.058 12.1944V9.86539V7.53635V5.27789V5.20731V2.94885H436.518V7.53635H440.047V5.27789H442.305V7.53635V9.86539H440.047H436.518H434.189V7.53635V2.94885V1.67847V0.619812H448.516V2.94885H452.61V5.20731H457.268V7.53635H461.502V9.86539H465.666V12.1944H445.058Z" fill="#002E29"/>
<path d="M465.666 16.0056V18.3347V20.6637V22.9222V22.9927V25.2512H457.127V20.6637H460.585V22.9222H462.914V20.6637V18.3347H460.585H457.127H454.798V20.6637V25.2512V26.451V27.5802H469.054V25.2512H473.218V22.9927H477.876V20.6637H482.111V18.3347H486.204V16.0056H465.666Z" fill="#002E29"/>
<path d="M482.958 12.1944V9.86539V7.53635V5.27789V5.20731V2.94885H474.418V7.53635H477.947V5.27789H480.205V7.53635V9.86539H477.947H474.418H472.089V7.53635V2.94885V1.67847V0.619812H486.416V2.94885H490.51V5.20731H495.168V7.53635H499.402V9.86539H503.496V12.1944H482.958Z" fill="#002E29"/>
<path d="M503.566 16.0056V18.3347V20.6637V22.9222V22.9927V25.2512H495.027V20.6637H498.485V22.9222H500.814V20.6637V18.3347H498.485H495.027H492.698V20.6637V25.2512V26.451V27.5802H506.954V25.2512H511.118V22.9927H515.776V20.6637H520.011V18.3347H524.104V16.0056H503.566Z" fill="#002E29"/>
<path d="M520.858 12.1944V9.86539V7.53635V5.27789V5.20731V2.94885H512.318V7.53635H515.847V5.27789H518.105V7.53635V9.86539H515.847H512.318H509.989V7.53635V2.94885V1.67847V0.619812H524.316V2.94885H528.409V5.20731H533.067V7.53635H537.302V9.86539H541.396V12.1944H520.858Z" fill="#002E29"/>
<path d="M541.466 16.0056V18.3347V20.6637V22.9222V22.9927V25.2512H532.926V20.6637H536.385V22.9222H538.714V20.6637V18.3347H536.385H532.926H530.597V20.6637V25.2512V26.451V27.5802H544.854V25.2512H549.018V22.9927H553.676V20.6637H557.911V18.3347H562.004V16.0056H541.466Z" fill="#002E29"/>
<path d="M558.758 12.1944V9.86539V7.53635V5.27789V5.20731V2.94885H550.218V7.53635H553.747V5.27789H556.005V7.53635V9.86539H553.747H550.218H547.889V7.53635V2.94885V1.67847V0.619812H562.216V2.94885H566.309V5.20731H570.967V7.53635H575.202V9.86539H579.295V12.1944H558.758Z" fill="#002E29"/>
<path d="M579.366 16.0056V18.3347V20.6637V22.9222V22.9927V25.2512H570.756V20.6637H574.284V22.9222H576.613V20.6637V18.3347H574.284H570.756H568.497V20.6637V25.2512V26.451V27.5802H582.754V25.2512H586.918V22.9927H591.576V20.6637H595.81V18.3347H599.904V16.0056H579.366Z" fill="#002E29"/>
<path d="M596.657 12.1944V9.86539V7.53635V5.27789V5.20731V2.94885H588.118V7.53635H591.576V5.27789H593.905V7.53635V9.86539H591.576H588.118H585.789V7.53635V2.94885V1.67847V0.619812H600.045V2.94885H604.209V5.20731H608.867V7.53635H613.102V9.86539H617.195V12.1944H596.657Z" fill="#002E29"/>
<path d="M617.266 16.0056V18.3347V20.6637V22.9222V22.9927V25.2512H608.655V20.6637H612.184V22.9222H614.513V20.6637V18.3347H612.184H608.655H606.397V20.6637V25.2512V26.451V27.5802H620.653V25.2512H624.817V22.9927H629.475V20.6637H633.71V18.3347H637.804V16.0056H617.266Z" fill="#002E29"/>
<path d="M634.557 12.1944V9.86539V7.53635V5.27789V5.20731V2.94885H626.017V7.53635H629.476V5.27789H631.805V7.53635V9.86539H629.476H626.017H623.688V7.53635V2.94885V1.67847V0.619812H637.945V2.94885H642.109V5.20731H646.767V7.53635H651.002V9.86539H655.095V12.1944H634.557Z" fill="#002E29"/>
<path d="M655.165 16.0056V18.3347V20.6637V22.9222V22.9927V25.2512H646.555V20.6637H650.084V22.9222H652.413V20.6637V18.3347H650.084H646.555H644.297V20.6637V25.2512V26.451V27.5802H658.553V25.2512H662.717V22.9927H667.375V20.6637H671.61V18.3347H675.703V16.0056H655.165Z" fill="#002E29"/>
<path d="M672.457 12.1944V9.86539V7.53635V5.27789V5.20731V2.94885H663.917V7.53635H667.375V5.27789H669.704V7.53635V9.86539H667.375H663.917H661.588V7.53635V2.94885V1.67847V0.619812H675.844V2.94885H680.008V5.20731H684.666V7.53635H688.901V9.86539H692.995V12.1944H672.457Z" fill="#002E29"/>
<path d="M693.065 16.0056V18.3347V20.6637V22.9222V22.9927V25.2512H684.455V20.6637H687.984V22.9222H690.313V20.6637V18.3347H687.984H684.455H682.196V20.6637V25.2512V26.451V27.5802H696.453V25.2512H700.617V22.9927H705.275V20.6637H709.51V18.3347H713.603V16.0056H693.065Z" fill="#002E29"/>
<path d="M710.357 12.1944V9.86539V7.53635V5.27789V5.20731V2.94885H701.817V7.53635H705.275V5.27789H707.604V7.53635V9.86539H705.275H701.817H699.488V7.53635V2.94885V1.67847V0.619812H713.744V2.94885H717.908V5.20731H722.566V7.53635H726.801V9.86539H730.894V12.1944H710.357Z" fill="#002E29"/>
<path d="M730.965 16.0056V18.3347V20.6637V22.9222V22.9927V25.2512H722.355V20.6637H725.884V22.9222H728.213V20.6637V18.3347H725.884H722.355H720.026V20.6637V25.2512V26.451V27.5802H734.353V25.2512H738.517V22.9927H743.175V20.6637H747.409V18.3347H751.503V16.0056H730.965Z" fill="#002E29"/>
<path d="M748.256 12.1944V9.86539V7.53635V5.27789V5.20731V2.94885H739.716V7.53635H743.175V5.27789H745.504V7.53635V9.86539H743.175H739.716H737.387V7.53635V2.94885V1.67847V0.619812H751.644V2.94885H755.808V5.20731H760.466V7.53635H764.701V9.86539H768.794V12.1944H748.256Z" fill="#002E29"/>
<path d="M768.865 16.0056V18.3347V20.6637V22.9222V22.9927V25.2512H760.255V20.6637H763.783V22.9222H766.112V20.6637V18.3347H763.783H760.255H757.926V20.6637V25.2512V26.451V27.5802H772.253V25.2512H776.417V22.9927H781.075V20.6637H785.309V18.3347H789.403V16.0056H768.865Z" fill="#002E29"/>
<path d="M786.156 12.1944V9.86539V7.53635V5.27789V5.20731V2.94885H777.616V7.53635H781.075V5.27789H783.404V7.53635V9.86539H781.075H777.616H775.287V7.53635V2.94885V1.67847V0.619812H789.544V2.94885H793.708V5.20731H798.366V7.53635H802.601V9.86539H806.694V12.1944H786.156Z" fill="#002E29"/>
<path d="M806.765 16.0056V18.3347V20.6637V22.9222V22.9927V25.2512H798.154V20.6637H801.683V22.9222H804.012V20.6637V18.3347H801.683H798.154H795.825V20.6637V25.2512V26.451V27.5802H810.152V25.2512H814.316V22.9927H818.975V20.6637H823.209V18.3347H827.303V16.0056H806.765Z" fill="#002E29"/>
<path d="M824.056 12.1944V9.86539V7.53635V5.27789V5.20731V2.94885H815.516V7.53635H818.975V5.27789H821.304V7.53635V9.86539H818.975H815.516H813.187V7.53635V2.94885V1.67847V0.619812H827.444V2.94885H831.608V5.20731H836.266V7.53635H840.5V9.86539H844.594V12.1944H824.056Z" fill="#002E29"/>
<path d="M844.665 16.0056V18.3347V20.6637V22.9222V22.9927V25.2512H836.054V20.6637H839.583V22.9222H841.912V20.6637V18.3347H839.583H836.054H833.725V20.6637V25.2512V26.451V27.5802H848.052V25.2512H852.216V22.9927H856.874V20.6637H861.109V18.3347H865.203V16.0056H844.665Z" fill="#002E29"/>
<path d="M861.956 12.1944V9.86539V7.53635V5.27789V5.20731V2.94885H853.345V7.53635H856.874V5.27789H859.203V7.53635V9.86539H856.874H853.345H851.087V7.53635V2.94885V1.67847V0.619812H865.343V2.94885H869.507V5.20731H874.166V7.53635H878.4V9.86539H882.494V12.1944H861.956Z" fill="#002E29"/>
<path d="M882.564 16.0056V18.3347V20.6637V22.9222V22.9927V25.2512H873.954V20.6637H877.483V22.9222H879.812V20.6637V18.3347H877.483H873.954H871.625V20.6637V25.2512V26.451V27.5802H885.952V25.2512H890.116V22.9927H894.704V20.6637H899.009V18.3347H903.102V16.0056H882.564Z" fill="#002E29"/>
<path d="M899.856 12.1944V9.86539V7.53635V5.27789V5.20731V2.94885H891.245V7.53635H894.774V5.27789H897.103V7.53635V9.86539H894.774H891.245H888.987V7.53635V2.94885V1.67847V0.619812H903.243V2.94885H907.407V5.20731H912.065V7.53635H916.3V9.86539H920.393V12.1944H899.856Z" fill="#002E29"/>
<path d="M920.464 16.0056V18.3347V20.6637V22.9222V22.9927V25.2512H911.854V20.6637H915.383V22.9222H917.712V20.6637V18.3347H915.383H911.854H909.525V20.6637V25.2512V26.451V27.5802H923.852V25.2512H928.016V22.9927H932.604V20.6637H936.909V18.3347H941.002V16.0056H920.464Z" fill="#002E29"/>
<path d="M937.755 12.1944V9.86539V7.53635V5.27789V5.20731V2.94885H929.145V7.53635H932.674V5.27789H935.003V7.53635V9.86539H932.674H929.145H926.887V7.53635V2.94885V1.67847V0.619812H941.143V2.94885H945.307V5.20731H949.965V7.53635H954.2V9.86539H958.293V12.1944H937.755Z" fill="#002E29"/>
<path d="M958.364 16.0056V18.3347V20.6637V22.9222V22.9927V25.2512H949.754V20.6637H953.282V22.9222H955.611V20.6637V18.3347H953.282H949.754H947.425V20.6637V25.2512V26.451V27.5802H961.752V25.2512H965.916V22.9927H970.503V20.6637H974.808V18.3347H978.902V16.0056H958.364Z" fill="#002E29"/>
<path d="M975.655 12.1944V9.86539V7.53635V5.27789V5.20731V2.94885H967.045V7.53635H970.573V5.27789H972.903V7.53635V9.86539H970.573H967.045H964.786V7.53635V2.94885V1.67847V0.619812H979.043V2.94885H983.207V5.20731H987.865V7.53635H992.1V9.86539H996.193V12.1944H975.655Z" fill="#002E29"/>
<path d="M996.264 16.0056V18.3347V20.6637V22.9222V22.9927V25.2512H987.653V20.6637H991.182V22.9222H993.511V20.6637V18.3347H991.182H987.653H985.324V20.6637V25.2512V26.451V27.5802H999.651V25.2512H1003.82V22.9927H1008.4V20.6637H1012.71V18.3347H1016.8V16.0056H996.264Z" fill="#002E29"/>
<path d="M1013.55 12.1944V9.86539V7.53635V5.27789V5.20731V2.94885H1004.94V7.53635H1008.47V5.27789H1010.8V7.53635V9.86539H1008.47H1004.94H1002.62V7.53635V2.94885V1.67847V0.619812H1016.94V2.94885H1021.11V5.20731H1025.76V7.53635H1030V9.86539H1034.09V12.1944H1013.55Z" fill="#002E29"/>
<path d="M1034.16 16.0056V18.3347V20.6637V22.9222V22.9927V25.2512H1025.55V20.6637H1029.08V22.9222H1031.41V20.6637V18.3347H1029.08H1025.55H1023.22V20.6637V25.2512V26.451V27.5802H1037.55V25.2512H1041.72V22.9927H1046.3V20.6637H1050.61V18.3347H1054.7V16.0056H1034.16Z" fill="#002E29"/>
<path d="M1051.46 12.1944V9.86539V7.53635V5.27789V5.20731V2.94885H1042.84V7.53635H1046.37V5.27789H1048.7V7.53635V9.86539H1046.37H1042.84H1040.52V7.53635V2.94885V1.67847V0.619812H1054.84V2.94885H1059.01V5.20731H1063.66V7.53635H1067.9V9.86539H1071.99V12.1944H1051.46Z" fill="#002E29"/>
<path d="M1072.06 16.0056V18.3347V20.6637V22.9222V22.9927V25.2512H1063.45V20.6637H1066.98V22.9222H1069.31V20.6637V18.3347H1066.98H1063.45H1061.12V20.6637V25.2512V26.451V27.5802H1075.45V25.2512H1079.62V22.9927H1084.2V20.6637H1088.51V18.3347H1092.6V16.0056H1072.06Z" fill="#002E29"/>
<path d="M1089.35 12.1944V9.86539V7.53635V5.27789V5.20731V2.94885H1080.74V7.53635H1084.27V5.27789H1086.6V7.53635V9.86539H1084.27H1080.74H1078.42V7.53635V2.94885V1.67847V0.619812H1092.74V2.94885H1096.91V5.20731H1101.56V7.53635H1105.8V9.86539H1109.89V12.1944H1089.35Z" fill="#002E29"/>
<path d="M1109.96 16.0056V18.3347V20.6637V22.9222V22.9927V25.2512H1101.35V20.6637H1104.88V22.9222H1107.21V20.6637V18.3347H1104.88H1101.35H1099.02V20.6637V25.2512V26.451V27.5802H1113.35V25.2512H1117.51V22.9927H1122.1V20.6637H1126.41V18.3347H1130.5V16.0056H1109.96Z" fill="#002E29"/>
<path d="M1127.25 12.1944V9.86539V7.53635V5.27789V5.20731V2.94885H1118.64V7.53635H1122.17V5.27789H1124.5V7.53635V9.86539H1122.17H1118.64H1116.31V7.53635V2.94885V1.67847V0.619812H1130.64V2.94885H1134.81V5.20731H1139.46V7.53635H1143.7V9.86539H1147.79V12.1944H1127.25Z" fill="#002E29"/>
<path d="M1147.86 16.0056V18.3347V20.6637V22.9222V22.9927V25.2512H1139.25V20.6637H1142.78V22.9222H1145.11V20.6637V18.3347H1142.78H1139.25H1136.92V20.6637V25.2512V26.451V27.5802H1151.25V25.2512H1155.41V22.9927H1160V20.6637H1164.31V18.3347H1168.4V16.0056H1147.86Z" fill="#002E29"/>
<path d="M1165.15 12.1944V9.86539V7.53635V5.27789V5.20731V2.94885H1156.54V7.53635H1160.07V5.27789H1162.4V7.53635V9.86539H1160.07H1156.54H1154.21V7.53635V2.94885V1.67847V0.619812H1168.54V2.94885H1172.71V5.20731H1177.36V7.53635H1181.6V9.86539H1185.69V12.1944H1165.15Z" fill="#002E29"/>
<path d="M1185.76 16.0056V18.3347V20.6637V22.9222V22.9927V25.2512H1177.15V20.6637H1180.68V22.9222H1183.01V20.6637V18.3347H1180.68H1177.15H1174.82V20.6637V25.2512V26.451V27.5802H1189.15V25.2512H1193.31V22.9927H1197.9V20.6637H1202.21V18.3347H1206.3V16.0056H1185.76Z" fill="#002E29"/>
<path d="M1203.05 12.1944V9.86539V7.53635V5.27789V5.20731V2.94885H1194.44V7.53635H1197.97V5.27789H1200.3V7.53635V9.86539H1197.97H1194.44H1192.11V7.53635V2.94885V1.67847V0.619812H1206.44V2.94885H1210.61V5.20731H1215.19V7.53635H1219.5V9.86539H1223.59V12.1944H1203.05Z" fill="#002E29"/>
<path d="M1223.66 16.0056V18.3347V20.6637V22.9222V22.9927V25.2512H1215.05V20.6637H1218.58V22.9222H1220.91V20.6637V18.3347H1218.58H1215.05H1212.72V20.6637V25.2512V26.451V27.5802H1227.05V25.2512H1231.21V22.9927H1235.8V20.6637H1240.11V18.3347H1244.2V16.0056H1223.66Z" fill="#002E29"/>
<path d="M1240.95 12.1944V9.86539V7.53635V5.27789V5.20731V2.94885H1232.34V7.53635H1235.87V5.27789H1238.2V7.53635V9.86539H1235.87H1232.34H1230.01V7.53635V2.94885V1.67847V0.619812H1244.34V2.94885H1248.51V5.20731H1253.09V7.53635H1257.4V9.86539H1261.49V12.1944H1240.95Z" fill="#002E29"/>
<path d="M1261.56 16.0056V18.3347V20.6637V22.9222V22.9927V25.2512H1252.95V20.6637H1256.48V22.9222H1258.81V20.6637V18.3347H1256.48H1252.95H1250.62V20.6637V25.2512V26.451V27.5802H1264.95V25.2512H1269.11V22.9927H1273.7V20.6637H1278.01V18.3347H1282.1V16.0056H1261.56Z" fill="#002E29"/>
<path d="M1278.85 12.1944V9.86539V7.53635V5.27789V5.20731V2.94885H1270.24V7.53635H1273.77V5.27789H1276.1V7.53635V9.86539H1273.77H1270.24H1267.91V7.53635V2.94885V1.67847V0.619812H1282.24V2.94885H1286.41V5.20731H1290.99V7.53635H1295.3V9.86539H1299.39V12.1944H1278.85Z" fill="#002E29"/>
<path d="M1299.46 16.0056V18.3347V20.6637V22.9222V22.9927V25.2512H1290.85V20.6637H1294.38V22.9222H1296.71V20.6637V18.3347H1294.38H1290.85H1288.52V20.6637V25.2512V26.451V27.5802H1302.85V25.2512H1307.01V22.9927H1311.6V20.6637H1315.84V18.3347H1320V16.0056H1299.46Z" fill="#002E29"/>
</g>
<defs>
<clipPath id="clip0">
<rect width="1320" height="26.9604" fill="white" transform="translate(0 0.619812)"/>
</clipPath>
</defs>
</svg>
