<svg width="122" height="21" viewBox="0 0 122 21" fill="none" xmlns="http://www.w3.org/2000/svg">
<path d="M0.0292969 4.56261C0.0292969 3.94781 0.111271 3.39449 0.29571 2.90265C0.459656 2.41081 0.705575 2.00095 1.01297 1.65256C1.32037 1.30418 1.66876 1.03777 2.09912 0.853326C2.50898 0.668886 2.98033 0.586914 3.47217 0.586914C3.94351 0.586914 4.35338 0.689381 4.70176 0.87382C5.05015 1.05826 5.33705 1.28369 5.56248 1.5296L5.00916 2.1444C4.80423 1.91898 4.5788 1.75503 4.33288 1.63207C4.08696 1.50911 3.80006 1.44763 3.47217 1.44763C3.10329 1.44763 2.7754 1.5296 2.468 1.67306C2.18109 1.81651 1.91468 2.02144 1.70975 2.28785C1.50481 2.55427 1.34087 2.88216 1.21791 3.27153C1.09495 3.6609 1.03347 4.09126 1.03347 4.56261C1.03347 5.05445 1.09495 5.48481 1.19741 5.87418C1.32037 6.26355 1.46383 6.59144 1.66876 6.85786C1.87369 7.12427 2.11961 7.34969 2.40652 7.49315C2.69342 7.6366 3.02131 7.71857 3.39019 7.71857C3.75907 7.71857 4.08697 7.6366 4.37387 7.49315C4.66078 7.34969 4.9067 7.12427 5.17311 6.85786L5.72643 7.45216C5.41903 7.80055 5.07064 8.06696 4.70176 8.27189C4.31239 8.47682 3.88203 8.5588 3.39019 8.5588C2.89836 8.5588 2.468 8.47682 2.05813 8.29238C1.64827 8.10794 1.29988 7.86203 0.992482 7.51364C0.685082 7.16525 0.459656 6.75539 0.29571 6.26355C0.131764 5.75122 0.0292969 5.1979 0.0292969 4.56261Z" fill="#888B8D"/>
<path d="M6.99609 0.730469H7.95928V8.41545H6.99609V0.730469Z" fill="#888B8D"/>
<path d="M9.90625 0.730469H10.8694V5.25948C10.8694 5.71033 10.9104 6.09971 11.0129 6.4276C11.1154 6.735 11.2383 6.98092 11.4023 7.18585C11.5662 7.37029 11.7506 7.51374 11.9761 7.59572C12.2015 7.67769 12.4269 7.71868 12.6728 7.71868C12.9393 7.71868 13.1647 7.67769 13.3901 7.59572C13.6155 7.51374 13.8 7.37029 13.9639 7.18585C14.1279 7.00141 14.2508 6.75549 14.3533 6.4276C14.4558 6.1202 14.4967 5.73083 14.4967 5.25948V0.730469H15.4394V5.23899C15.4394 5.85379 15.378 6.36612 15.2345 6.79648C15.091 7.22684 14.9066 7.55473 14.6607 7.82114C14.4148 8.08755 14.1279 8.27199 13.7795 8.37446C13.4516 8.49742 13.0827 8.53841 12.6933 8.53841C12.304 8.53841 11.9351 8.47693 11.6072 8.37446C11.2588 8.2515 10.9719 8.06706 10.726 7.82114C10.4801 7.55473 10.2956 7.22684 10.1522 6.79648C10.0087 6.36612 9.94724 5.85379 9.94724 5.23899V0.730469H9.90625Z" fill="#888B8D"/>
<path d="M17.3262 0.730469H19.2525C20.4411 0.730469 21.3429 1.05836 21.9577 1.71415C22.5724 2.36993 22.8798 3.31262 22.8798 4.54222C22.8798 5.15702 22.7979 5.68984 22.6544 6.18168C22.4905 6.65302 22.265 7.06289 21.9577 7.39078C21.6503 7.71868 21.2814 7.98509 20.8305 8.14903C20.3797 8.33347 19.8673 8.41545 19.2935 8.41545H17.3262V0.730469ZM19.1706 7.61621C20.0723 7.61621 20.7485 7.3498 21.1994 6.81697C21.6503 6.28415 21.8757 5.52589 21.8757 4.54222C21.8757 3.55854 21.6503 2.82078 21.1994 2.30845C20.7485 1.79612 20.0723 1.52971 19.1706 1.52971H18.2894V7.61621H19.1706Z" fill="#888B8D"/>
<path d="M27.7976 6.05871H24.99L24.2522 8.39494H23.248L25.8507 0.709961H26.9573L29.56 8.39494H28.5148L27.7976 6.05871ZM27.5516 5.27996L27.1828 4.11184C27.0393 3.68149 26.9163 3.25113 26.7934 2.82077C26.6704 2.39041 26.5475 1.96005 26.4245 1.5092H26.3835C26.2606 1.96005 26.1376 2.39041 26.0146 2.82077C25.8917 3.25113 25.7482 3.68149 25.6253 4.11184L25.2564 5.27996H27.5516Z" fill="#888B8D"/>
<path d="M30.6465 0.730469H32.5729C33.7615 0.730469 34.6632 1.05836 35.278 1.71415C35.8928 2.36993 36.2002 3.31262 36.2002 4.54222C36.2002 5.15702 36.1182 5.68984 35.9747 6.18168C35.8108 6.65302 35.5854 7.06289 35.278 7.39078C34.9706 7.71868 34.6017 7.98509 34.1508 8.14903C33.7 8.33347 33.1876 8.41545 32.6138 8.41545H30.6465V0.730469ZM32.5114 7.61621C33.4131 7.61621 34.0894 7.3498 34.5402 6.81697C34.9911 6.28415 35.2165 5.52589 35.2165 4.54222C35.2165 3.55854 34.9911 2.82078 34.5402 2.30845C34.0894 1.79612 33.4131 1.52971 32.5114 1.52971H31.6302V7.61621H32.5114Z" fill="#888B8D"/>
<path d="M40.2578 0.791992H42.2662V8.395H40.2578V0.791992Z" fill="#888B8D"/>
<path d="M43.9258 0.791992H45.9956L47.6761 4.19388L48.3933 5.89482H48.4343C48.4138 5.68989 48.3933 5.46446 48.3523 5.21854C48.3113 4.97262 48.2909 4.7267 48.2704 4.48078C48.2499 4.23486 48.2294 3.96845 48.2089 3.72253C48.1884 3.47661 48.1884 3.23069 48.1884 2.98477V0.791992H50.1148V8.395H48.0449L46.3645 4.99311L45.6472 3.29217H45.6062C45.6472 3.72253 45.7087 4.21437 45.7702 4.7267C45.8317 5.23903 45.8726 5.73087 45.8726 6.20222V8.395H43.9463V0.791992H43.9258Z" fill="#888B8D"/>
<path d="M51.7344 0.791992H53.8042L55.4846 4.19388L56.2019 5.89482H56.2429C56.2224 5.68989 56.2019 5.46446 56.1609 5.21854C56.1199 4.97262 56.0994 4.7267 56.079 4.48078C56.0585 4.23486 56.038 3.96845 56.0175 3.72253C55.997 3.47661 55.997 3.23069 55.997 2.98477V0.791992H57.9233V8.395H55.8535L54.1731 4.99311L53.4558 3.29217H53.4148C53.4558 3.72253 53.5173 4.21437 53.5788 4.7267C53.6402 5.23903 53.6812 5.73087 53.6812 6.20222V8.395H51.7549V0.791992H51.7344Z" fill="#888B8D"/>
<path d="M62.7582 8.53835C62.2254 8.53835 61.7541 8.45638 61.3032 8.27194C60.8524 8.0875 60.504 7.84158 60.1966 7.49319C59.8892 7.14481 59.6432 6.73494 59.4793 6.2431C59.3154 5.75126 59.2129 5.19795 59.2129 4.56265C59.2129 3.94786 59.2949 3.37404 59.4793 2.9027C59.6432 2.41086 59.8892 2.00099 60.1966 1.6731C60.504 1.34521 60.8728 1.09929 61.3032 0.914851C61.7336 0.730411 62.2254 0.648438 62.7582 0.648438C63.291 0.648438 63.7624 0.730411 64.1928 0.914851C64.6231 1.09929 64.992 1.34521 65.3199 1.6731C65.6273 2.00099 65.8732 2.41086 66.0371 2.9027C66.2011 3.39454 66.3036 3.94786 66.3036 4.56265C66.3036 5.17745 66.2216 5.75126 66.0371 6.2431C65.8732 6.73494 65.6273 7.1653 65.3199 7.49319C65.0125 7.84158 64.6436 8.0875 64.1928 8.27194C63.7419 8.45638 63.291 8.53835 62.7582 8.53835ZM62.7582 6.81692C63.2091 6.81692 63.578 6.61198 63.8444 6.22261C64.1108 5.81274 64.2337 5.27992 64.2337 4.58315C64.2337 3.88638 64.1108 3.35355 63.8444 2.96418C63.578 2.5953 63.2296 2.39037 62.7582 2.39037C62.3074 2.39037 61.9385 2.57481 61.6721 2.96418C61.4057 3.33306 61.2827 3.88638 61.2827 4.58315C61.2827 5.27992 61.4057 5.83324 61.6721 6.22261C61.9385 6.61198 62.3074 6.81692 62.7582 6.81692Z" fill="#888B8D"/>
<path d="M66.5508 0.791992H68.6821L69.4813 4.1119C69.5838 4.52177 69.6863 4.91114 69.7682 5.32101C69.8502 5.71038 69.9322 6.12024 70.0551 6.53011H70.0961C70.1986 6.12024 70.3011 5.71038 70.383 5.32101C70.465 4.93163 70.547 4.52177 70.6494 4.1119L71.4282 0.791992H73.498L71.2437 8.395H68.805L66.5508 0.791992Z" fill="#888B8D"/>
<path d="M77.6579 6.79652H75.5266L75.1577 8.41549H73.0879L75.4036 0.791992H77.8423L80.1581 8.395H78.0268L77.6579 6.79652ZM77.289 5.23903L77.1661 4.70621C77.0636 4.33733 76.9816 3.94796 76.8791 3.5176C76.7767 3.08724 76.6947 2.67737 76.5922 2.30849H76.5513C76.4693 2.69787 76.3873 3.10773 76.2848 3.53809C76.2029 3.96845 76.1004 4.35782 76.0184 4.7267L75.8955 5.25952H77.289V5.23903Z" fill="#888B8D"/>
<path d="M80.9775 0.791992H83.2318C83.8056 0.791992 84.3384 0.853472 84.8098 0.996925C85.2811 1.14038 85.7115 1.3658 86.0394 1.6732C86.3877 1.9806 86.6542 2.36997 86.8386 2.84132C87.023 3.31266 87.1255 3.88648 87.1255 4.56275C87.1255 5.23903 87.023 5.81284 86.8386 6.30468C86.6542 6.79652 86.3877 7.18589 86.0394 7.49329C85.691 7.80069 85.3016 8.02612 84.8303 8.19006C84.3589 8.33352 83.8671 8.41549 83.3138 8.41549H80.957V0.791992H80.9775ZM83.1088 6.79652C83.3752 6.79652 83.6416 6.75553 83.8876 6.69405C84.1335 6.63257 84.3384 6.50961 84.5229 6.34567C84.7073 6.18172 84.8303 5.9563 84.9327 5.66939C85.0352 5.38248 85.0762 5.01361 85.0762 4.56275C85.0762 4.1119 85.0352 3.76352 84.9327 3.47661C84.8303 3.1897 84.6868 2.98477 84.5229 2.82083C84.3384 2.65688 84.1335 2.55441 83.8876 2.49293C83.6416 2.43145 83.3957 2.41096 83.1088 2.41096H82.9859V6.79652H83.1088Z" fill="#888B8D"/>
<path d="M91.6547 8.53835C91.1219 8.53835 90.6505 8.45638 90.1997 8.27194C89.7488 8.0875 89.4004 7.84158 89.093 7.49319C88.7857 7.14481 88.5397 6.73494 88.3758 6.2431C88.2118 5.75126 88.1094 5.19795 88.1094 4.56265C88.1094 3.94786 88.1913 3.37404 88.3758 2.9027C88.5397 2.41086 88.7857 2.00099 89.093 1.6731C89.4004 1.34521 89.7693 1.09929 90.1997 0.914851C90.6301 0.730411 91.1219 0.648438 91.6547 0.648438C92.1875 0.648438 92.6589 0.730411 93.0892 0.914851C93.5196 1.0788 93.8885 1.34521 94.2164 1.6731C94.5238 2.00099 94.7697 2.41086 94.9336 2.9027C95.0976 3.39454 95.2 3.94786 95.2 4.56265C95.2 5.17745 95.1181 5.75126 94.9336 6.2431C94.7697 6.73494 94.5238 7.1653 94.2164 7.49319C93.909 7.84158 93.5401 8.0875 93.0892 8.27194C92.6589 8.45638 92.1875 8.53835 91.6547 8.53835ZM91.6547 6.81692C92.1056 6.81692 92.4744 6.61198 92.7408 6.22261C93.0073 5.81274 93.1302 5.27992 93.1302 4.58315C93.1302 3.88638 93.0073 3.35355 92.7408 2.96418C92.4744 2.5953 92.1261 2.39037 91.6547 2.39037C91.2039 2.39037 90.835 2.57481 90.5686 2.96418C90.3022 3.33306 90.1792 3.88638 90.1792 4.58315C90.1792 5.27992 90.3022 5.83324 90.5686 6.22261C90.835 6.61198 91.2039 6.81692 91.6547 6.81692Z" fill="#888B8D"/>
<path d="M100.589 8.395L99.2773 5.83334H98.4986V8.395H96.4902V0.791992H99.3798C99.7896 0.791992 100.179 0.832978 100.548 0.914952C100.917 0.996925 101.245 1.11988 101.511 1.30432C101.798 1.48876 102.003 1.73468 102.167 2.06257C102.331 2.36997 102.413 2.77984 102.413 3.25119C102.413 3.8045 102.31 4.25536 102.085 4.60374C101.859 4.97262 101.573 5.23903 101.183 5.44396L102.843 8.395H100.589ZM98.5191 4.25536H99.2363C100.056 4.25536 100.445 3.92746 100.445 3.25119C100.445 2.92329 100.343 2.69787 100.138 2.57491C99.9331 2.45195 99.6257 2.39047 99.2363 2.39047H98.5191V4.25536Z" fill="#888B8D"/>
<path d="M107.906 6.79654H105.775L105.406 8.4155H103.336L105.652 0.8125H108.09L110.406 8.4155H108.275L107.906 6.79654ZM107.558 5.23905L107.435 4.70622C107.332 4.33734 107.25 3.94797 107.148 3.51761C107.045 3.08725 106.963 2.67739 106.861 2.30851H106.82C106.738 2.69788 106.656 3.10775 106.553 3.53811C106.471 3.96846 106.369 4.35784 106.287 4.72672L106.164 5.25954H107.558V5.23905Z" fill="#888B8D"/>
<path d="M42.5735 17.022L40.2578 12.3086H41.303L42.3071 14.4809C42.4301 14.7678 42.5531 15.0342 42.676 15.3211C42.799 15.5875 42.9219 15.8744 43.0449 16.1613H43.0859C43.2088 15.8744 43.3523 15.5875 43.4753 15.3211C43.5982 15.0547 43.7417 14.7678 43.8441 14.4809L44.8278 12.3086H45.8525L43.5367 17.022V19.9936H42.5531V17.022H42.5735Z" fill="#888B8D"/>
<path d="M50.2168 12.3086H52.1432C53.3318 12.3086 54.2335 12.6365 54.8483 13.2923C55.4631 13.9481 55.7705 14.8907 55.7705 16.1203C55.7705 16.7351 55.6885 17.268 55.545 17.7598C55.3811 18.2311 55.1557 18.641 54.8483 18.9689C54.5409 19.2968 54.172 19.5632 53.7211 19.7272C53.2703 19.9116 52.758 19.9936 52.1842 19.9936H50.2168V12.3086ZM52.0612 19.1943C52.9629 19.1943 53.6392 18.9279 54.09 18.3951C54.5409 17.8623 54.7663 17.104 54.7663 16.1203C54.7663 15.1367 54.5409 14.3989 54.09 13.8866C53.6392 13.3742 52.9629 13.1078 52.0612 13.1078H51.18V19.1943H52.0612Z" fill="#888B8D"/>
<path d="M57.3076 12.3086H61.7341V13.1283H58.2708V15.5465H61.1808V16.3868H58.2708V19.1533H61.8366V19.9936H57.2871V12.3086H57.3076Z" fill="#888B8D"/>
<path d="M66.3037 12.3906H68.558C69.1318 12.3906 69.6646 12.4521 70.1359 12.5956C70.6073 12.739 71.0376 12.9644 71.3655 13.2718C71.7139 13.5792 71.9803 13.9686 72.1648 14.44C72.3492 14.9113 72.4517 15.4851 72.4517 16.1614C72.4517 16.8377 72.3492 17.4115 72.1648 17.9033C71.9803 18.3952 71.7139 18.7845 71.3655 19.0919C71.0171 19.3993 70.6278 19.6248 70.1564 19.7887C69.6851 19.9322 69.1932 20.0141 68.6399 20.0141H66.2832V12.3906H66.3037ZM68.4145 18.3747C68.6809 18.3747 68.9473 18.3337 69.1933 18.2722C69.4392 18.2107 69.6441 18.0878 69.8285 17.9238C70.013 17.7599 70.1359 17.5344 70.2384 17.2475C70.3409 16.9606 70.3819 16.5917 70.3819 16.1409C70.3819 15.69 70.3409 15.3417 70.2384 15.0548C70.1359 14.7678 69.9925 14.5629 69.8285 14.399C69.6441 14.235 69.4392 14.1326 69.1933 14.0711C68.9473 14.0096 68.7014 13.9891 68.4145 13.9891H68.2915V18.3747H68.4145Z" fill="#888B8D"/>
<path d="M73.7432 12.3906H78.6615V14.0711H75.7515V15.2597H78.2312V16.9401H75.7515V18.2927H78.764V19.9731H73.7227V12.3906H73.7432Z" fill="#888B8D"/>
<path d="M84.3174 19.9936L83.0058 17.432H82.2271V19.9936H80.2188V12.3906H83.1083C83.5182 12.3906 83.9075 12.4316 84.2764 12.5136C84.6453 12.5956 84.9732 12.7185 85.2396 12.903C85.5265 13.0874 85.7314 13.3333 85.8954 13.6612C86.0593 13.9686 86.1413 14.3785 86.1413 14.8498C86.1413 15.4031 86.0388 15.854 85.8134 16.2024C85.588 16.5713 85.3011 16.8377 84.9117 17.0426L86.5717 19.9936H84.3174ZM82.2271 15.854H82.9444C83.7641 15.854 84.1535 15.5261 84.1535 14.8498C84.1535 14.5219 84.051 14.2965 83.8461 14.1735C83.6411 14.0506 83.3337 13.9891 82.9444 13.9891H82.2271V15.854Z" fill="#888B8D"/>
<path d="M87.5361 12.3906H92.4545V14.0711H89.5445V15.2597H92.0241V16.9401H89.5445V18.2927H92.557V19.9731H87.5156V12.3906H87.5361Z" fill="#888B8D"/>
<path d="M93.5391 16.2442C93.5391 15.6089 93.6415 15.0351 93.8465 14.5433C94.0514 14.0515 94.3178 13.6211 94.6662 13.2932C95.0146 12.9448 95.4039 12.6989 95.8548 12.5145C96.3057 12.33 96.777 12.248 97.2688 12.248C97.7607 12.248 98.191 12.3505 98.5804 12.5554C98.9698 12.7604 99.2977 12.9858 99.5846 13.2727L98.4779 14.5228C98.2935 14.3589 98.1091 14.2359 97.9246 14.1334C97.7402 14.0515 97.5352 13.99 97.2893 13.99C97.0639 13.99 96.8385 14.031 96.6335 14.1334C96.4286 14.2359 96.2442 14.3793 96.1007 14.5638C95.9573 14.7482 95.8343 14.9737 95.7318 15.2606C95.6499 15.527 95.5884 15.8344 95.5884 16.1828C95.5884 16.9 95.7318 17.4533 96.0392 17.8427C96.3466 18.2321 96.736 18.4165 97.2279 18.4165C97.5148 18.4165 97.7812 18.355 97.9861 18.2526C98.191 18.1296 98.396 17.9862 98.5599 17.8222L99.6666 19.0313C99.3387 19.4002 98.9698 19.6871 98.5394 19.8715C98.1091 20.056 97.6787 20.1584 97.2074 20.1584C96.7155 20.1584 96.2442 20.0765 95.7933 19.9125C95.3425 19.7486 94.9531 19.5027 94.6252 19.1953C94.2973 18.8674 94.0309 18.4575 93.826 17.9862C93.6415 17.4738 93.5391 16.9 93.5391 16.2442Z" fill="#888B8D"/>
<path d="M100.672 12.3906H102.68V15.2187H104.955V12.3906H106.963V19.9936H104.955V16.9811H102.68V19.9936H100.672V12.3906Z" fill="#888B8D"/>
<path d="M111.799 20.138C111.266 20.138 110.795 20.056 110.344 19.8715C109.914 19.6871 109.545 19.4412 109.238 19.0928C108.93 18.7444 108.684 18.3346 108.52 17.8427C108.356 17.3509 108.254 16.7976 108.254 16.1623C108.254 15.5475 108.336 14.9737 108.52 14.5023C108.684 14.0105 108.93 13.6006 109.238 13.2727C109.545 12.9448 109.914 12.6989 110.344 12.5145C110.775 12.3505 111.266 12.248 111.799 12.248C112.332 12.248 112.803 12.33 113.234 12.5145C113.664 12.6784 114.033 12.9448 114.361 13.2727C114.668 13.6006 114.914 14.0105 115.078 14.5023C115.242 14.9941 115.345 15.5475 115.345 16.1623C115.345 16.7771 115.263 17.3509 115.078 17.8427C114.914 18.3346 114.668 18.7649 114.361 19.0928C114.054 19.4412 113.685 19.6871 113.234 19.8715C112.803 20.056 112.332 20.138 111.799 20.138ZM111.799 18.396C112.25 18.396 112.619 18.1911 112.885 17.8017C113.152 17.3919 113.275 16.859 113.275 16.1623C113.275 15.4655 113.152 14.9327 112.885 14.5433C112.619 14.1744 112.271 13.9695 111.799 13.9695C111.348 13.9695 110.98 14.1539 110.713 14.5433C110.447 14.9122 110.324 15.4655 110.324 16.1623C110.324 16.859 110.447 17.4124 110.713 17.8017C110.98 18.2116 111.348 18.396 111.799 18.396Z" fill="#888B8D"/>
<path d="M117.21 17.6583C117.477 17.8837 117.784 18.0476 118.091 18.1911C118.399 18.3345 118.706 18.396 118.993 18.396C119.3 18.396 119.526 18.355 119.649 18.2526C119.792 18.1501 119.854 18.0271 119.854 17.8632C119.854 17.7607 119.833 17.6993 119.792 17.6378C119.751 17.5763 119.669 17.5148 119.587 17.4533C119.505 17.3919 119.382 17.3509 119.259 17.2894C119.137 17.2484 118.993 17.1869 118.829 17.1254L117.886 16.7361C117.682 16.6541 117.497 16.5516 117.292 16.4287C117.108 16.3057 116.944 16.1418 116.8 15.9778C116.657 15.7934 116.554 15.6089 116.472 15.3835C116.39 15.1581 116.349 14.9122 116.349 14.6253C116.349 14.2974 116.411 13.99 116.554 13.7031C116.698 13.4162 116.882 13.1702 117.149 12.9448C117.395 12.7399 117.702 12.5554 118.05 12.4325C118.399 12.3095 118.768 12.248 119.198 12.248C119.628 12.248 120.079 12.33 120.53 12.494C120.981 12.6579 121.37 12.9243 121.739 13.2727L120.735 14.5433C120.469 14.3589 120.223 14.2359 119.997 14.1334C119.772 14.031 119.505 13.99 119.218 13.99C118.973 13.99 118.768 14.031 118.624 14.1129C118.481 14.1949 118.419 14.3179 118.419 14.5023C118.419 14.6867 118.522 14.8302 118.727 14.9122C118.932 15.0146 119.198 15.1171 119.546 15.2606L120.469 15.6294C120.94 15.8139 121.309 16.0803 121.575 16.4082C121.842 16.7361 121.965 17.1869 121.965 17.6993C121.965 18.0271 121.903 18.3345 121.76 18.6215C121.637 18.9084 121.432 19.1748 121.186 19.4002C120.94 19.6256 120.612 19.8101 120.264 19.933C119.895 20.056 119.485 20.138 118.993 20.138C118.501 20.138 118.009 20.056 117.497 19.8715C116.985 19.6871 116.513 19.4207 116.104 19.0518L117.21 17.6583Z" fill="#888B8D"/>
</svg>
