<svg width="31" height="47" viewBox="0 0 31 47" fill="none" xmlns="http://www.w3.org/2000/svg">
<path d="M21.5641 23.4373V26.7968C24.9352 28.3681 27.1938 31.2941 27.1938 34.64C27.1938 39.6386 22.154 43.7025 15.9176 43.7025C9.68106 43.7025 4.64131 39.6521 4.64131 34.64C4.64131 31.2941 6.91678 28.3681 10.271 26.7968V23.4373C4.79301 25.2254 0.899414 29.5602 0.899414 34.6265C0.899414 41.2912 7.62471 46.7097 15.9344 46.7097C24.2273 46.7097 30.9694 41.3048 30.9694 34.6265C30.9525 29.5602 27.0758 25.2254 21.5641 23.4373Z" fill="#8B1232"/>
<path d="M23.1486 6.00331C23.9239 6.00331 24.5476 5.5021 24.5476 4.87897V4.12039C24.5476 3.49726 23.9239 2.99605 23.1486 2.99605H17.7886V1.1944C17.7886 0.571275 17.1649 0.0565186 16.3727 0.0565186H15.4288C14.6703 0.0565186 14.0467 0.557729 14.0467 1.1944V28.7881C10.8105 29.4518 8.41699 31.8224 8.41699 34.64C8.41699 37.9724 11.7881 40.6816 15.9345 40.6816C20.0809 40.6816 23.452 37.9724 23.452 34.64C23.452 31.8224 21.0585 29.4654 17.8223 28.7881V15.8243H23.1486C23.9239 15.8243 24.5476 15.3231 24.5476 14.7V13.9414C24.5476 13.3183 23.9239 12.8171 23.1486 12.8171H17.7886V10.8393H20.7888C21.3788 10.8393 21.8676 10.4465 21.8676 9.97235V8.68546C21.8676 8.21134 21.3788 7.8185 20.7888 7.8185H17.7886V6.00331H23.1486Z" fill="#B18147"/>
</svg>
