<svg width="170" height="44" viewBox="0 0 170 44" fill="none" xmlns="http://www.w3.org/2000/svg">
<path d="M56.3602 24.2108C56.5651 24.5387 56.893 24.7027 57.3439 24.7027C57.9178 24.7436 58.3277 24.1288 58.3277 24.1288L68.0421 11.6271C68.8619 10.8073 69.6407 11.4632 69.6407 11.4632C70.4195 12.2829 69.8456 12.9798 69.8456 12.9798L67.6732 15.767V15.808C67.4683 16.013 67.3863 16.2589 67.3863 16.5458C67.3863 16.7917 67.4683 17.0377 67.6322 17.2426L69.8046 20.0299L76.6908 11.2582L73.9445 7.73314L73.4527 7.07732C73.0018 6.42149 72.0181 6.29852 72.0181 6.29852H67.8781C66.7714 6.29852 66.1976 7.07732 66.1976 7.07732L54.5977 21.9564L56.3602 24.2108Z" fill="#9F2241"/>
<path d="M55.8683 16.587L53.122 13.0209C52.5482 12.1191 53.368 11.4633 53.368 11.4633C54.3927 10.8485 55.0075 11.7912 55.0075 11.7912L57.3029 14.7425L60.0082 11.2174L56.893 7.20045C56.1552 6.13473 55.0075 6.29869 55.0075 6.29869H51.2775C50.0888 6.29869 49.556 7.03649 49.556 7.03649L46.2358 11.2174L53.122 20.071L55.8683 16.587Z" fill="#9F2241"/>
<path d="M66.5665 19.62C66.5665 19.62 66.2385 19.1281 65.6237 19.1281C64.9679 19.1281 64.7219 19.579 64.7219 19.579L54.8845 32.2447C54.1058 33.1054 53.204 32.4086 53.204 32.4086C52.4252 31.5888 53.081 30.851 53.081 30.851L55.2944 28.0228V27.9818C55.4994 27.7769 55.5814 27.5309 55.5814 27.244C55.5814 26.9981 55.4994 26.7521 55.3354 26.5472L53.163 23.7599L46.2358 32.6546L50.0888 37.5323L56.1552 37.5733L68.37 21.9564L66.5665 19.62Z" fill="#9F2241"/>
<path d="M67.0581 27.2032L69.8454 30.8103C70.5012 31.712 69.6814 32.3679 69.6814 32.3679C68.6157 33.1057 67.9599 31.999 67.9599 31.999L65.6235 29.0067L62.9182 32.5318L66.8532 37.5325L72.8786 37.4915L76.7315 32.5318L69.8044 23.7191L67.0581 27.2032Z" fill="#9F2241"/>
<path d="M76.6498 23.4321C75.83 23.4321 75.1742 22.7762 75.1742 21.9565C75.1742 21.1367 75.83 20.4808 76.6498 20.4808C77.4696 20.4808 78.1254 21.1367 78.1254 21.9565C78.1254 22.7762 77.4696 23.4321 76.6498 23.4321ZM76.6498 19.1692C75.0922 19.1692 73.8625 20.3989 73.8625 21.9155C73.8625 23.4321 75.0922 24.6617 76.6498 24.6617C78.2074 24.6617 79.4371 23.4321 79.4371 21.9155C79.4371 20.3989 78.2074 19.1692 76.6498 19.1692Z" fill="#9F2241"/>
<path d="M61.4428 2.0358C62.2626 2.0358 62.9184 2.69163 62.9184 3.51141C62.9184 4.33119 62.2626 4.98702 61.4428 4.98702C60.623 4.98702 59.9672 4.33119 59.9672 3.51141C59.9672 2.69163 60.664 2.0358 61.4428 2.0358ZM61.4428 6.29867C63.0004 6.29867 64.23 5.069 64.23 3.5524C64.23 2.0358 63.0004 0.765137 61.4428 0.765137C59.8852 0.765137 58.6555 1.99481 58.6555 3.51141C58.6555 5.02801 59.8852 6.29867 61.4428 6.29867Z" fill="#9F2241"/>
<path d="M44.7189 21.9155C44.7189 21.0957 45.3747 20.4399 46.1945 20.4399C47.0143 20.4399 47.6701 21.0957 47.6701 21.9155C47.6701 22.7352 47.0143 23.3911 46.1945 23.3911C45.3747 23.3911 44.7189 22.7352 44.7189 21.9155ZM49.0228 21.9155C49.0228 20.3989 47.7931 19.1692 46.2355 19.1692C44.6779 19.1692 43.4482 20.3989 43.4482 21.9155C43.4482 23.4321 44.6779 24.6617 46.2355 24.6617C47.7521 24.7027 49.0228 23.4321 49.0228 21.9155Z" fill="#9F2241"/>
<path d="M61.4428 41.8363C60.623 41.8363 59.9672 41.1805 59.9672 40.3607C59.9672 39.5409 60.623 38.8851 61.4428 38.8851C62.2626 38.8851 62.9184 39.5409 62.9184 40.3607C62.9184 41.1395 62.2626 41.8363 61.4428 41.8363ZM61.4428 37.5735C59.8852 37.5735 58.6555 38.8031 58.6555 40.3197C58.6555 41.8363 59.8852 43.066 61.4428 43.066C63.0004 43.066 64.23 41.8363 64.23 40.3197C64.23 38.8031 63.0004 37.5735 61.4428 37.5735Z" fill="#9F2241"/>
<path d="M32.2175 3.51166H0V24.99C0 36.7949 16.0677 40.3199 16.0677 40.3199H16.1087C16.1087 40.3199 32.1765 36.7539 32.1765 24.99L32.2175 3.51166ZM31.3977 4.29045V24.99C31.3977 27.4903 30.6189 29.8267 29.0613 31.8762C27.7906 33.5567 26.0281 35.0733 23.7737 36.385C20.3716 38.3934 16.8875 39.3362 16.0677 39.5001C15.289 39.2952 11.8459 38.3934 8.40278 36.385C6.14837 35.0733 4.38584 33.5567 3.11518 31.8762C1.55759 29.8267 0.778794 27.4903 0.778794 24.99V4.29045H31.3977Z" fill="#BC955C"/>
<path d="M20.0026 10.3977V8.43024H17.9941V10.2747H17.2153V8.43024H15.1249V10.2747H14.3461V8.43024H12.2966V10.3977L13.3214 12.1193C13.3623 12.2012 13.3623 12.2422 13.3623 12.3242V21.3418H14.3461V18.1037C14.3461 17.3249 15.2069 16.6281 16.1496 16.6281C17.1334 16.6281 17.9531 17.3249 17.9531 18.1037V21.3418H18.9779V17.9397C18.9779 17.8987 18.9779 17.8987 18.9779 17.8987V16.2182V16.1772V14.9475V14.4147V12.3652C18.9779 12.2832 19.0189 12.2422 19.0598 12.1602L20.0026 10.3977Z" fill="#BC955C"/>
<path d="M12.5018 21.5465V18.5543L12.1739 18.8002C12.0509 18.8822 11.8869 18.8822 11.764 18.7592L11.3131 18.4723C11.3131 18.5133 11.3131 18.5133 11.3131 18.5133L11.2721 19.661C11.2721 19.7839 11.1901 19.9069 11.1082 19.9479C11.1491 19.9889 11.1901 19.9889 11.2311 20.0299C11.764 20.4398 11.805 21.0546 11.682 21.5465H12.5018Z" fill="#BC955C"/>
<path d="M16.0679 17.4478C15.4531 17.4478 15.0432 17.8987 15.0432 18.1036V21.3418H17.0927V18.1036C17.1337 17.8577 16.6828 17.4478 16.0679 17.4478Z" fill="#BC955C"/>
<path d="M4.01663 21.5464C3.89366 21.3005 3.81168 21.0136 3.77069 20.6447C3.64772 19.9888 3.68871 19.456 3.68871 19.415C3.68871 19.251 3.81168 19.1281 3.97564 19.0461L4.83641 18.8002L3.85267 18.1033C3.7297 18.0214 3.68871 17.8984 3.68871 17.7754V16.6687C3.68871 16.5048 3.77069 16.3818 3.89366 16.2998L4.26256 16.0949V15.726L3.97564 15.603C3.81168 15.562 3.68871 15.439 3.68871 15.2341V13.9224C3.68871 13.7175 3.85267 13.5126 4.0986 13.5126L5.32828 13.4716C5.28729 13.1437 5.28729 12.6928 5.36927 12.3239C5.49224 11.832 5.77916 11.2991 5.90213 11.0532L5.82015 10.6023C5.77916 10.4794 5.86114 10.3974 5.90213 10.3154C5.9841 10.2334 6.06608 10.1924 6.18905 10.1924H6.84488C6.92686 10.1924 7.00883 10.2334 7.04982 10.2744L8.6484 11.2991H9.42719C9.55016 11.2991 9.63214 11.3401 9.71412 11.4221C9.7961 11.5041 9.83709 11.5861 9.83709 11.709L9.75511 12.9797C9.75511 13.1027 9.71412 13.1846 9.63214 13.2666H10.124C10.247 13.2666 10.329 13.3076 10.4109 13.3896L10.6159 13.6355L10.7798 13.5126L11.0668 12.9387C11.1487 12.8157 11.2717 12.7338 11.4357 12.7338H12.5014V12.5288L11.4767 10.7663C11.4357 10.6843 11.4357 10.6433 11.4357 10.5613V8.02001C11.4357 7.81507 11.5996 7.61012 11.8456 7.61012H14.3049H15.0837H17.1741H17.9939H20.4123C20.6172 7.61012 20.8222 7.77408 20.8222 8.02001V10.4794C20.8222 10.5613 20.7812 10.6023 20.7402 10.6843L19.7155 12.4059V12.6518H20.7812C20.9451 12.6518 21.0681 12.7338 21.1501 12.8567L21.437 13.4306L21.601 13.5535L21.8059 13.3076C21.8879 13.2256 21.9699 13.1846 22.0928 13.1846H22.5847C22.5027 13.1027 22.4617 13.0207 22.4617 12.8977L22.3798 11.6271C22.3798 11.5041 22.4208 11.4221 22.5027 11.3401C22.5847 11.2582 22.6667 11.2172 22.7897 11.2172H23.5275L25.126 10.1924C25.208 10.1514 25.249 10.1105 25.331 10.1105H25.9868C26.1098 10.1105 26.1918 10.1514 26.2737 10.2334C26.3557 10.3154 26.3967 10.4384 26.3557 10.5203L26.2737 10.9712C26.3967 11.2172 26.6836 11.75 26.8066 12.2419C26.8886 12.6108 26.8886 13.0617 26.8476 13.3896L28.0773 13.4306C28.2822 13.4306 28.4872 13.5945 28.4872 13.8405V15.1521C28.4872 15.3161 28.4052 15.439 28.2412 15.521L27.8723 15.644V16.0129L28.2412 16.2178C28.3642 16.2998 28.4462 16.4228 28.4462 16.5867V17.6935C28.4462 17.8164 28.3642 17.9394 28.2822 18.0214L27.2985 18.7182L28.1592 18.9641C28.3232 19.0051 28.4052 19.1691 28.4462 19.333C28.4462 19.374 28.4872 19.9069 28.3642 20.5627C28.2822 20.9316 28.2412 21.2185 28.1182 21.4645H29.5529H29.5939V6.25748H2.54102V21.5464H4.01663Z" fill="#BC955C"/>
<path d="M20.9455 20.0299C20.9865 19.9889 21.0275 19.9889 21.0685 19.9479C20.9865 19.8659 20.9045 19.7839 20.9045 19.661V18.5133C20.9045 18.4723 20.9045 18.4723 20.9045 18.4723L20.4946 18.8002C20.3716 18.8822 20.2077 18.8822 20.0437 18.8412L19.7158 18.6362V21.6285H20.4946C20.4126 21.0546 20.4126 20.4808 20.9455 20.0299Z" fill="#BC955C"/>
<path d="M26.2332 29.7444C26.0282 29.7444 25.8233 29.5804 25.8233 29.3345V26.7522C25.8233 26.5472 25.7003 26.3013 25.5364 26.1373C25.3724 25.9734 25.1265 25.8094 24.7166 25.8504C24.1018 25.8504 23.7329 26.3423 23.6919 26.7931V29.3755C23.6919 29.4984 23.6509 29.5804 23.5689 29.6624C23.4869 29.7444 23.4049 29.7854 23.282 29.7854H20.9456C20.7406 29.7854 20.5357 29.6214 20.5357 29.3755V26.7931C20.5357 26.5882 20.4127 26.3423 20.2488 26.1783C20.0848 26.0144 19.8389 25.8504 19.429 25.8914C19.1831 25.8914 18.9371 26.0144 18.7322 26.1373L20.6587 36.0157C23.364 34.827 26.6021 32.8186 28.3646 29.7854L26.2332 29.7444Z" fill="#BC955C"/>
<path d="M19.9208 36.221L17.2155 22.3666H15.0431L12.2968 36.221C12.2968 36.262 12.2968 36.262 12.2559 36.3029C14.1414 37.0817 15.658 37.4506 16.1088 37.6146C16.5597 37.4916 18.0763 37.0817 19.9618 36.3029C19.9618 36.262 19.9618 36.262 19.9208 36.221Z" fill="#BC955C"/>
<path d="M13.4443 26.0963C13.2803 25.9324 13.0344 25.8504 12.7475 25.8504H12.7065C12.2966 25.8504 12.0506 26.0143 11.9277 26.1783C11.7637 26.3422 11.6407 26.5882 11.6407 26.7931V29.3754C11.6407 29.5804 11.4768 29.7853 11.2309 29.7853H8.89448C8.77151 29.7853 8.68953 29.7443 8.60755 29.6624C8.52557 29.5804 8.48459 29.4984 8.48459 29.3754V26.7931C8.4436 26.3422 8.07469 25.8504 7.45986 25.8504H7.41887C7.00898 25.8504 6.76304 26.0143 6.64007 26.1783C6.47612 26.3422 6.35315 26.5882 6.35315 26.7931V29.3754C6.35315 29.5804 6.18919 29.7853 5.94326 29.7853H3.8938C5.61534 32.8185 8.8125 34.786 11.5588 36.0157L13.4443 26.0963Z" fill="#BC955C"/>
<path d="M29.6353 22.3666H18.0354L18.6092 25.2769C18.8552 25.1539 19.1421 25.0719 19.429 25.0719C19.9619 25.0719 20.4538 25.2359 20.8227 25.6048C21.1506 25.9327 21.3555 26.3836 21.3555 26.7525V28.9249H22.9131V26.7525C22.9131 26.7115 22.9131 26.7115 22.9131 26.7115C22.9951 25.7687 23.7739 25.0309 24.7166 25.0309C25.2495 25.0309 25.7414 25.1949 26.1103 25.5638C26.4382 25.8917 26.6431 26.3426 26.6431 26.7115V28.8839H28.8155C29.3484 27.6952 29.6763 26.3836 29.6763 24.867L29.6353 22.3666Z" fill="#BC955C"/>
<path d="M5.61523 28.9657V26.7933C5.61523 26.3834 5.82017 25.9735 6.14809 25.6456C6.51699 25.2767 7.00886 25.1128 7.54172 25.1128C8.48447 25.1537 9.26326 25.8506 9.34524 26.7933C9.34524 26.8343 9.34524 26.8343 9.34524 26.8343V29.0067H10.9028V26.8343C10.9028 26.4244 11.1078 26.0145 11.4357 25.6866C11.8046 25.3177 12.2965 25.1537 12.8293 25.1537C13.1162 25.1537 13.4032 25.2357 13.6491 25.3587L14.223 22.4485H2.58203V24.9488C2.58203 26.4654 2.90994 27.818 3.4428 28.9657H5.61523Z" fill="#BC955C"/>
<path d="M6.55819 20.7269H7.21402C7.25501 20.8089 7.296 20.8909 7.296 20.9728C7.296 21.0138 7.296 21.0958 7.296 21.1368C7.296 21.2598 7.25501 21.4237 7.25501 21.5467H5.00061C4.67269 21.3417 4.50874 20.44 4.50874 19.7432L5.49248 19.4562C5.65643 19.4153 5.7794 19.2513 5.7794 19.0873V18.7184C5.7794 18.5955 5.69742 18.4725 5.61544 18.3905L4.46775 17.5707V16.9149L4.83665 16.71C4.95962 16.628 5.0416 16.505 5.0416 16.3411V15.4803C5.0416 15.3163 4.95962 15.1934 4.79566 15.1114L4.42676 14.9884V14.3326H5.45149L5.94336 15.1524V16.2591L5.61544 17.3248C5.57445 17.4478 5.57445 17.5707 5.69742 17.6937C5.7794 17.8167 5.90237 17.8577 6.02533 17.8577H6.31226C6.5172 17.8577 6.68116 17.7347 6.72215 17.5298C6.76314 17.3658 6.84512 16.8329 6.9271 16.628C7.00907 16.464 7.296 16.0951 7.45996 15.8492C7.58292 15.6852 7.58292 15.4803 7.45996 15.3573L6.1483 13.7997C6.10731 13.5538 6.06632 13.0209 6.1483 12.6111C6.23028 12.1602 6.55819 11.6273 6.64017 11.4634C6.68116 11.3814 6.72215 11.2994 6.68116 11.2174L6.64017 11.0945H6.72215L8.32073 12.1192C8.40271 12.1602 8.4437 12.2012 8.52567 12.2012H9.01754L8.97655 12.652L8.4437 12.857C8.32073 12.939 8.19776 13.0619 8.19776 13.2259V13.6358C8.19776 13.8407 8.36172 14.0457 8.60765 14.0457H9.96029L10.3292 14.4146C10.4522 14.5785 10.6981 14.5785 10.8621 14.4556C10.8621 14.4556 11.4769 13.9637 11.5179 13.9227L11.7228 13.4718H12.5426V14.3736V14.8655C12.5426 14.8655 11.108 15.3573 10.985 15.3983C10.903 15.4393 10.8211 15.8902 10.8621 15.9722C10.903 16.0951 10.8621 16.1361 11.026 16.2181C11.026 16.2181 11.4359 16.546 11.5589 16.587L11.9688 16.1771L12.5016 16.2591V17.6117L11.9688 17.9806L10.2882 16.8329C10.1243 16.71 9.87832 16.751 9.75535 16.9149L9.50941 17.2428C9.38645 17.4068 9.38645 17.6527 9.5504 17.7757L10.4932 18.6774V19.4153L9.50941 19.8251C9.34546 19.9071 9.26348 20.0301 9.26348 20.194V20.358C9.26348 20.5629 9.42744 20.7679 9.67337 20.7679H10.8211C11.026 21.0138 10.944 21.3417 10.8621 21.5877H8.23875C8.15677 21.5057 8.11578 21.3417 8.07479 21.1368C8.07479 21.0958 8.07479 21.0138 8.07479 20.9728C8.07479 20.7269 8.11578 20.481 8.15677 20.317L8.77161 19.5382C8.8126 19.4562 8.85359 19.3743 8.85359 19.3333L8.89458 18.9644C8.89458 18.8414 8.8126 18.7184 8.73062 18.5955C8.64864 18.4725 8.48468 18.5135 8.36172 18.5545L7.37798 18.9644C7.25501 19.0054 7.17303 19.1283 7.13204 19.2513L7.05006 19.6612L6.47622 19.8251C6.31226 19.8661 6.18929 20.0301 6.18929 20.194V20.358C6.1483 20.5629 6.35325 20.7269 6.55819 20.7269Z" fill="#BC955C"/>
<path d="M25.6592 20.7269H25.0034C24.9624 20.8089 24.9214 20.8909 24.9214 20.9729C24.9214 21.0139 24.9214 21.0958 24.9214 21.1368C24.9214 21.2598 24.9624 21.4237 24.9624 21.5467H27.2168C27.5447 21.3418 27.7087 20.44 27.7087 19.7432L26.725 19.4563C26.561 19.4153 26.438 19.2513 26.438 19.0874V18.7185C26.438 18.5955 26.52 18.4725 26.602 18.3905L27.7087 17.6118V16.9559L27.3398 16.751C27.2168 16.669 27.1349 16.546 27.1349 16.3821V15.5213C27.1349 15.3574 27.2168 15.2344 27.3808 15.1524L27.7497 15.0294V14.3736H26.725L26.2331 15.1934V16.3001L26.561 17.3658C26.602 17.4888 26.602 17.6118 26.479 17.7347C26.3971 17.8577 26.2741 17.8987 26.1511 17.8987H25.8642C25.6592 17.8987 25.4953 17.7757 25.4543 17.5708C25.4133 17.4068 25.3313 16.8739 25.2494 16.669C25.1674 16.505 24.8805 16.1361 24.7165 15.8902C24.5935 15.7263 24.5935 15.5213 24.7165 15.3983L26.0691 13.8408C26.1101 13.5948 26.1511 13.062 26.0691 12.6521C25.9872 12.2012 25.6592 11.6683 25.5773 11.5044C25.5363 11.4224 25.4953 11.3404 25.5363 11.2584L25.5773 11.1355H25.4953L23.8967 12.1602C23.8147 12.2012 23.7737 12.2422 23.6918 12.2422H23.2409L23.2819 12.816L23.8147 13.021C23.9787 13.1029 24.0607 13.2259 24.0607 13.3899V13.7998C24.0607 14.0047 23.8967 14.2097 23.6508 14.2097H22.2981L21.9292 14.5786C21.8063 14.7425 21.5603 14.7425 21.3964 14.6195C21.3964 14.6195 20.7815 14.1277 20.7405 14.0867L20.5356 13.6358H19.7158V14.5376V15.0294C19.7158 15.0294 21.1504 15.5213 21.2734 15.5623C21.3554 15.6033 21.4374 16.0542 21.3964 16.1361C21.3554 16.2591 21.3964 16.3001 21.2324 16.3821C21.2324 16.3821 20.8225 16.71 20.6996 16.751L20.2897 16.3411H19.7158V17.6937L20.2487 18.0216L21.9292 16.8739C22.0932 16.751 22.3391 16.792 22.4621 16.9559L22.708 17.2838C22.831 17.4478 22.831 17.6937 22.667 17.8167L21.7243 18.6775V19.4153L22.708 19.8252C22.872 19.9071 22.954 20.0301 22.954 20.1941V20.358C22.954 20.563 22.79 20.7679 22.5441 20.7679H21.3964C21.1914 21.0139 21.2734 21.3418 21.3554 21.5877H24.0197C24.1017 21.5057 24.1426 21.3418 24.1836 21.1368C24.1836 21.0958 24.1836 21.0139 24.1836 20.9729C24.1836 20.7269 24.1426 20.481 24.1017 20.317L23.4868 19.5382C23.4458 19.4563 23.4048 19.3743 23.4048 19.3333L23.3639 18.9234C23.3639 18.8004 23.4458 18.6775 23.5278 18.5545C23.6508 18.4725 23.7737 18.4725 23.8967 18.5135L24.8805 18.9234C25.0034 18.9644 25.0854 19.0874 25.1264 19.2103L25.2084 19.6202L25.7822 19.7842C25.9462 19.8252 26.0691 19.9891 26.0691 20.1531V20.317C26.0691 20.563 25.9052 20.7269 25.6592 20.7269Z" fill="#BC955C"/>
<path d="M87.9216 17.243C87.9216 15.7264 89.0283 14.3737 90.6679 14.3737C91.5697 14.3737 92.1435 14.6197 92.7174 15.1115L92.3075 15.5624C91.8976 15.1935 91.4057 14.9066 90.6269 14.9066C89.4382 14.9066 88.5365 15.9313 88.5365 17.161V17.202C88.5365 18.5136 89.3563 19.4974 90.7089 19.4974C91.3647 19.4974 91.8976 19.2514 92.3075 18.9645V17.5709H90.6269V17.038H92.8813V19.2104C92.3895 19.6613 91.6107 20.0302 90.6679 20.0302C89.0283 20.0712 87.9216 18.8005 87.9216 17.243Z" fill="#9F2241"/>
<path d="M99.9316 17.243C99.9316 15.9723 99.0299 14.9476 97.7592 14.9476C96.5295 14.9476 95.6278 15.9723 95.6278 17.202V17.243C95.6278 18.4726 96.5295 19.4974 97.8002 19.4974C99.0299 19.4974 99.9316 18.4726 99.9316 17.243ZM94.9719 17.243C94.9719 15.7264 96.1196 14.3737 97.7592 14.3737C99.4397 14.3737 100.546 15.6854 100.546 17.202V17.243C100.546 18.7596 99.3988 20.0712 97.7592 20.0712C96.0786 20.0712 94.9719 18.7186 94.9719 17.243Z" fill="#9F2241"/>
<path d="M105.137 17.4478H103.416V19.3743H105.26C106.08 19.3743 106.613 19.0054 106.613 18.3905C106.572 17.8167 106.08 17.4478 105.137 17.4478ZM106.285 15.9312C106.285 15.3983 105.834 15.0294 105.096 15.0294H103.416V16.9149H105.055C105.752 16.9149 106.285 16.587 106.285 15.9312ZM102.76 14.4556H105.096C105.752 14.4556 106.203 14.6195 106.531 14.9474C106.736 15.1934 106.9 15.4803 106.9 15.8082V15.8492C106.9 16.587 106.449 16.9149 106.039 17.1199C106.695 17.3248 107.228 17.6937 107.228 18.4315V18.4725C107.228 19.4153 106.449 19.9481 105.219 19.9481H102.801L102.76 14.4556Z" fill="#9F2241"/>
<path d="M110.975 14.4556H110.36V19.9481H110.975V14.4556Z" fill="#9F2241"/>
<path d="M113.517 14.4556H117.493V15.0294H114.131V16.9149H117.124V17.4478H114.131V19.4153H117.534V19.9481H113.517V14.4556Z" fill="#9F2241"/>
<path d="M121.879 17.2838C122.698 17.2838 123.272 16.8739 123.272 16.1361V16.0951C123.272 15.3983 122.739 15.0294 121.879 15.0294H120.198V17.2838H121.879ZM119.542 14.4556H121.92C122.616 14.4556 123.108 14.6605 123.477 14.9884C123.723 15.2344 123.887 15.6443 123.887 16.0541V16.0951C123.887 16.9969 123.231 17.5298 122.411 17.6937L124.092 19.9481H123.313L121.715 17.8167H120.198V19.9481H119.583L119.542 14.4556Z" fill="#9F2241"/>
<path d="M126.141 14.4556H126.715L130.158 18.8824V14.4556H130.773V19.9481H130.281L126.756 15.4393V19.9481H126.141V14.4556Z" fill="#9F2241"/>
<path d="M137.946 17.243C137.946 15.9723 137.044 14.9476 135.774 14.9476C134.503 14.9476 133.642 15.9723 133.642 17.202V17.243C133.642 18.4726 134.544 19.4974 135.815 19.4974C137.044 19.4974 137.946 18.4726 137.946 17.243ZM132.986 17.243C132.986 15.7264 134.134 14.3737 135.774 14.3737C137.454 14.3737 138.561 15.6854 138.561 17.202V17.243C138.561 18.7596 137.413 20.0712 135.774 20.0712C134.093 20.0712 132.986 18.7186 132.986 17.243Z" fill="#9F2241"/>
<path d="M144.3 15.0294V19.3743H145.611C147.005 19.3743 147.907 18.4315 147.907 17.2429V17.2019C147.907 16.0132 147.046 15.0294 145.611 15.0294H144.3ZM143.685 14.4556H145.611C147.333 14.4556 148.522 15.6443 148.522 17.1609V17.2019C148.522 18.7185 147.333 19.9481 145.611 19.9481H143.685V14.4556Z" fill="#9F2241"/>
<path d="M150.448 14.4556H154.424V15.0294H151.063V16.9149H154.055V17.4478H151.063V19.4153H154.465V19.9481H150.448V14.4556Z" fill="#9F2241"/>
<path d="M159.383 14.4556H159.998V19.4153H163.072V19.9481H159.383V14.4556Z" fill="#9F2241"/>
<path d="M168.442 17.9396L167.213 15.1524L165.983 17.9396H168.442ZM166.885 14.4556H167.458L169.959 19.9891H169.303L168.647 18.5545H165.655L164.999 19.9891H164.343L166.885 14.4556Z" fill="#9F2241"/>
<path d="M88.8 26.6292C88.8 25.0306 89.9887 23.7599 91.6693 23.7599C92.694 23.7599 93.3089 24.1289 93.8417 24.6207L93.0629 25.4815C92.653 25.0716 92.2021 24.8667 91.6693 24.8667C90.7675 24.8667 90.0707 25.6455 90.0707 26.5882V26.6292C90.0707 27.5719 90.7265 28.3507 91.6693 28.3507C92.3251 28.3507 92.694 28.1048 93.1039 27.6949L93.8827 28.4737C93.3089 29.0885 92.694 29.4574 91.6283 29.4574C89.9887 29.4574 88.8 28.1868 88.8 26.6292Z" fill="#9F2241"/>
<path d="M96.0144 23.8831H94.8257V29.3756H96.0144V23.8831Z" fill="#9F2241"/>
<path d="M97.449 27.0411V23.926H98.6377V27.0002C98.6377 27.9019 99.0885 28.3528 99.8263 28.3528C100.564 28.3528 101.015 27.9019 101.015 27.0411V23.926H102.204V27.0002C102.204 28.6807 101.261 29.4595 99.7854 29.4595C98.3507 29.4595 97.449 28.6397 97.449 27.0411Z" fill="#9F2241"/>
<path d="M105.77 28.269C106.753 28.269 107.409 27.6132 107.409 26.6294C107.409 25.6457 106.753 24.9899 105.77 24.9899H104.827V28.31L105.77 28.269ZM103.597 23.8831H105.729C107.45 23.8831 108.639 25.0718 108.639 26.5884V26.6294C108.639 28.146 107.45 29.3757 105.729 29.3757H103.597V23.8831Z" fill="#9F2241"/>
<path d="M112.574 27.0804L111.836 25.3178L111.098 27.0804H112.574ZM111.344 23.8422H112.451L114.788 29.3758H113.517L113.025 28.1461H110.689L110.197 29.3758H108.967L111.344 23.8422Z" fill="#9F2241"/>
<path d="M117.821 28.2689C118.804 28.2689 119.46 27.6131 119.46 26.6293C119.46 25.6456 118.804 24.9898 117.821 24.9898H116.878V28.3099L117.821 28.2689ZM115.648 23.8831H117.78C119.501 23.8831 120.69 25.0717 120.69 26.5883V26.6293C120.69 28.1459 119.501 29.3756 117.78 29.3756H115.648V23.8831Z" fill="#9F2241"/>
<path d="M126.387 28.269C127.371 28.269 128.027 27.6132 128.027 26.6294C128.027 25.6457 127.371 24.9899 126.387 24.9899H125.445V28.31L126.387 28.269ZM124.215 23.8831H126.346C128.068 23.8831 129.257 25.0718 129.257 26.5884V26.6294C129.257 28.146 128.068 29.3757 126.346 29.3757H124.215V23.8831Z" fill="#9F2241"/>
<path d="M130.445 23.8831H134.585V24.9488H131.634V26.0555H134.216V27.1212H131.634V28.3099H134.626V29.3756H130.445V23.8831Z" fill="#9F2241"/>
<path d="M138.11 23.8831H139.422L140.856 26.1784L142.291 23.8831H143.602V29.3756H142.414V25.7686L140.856 28.1049H140.815L139.299 25.8095V29.3756H138.11V23.8831Z" fill="#9F2241"/>
<path d="M147.333 22.0794L148.357 22.5303L147.333 23.473H146.431L147.333 22.0794ZM145.037 23.8829H149.177V24.9486H146.226V26.0554H148.808V27.1211H146.226V28.2688H149.218V29.3345H145.037V23.8829Z" fill="#9F2241"/>
<path d="M151.924 26.5883L150.079 23.8831H151.473L152.62 25.6456L153.809 23.8831H155.162L153.317 26.5474L155.244 29.3756H153.85L152.579 27.4901L151.35 29.3756H149.997L151.924 26.5883Z" fill="#9F2241"/>
<path d="M157.334 23.8831H156.145V29.3756H157.334V23.8831Z" fill="#9F2241"/>
<path d="M158.564 26.6292C158.564 25.0306 159.752 23.7599 161.433 23.7599C162.458 23.7599 163.072 24.1289 163.605 24.6207L162.826 25.4815C162.417 25.0716 161.966 24.8667 161.433 24.8667C160.531 24.8667 159.834 25.6455 159.834 26.5882V26.6292C159.834 27.5719 160.49 28.3507 161.433 28.3507C162.089 28.3507 162.458 28.1048 162.867 27.6949L163.646 28.4737C163.072 29.0885 162.458 29.4574 161.392 29.4574C159.752 29.4574 158.564 28.1868 158.564 26.6292Z" fill="#9F2241"/>
<path d="M168.729 26.6292C168.729 25.6455 168.033 24.9076 167.049 24.9076C166.065 24.9076 165.409 25.6864 165.409 26.6292V26.6702C165.409 27.6129 166.106 28.3917 167.09 28.3917C168.074 28.3507 168.729 27.5719 168.729 26.6292ZM164.18 26.6292C164.18 25.0306 165.409 23.7599 167.09 23.7599C168.77 23.7599 170 25.0306 170 26.5882V26.6292C170 28.1868 168.77 29.4574 167.09 29.4574C165.409 29.4574 164.18 28.1868 164.18 26.6292Z" fill="#9F2241"/>
</svg>
