<svg width="26" height="26" viewBox="0 0 26 26" fill="none" xmlns="http://www.w3.org/2000/svg">
<path d="M24.0719 2.38403H21.612V5.89495C21.612 7.0433 20.7313 7.96151 19.6256 7.96151H18.9994C17.8936 7.96151 17.013 7.04362 17.013 5.89495V2.38403H9.47838V5.89495C9.47838 7.0433 8.5811 7.96151 7.47627 7.96151H6.85002C5.74537 7.96151 4.83047 7.04362 4.83047 5.89495V2.38403H2.0281C1.20128 2.38403 0.525024 3.10569 0.525024 3.96486V24.0128C0.525024 24.8718 1.20124 25.5749 2.0281 25.5749H24.072C24.8988 25.5749 25.575 24.8718 25.575 24.0128V3.96486C25.575 3.10569 24.8988 2.38403 24.072 2.38403H24.0719ZM23.4711 22.321C23.4703 22.6127 23.3539 22.8922 23.1477 23.0984C22.9415 23.3046 22.6619 23.421 22.3703 23.4219H3.72964C3.43801 23.421 3.15841 23.3046 2.95224 23.0984C2.74607 22.8922 2.62969 22.6127 2.62881 22.321V11.0683C2.62968 10.7766 2.74606 10.4971 2.95224 10.2909C3.15843 10.0847 3.43799 9.96832 3.72964 9.96745H22.3703C22.6619 9.96832 22.9415 10.0847 23.1477 10.2909C23.3539 10.4971 23.4702 10.7766 23.4711 11.0683V22.321Z" fill="white"/>
<path d="M6.8501 7.08089H7.47635C8.09772 7.08089 8.59777 6.54273 8.59777 5.89496V1.69665C8.59777 1.05032 8.09767 0.524902 7.47635 0.524902H6.8501C6.22873 0.524902 5.71118 1.05032 5.71118 1.69665V5.8955C5.71118 6.54273 6.22873 7.08089 6.8501 7.08089Z" fill="white"/>
<path d="M18.9994 7.08094H19.6256C20.247 7.08094 20.7314 6.54277 20.7314 5.89501V1.69616C20.7314 1.05032 20.247 0.524902 19.6256 0.524902H18.9994C18.378 0.524902 17.8937 1.05032 17.8937 1.69616V5.89501C17.8937 6.54272 18.378 7.08094 18.9994 7.08094Z" fill="white"/>
<path d="M4.43909 12.1204H8.8424V15.8387H4.43909V12.1204Z" fill="white"/>
<path d="M4.43909 17.551H8.8424V21.2694H4.43909V17.551Z" fill="white"/>
<path d="M10.8484 12.1204H15.2517V15.8387H10.8484V12.1204Z" fill="white"/>
<path d="M10.8484 17.551H15.2517V21.2694H10.8484V17.551Z" fill="white"/>
<path d="M17.4039 12.1204H21.8072V15.8387H17.4039V12.1204Z" fill="white"/>
<path d="M17.4039 17.551H21.8072V21.2694H17.4039V17.551Z" fill="white"/>
</svg>
