<svg width="22" height="24" viewBox="0 0 22 24" fill="none" xmlns="http://www.w3.org/2000/svg">
<path d="M18.9844 2.8125H14.8038L14.3468 1.44197C14.0591 0.579516 13.255 0 12.3459 0H8.74786C7.83872 0 7.03467 0.579516 6.7463 1.44197L6.28978 2.8125H2.10938C0.946219 2.8125 0 3.75872 0 4.92188V6.32812C0 7.11131 0.705047 7.03125 1.4617 7.03125C7.95642 7.03125 13.8449 7.03125 20.3906 7.03125C20.7793 7.03125 21.0938 6.71677 21.0938 6.32812V4.92188C21.0938 3.75872 20.1475 2.8125 18.9844 2.8125ZM7.77248 2.8125L8.08045 1.88691C8.17659 1.59919 8.44505 1.40625 8.74786 1.40625H12.3459C12.6487 1.40625 12.9172 1.59919 13.0126 1.88691L13.3209 2.8125H7.77248Z" fill="#1A202C"/>
<path d="M1.57812 8.53125L2.69923 22.0815C2.7988 23.1753 3.70175 24 4.7997 24H16.2942C17.3921 24 18.2951 23.1753 18.3953 22.0753L19.5158 8.53125H1.57812ZM7.03128 20.4844C7.03128 21.4112 5.62503 21.415 5.62503 20.4844V10.6406C5.62503 9.71377 7.03128 9.70997 7.03128 10.6406V20.4844ZM11.25 20.4844C11.25 21.4112 9.84378 21.415 9.84378 20.4844V10.6406C9.84378 9.71377 11.25 9.70997 11.25 10.6406V20.4844ZM15.4688 20.4844C15.4688 21.4112 14.0625 21.415 14.0625 20.4844V10.6406C14.0625 10.252 14.377 9.9375 14.7657 9.9375C15.1543 9.9375 15.4688 10.252 15.4688 10.6406V20.4844Z" fill="#1A202C"/>
</svg>
