<svg width="30" height="20" viewBox="0 0 30 20" fill="none" xmlns="http://www.w3.org/2000/svg">
<path d="M15 15C12.2386 15 10 12.7614 10 10C10 7.23858 12.2386 5 15 5C17.7614 5 20 7.23858 20 10C20 12.7614 17.7614 15 15 15Z" fill="black"/>
<path d="M0.460117 8.68329C4.01029 4.25888 9.38427 0 14.9999 0C20.6167 0 25.9919 4.26186 29.5397 8.68329C30.1534 9.44778 30.1534 10.5576 29.5397 11.3221C28.6478 12.4337 26.7778 14.5795 24.2803 16.4544C17.9905 21.1766 12.0232 21.1871 5.7195 16.4544C3.22202 14.5795 1.35208 12.4337 0.460117 11.3221C-0.151783 10.5591 -0.154959 9.45028 0.460117 8.68329ZM14.9999 3.33423C11.4344 3.33423 8.53394 6.32551 8.53394 10.0027C8.53394 13.6799 11.4344 16.6711 14.9999 16.6711C18.5655 16.6711 21.4659 13.6799 21.4659 10.0027C21.4659 6.32551 18.5655 3.33423 14.9999 3.33423Z" fill="black"/>
</svg>