<svg width="38" height="35" viewBox="0 0 38 35" fill="none" xmlns="http://www.w3.org/2000/svg">
<path d="M37.7075 31.5045L21.0808 1.22806C20.6583 0.459586 19.88 0 19 0C18.12 0 17.3417 0.459586 16.9192 1.22806L0.29252 31.5045C-0.110266 32.2426 -0.09661 33.113 0.33052 33.8344C0.760694 34.5648 1.52522 35 2.37481 35H35.6251C36.4748 35 37.2393 34.5648 37.6695 33.8344C38.0966 33.113 38.1103 32.2426 37.7075 31.5045ZM18.6246 12.2059C18.7523 12.1846 18.8784 12.1739 19.0031 12.1739C20.0974 12.1739 21.0626 12.9576 21.248 14.0609C21.2921 14.312 21.2875 14.5676 21.248 14.805L19.7493 23.7178C19.687 24.0861 19.3648 24.3478 19.0015 24.3478C18.9605 24.3478 18.9164 24.3447 18.8753 24.3372C18.5455 24.2824 18.3023 24.0267 18.2506 23.7178L16.752 14.805C16.5438 13.5739 17.3843 12.4098 18.6246 12.2059ZM19 30.4348C17.743 30.4348 16.7201 29.4107 16.7201 28.1521C16.7201 26.8936 17.743 25.8695 19 25.8695C20.2571 25.8695 21.2799 26.8937 21.2799 28.1521C21.2799 29.4106 20.257 30.4348 19 30.4348Z" fill="#9F2241"/>
</svg>
