<svg width="24" height="24" viewBox="0 0 24 24" fill="none" xmlns="http://www.w3.org/2000/svg">
<path d="M17.8846 14.3566H6.11572C5.72736 14.3566 5.41113 14.6727 5.41113 15.0612V22.4644C5.41113 22.8529 5.72736 23.1689 6.11572 23.1689H17.8846C18.273 23.1689 18.5892 22.8529 18.5892 22.4644V15.0612C18.5892 14.6727 18.273 14.3566 17.8846 14.3566ZM15.2311 20.8431H8.76929C8.38019 20.8431 8.0647 20.5276 8.0647 20.1385C8.0647 19.7495 8.38019 19.434 8.76929 19.434H15.2311C15.6202 19.434 15.9357 19.7495 15.9357 20.1385C15.9357 20.5276 15.6202 20.8431 15.2311 20.8431ZM15.2311 17.9777H8.76929C8.38019 17.9777 8.0647 17.6622 8.0647 17.2729C8.0647 16.8839 8.38019 16.5684 8.76929 16.5684H15.2311C15.6202 16.5684 15.9357 16.8839 15.9357 17.2729C15.9357 17.6622 15.6202 17.9777 15.2311 17.9777Z" fill="white"/>
<path d="M0 18.2015C0 19.507 1.06219 20.5692 2.36774 20.5692H4.00177V15.0612C4.00177 13.8956 4.95007 12.9473 6.11554 12.9473H17.8845C19.0499 12.9473 19.9982 13.8956 19.9982 15.0612V20.5692H21.6324C22.938 20.5692 24 19.507 24 18.2015V11.8679H0V18.2015Z" fill="white"/>
<path d="M21.6329 8.11401H2.36816C1.07031 8.11401 0.0136108 9.16376 0.000976562 10.4585H23.9999C23.9872 9.16376 22.9305 8.11401 21.6329 8.11401Z" fill="white"/>
<path d="M18.8777 1.5484C18.8777 1.15985 18.5616 0.843811 18.1731 0.843811H5.82666C5.43829 0.843811 5.12207 1.15985 5.12207 1.5484V6.70483H18.8777V1.5484Z" fill="white"/>
</svg>
