<?xml version="1.0" encoding="UTF-8"?>
<svg xmlns="http://www.w3.org/2000/svg" xmlns:xlink="http://www.w3.org/1999/xlink" viewBox="0 0 80 80" width="80px" height="80px">
<g id="surface113303008">
<path style=" stroke:none;fill-rule:nonzero;fill:rgb(29.803923%,33.333334%,40.000001%);fill-opacity:1;" d="M 7.207031 71.5 L 12.867188 65.839844 L 12.539062 65.488281 C 6.0625 58.535156 2.5 49.480469 2.5 40 C 2.5 19.320312 19.320312 2.5 40 2.5 C 41.695312 2.5 43.5 2.644531 45.5 2.949219 L 45.5 12.046875 C 43.660156 11.683594 41.8125 11.5 40 11.5 C 24.285156 11.5 11.5 24.285156 11.5 40 C 11.5 47.03125 14.128906 53.804688 18.898438 59.066406 L 19.253906 59.453125 L 25.5 53.207031 L 25.5 71.5 Z M 7.207031 71.5 "/>
<path style=" stroke:none;fill-rule:nonzero;fill:rgb(20%,20%,20%);fill-opacity:1;" d="M 40 3 C 41.550781 3 43.191406 3.125 45 3.378906 L 45 11.445312 C 43.324219 11.148438 41.648438 11 40 11 C 24.007812 11 11 24.007812 11 40 C 11 47.15625 13.675781 54.046875 18.527344 59.402344 L 19.234375 60.179688 L 25 54.414062 L 25 71 L 8.414062 71 L 13.558594 65.855469 L 12.902344 65.148438 C 6.515625 58.285156 3 49.355469 3 40 C 3 19.597656 19.597656 3 40 3 M 40 2 C 19.011719 2 2 19.011719 2 40 C 2 49.988281 5.867188 59.054688 12.171875 65.828125 L 6 72 L 26 72 L 26 52 L 19.269531 58.730469 C 14.773438 53.769531 12 47.222656 12 40 C 12 24.535156 24.535156 12 40 12 C 42.0625 12 44.066406 12.238281 46 12.660156 L 46 2.519531 C 44.039062 2.207031 42.046875 2 40 2 Z M 40 2 "/>
<path style=" stroke:none;fill-rule:nonzero;fill:rgb(29.803923%,33.333334%,40.000001%);fill-opacity:1;" d="M 40 77.5 C 38.304688 77.5 36.5 77.355469 34.5 77.050781 L 34.5 67.953125 C 36.339844 68.316406 38.1875 68.5 40 68.5 C 55.714844 68.5 68.5 55.714844 68.5 40 C 68.5 32.957031 65.875 26.183594 61.109375 20.925781 L 60.757812 20.535156 L 54.5 26.792969 L 54.5 8.5 L 72.792969 8.5 L 67.117188 14.175781 L 67.445312 14.527344 C 73.929688 21.496094 77.5 30.539062 77.5 40 C 77.5 60.679688 60.679688 77.5 40 77.5 Z M 40 77.5 "/>
<path style=" stroke:none;fill-rule:nonzero;fill:rgb(20%,20%,20%);fill-opacity:1;" d="M 71.585938 9 L 66.421875 14.164062 L 67.078125 14.867188 C 73.476562 21.742188 77 30.667969 77 40 C 77 60.402344 60.402344 77 40 77 C 38.449219 77 36.808594 76.875 35 76.621094 L 35 68.554688 C 36.675781 68.851562 38.351562 69 40 69 C 55.992188 69 69 55.992188 69 40 C 69 32.832031 66.328125 25.9375 61.480469 20.589844 L 60.773438 19.8125 L 55 25.585938 L 55 9 L 71.585938 9 M 74 8 L 54 8 L 54 28 L 60.738281 21.261719 C 65.234375 26.222656 68 32.777344 68 40 C 68 55.464844 55.464844 68 40 68 C 37.9375 68 35.933594 67.761719 34 67.339844 L 34 77.480469 C 35.960938 77.792969 37.953125 78 40 78 C 60.988281 78 78 60.988281 78 40 C 78 30.011719 74.117188 20.960938 67.8125 14.1875 Z M 74 8 "/>
</g>
</svg>
