<svg width="42" height="42" viewBox="0 0 42 42" fill="none" xmlns="http://www.w3.org/2000/svg">
<circle cx="21" cy="21" r="21" fill="#E8D9C8"/>
<path d="M21 6C12.7287 6 6 12.7287 6 21C6 29.2713 12.7287 36 21 36C29.2713 36 36 29.2713 36 21C36 12.7287 29.2713 6 21 6Z" fill="#B18147"/>
<path d="M27.9974 17.8021L19.8723 25.9269C19.6285 26.1707 19.3086 26.2934 18.9886 26.2934C18.6686 26.2934 18.3486 26.1707 18.1049 25.9269L14.0424 21.8645C13.5536 21.3758 13.5536 20.5857 14.0424 20.0971C14.5311 19.6082 15.321 19.6082 15.8099 20.0971L18.9886 23.2758L26.2299 16.0346C26.7186 15.5457 27.5085 15.5457 27.9974 16.0346C28.486 16.5233 28.486 17.3132 27.9974 17.8021Z" fill="white"/>
</svg>
