<svg width="26" height="26" viewBox="0 0 26 26" fill="none" xmlns="http://www.w3.org/2000/svg">
<path d="M12.9153 0.80249C6.02266 0.80249 0.415283 6.40987 0.415283 13.3025C0.415283 20.1951 6.02266 25.8025 12.9153 25.8025C19.8079 25.8025 25.4153 20.1951 25.4153 13.3025C25.4153 6.40987 19.8079 0.80249 12.9153 0.80249ZM14.2008 20.2847H11.4158V17.6856H14.2008V20.2847ZM16.0098 13.2353C15.188 13.847 14.3095 14.344 14.1377 15.4705V16.1973H11.5587V15.3377C11.6729 13.6749 12.4563 12.9304 13.2205 12.338C13.9656 11.7462 14.615 11.3071 14.615 10.2749C14.615 9.10932 14.0041 8.5555 12.9918 8.5555C11.6166 8.5555 11.0434 9.68255 11.0238 11.0391H8.21556C8.27321 8.30741 10.0688 6.32052 12.8576 6.32052C16.4683 6.32052 17.615 8.53664 17.615 10.0069C17.615 11.8604 16.8317 12.6055 16.0098 13.2353Z" fill="white"/>
</svg>
