<svg width="234" height="20" viewBox="0 0 234 20" fill="none" xmlns="http://www.w3.org/2000/svg">
<path d="M12.9491 5.53947V16.1943H15.5598V1.33695H12.7793L8.25845 8.36237L3.73756 1.33695H0.95711V16.1943H3.52531V5.58192L8.17355 12.5437H8.25845L12.9491 5.53947ZM21.8883 3.26841V0.827556H19.129V3.26841H21.8883ZM21.8034 16.1943V4.98762H19.2352V16.1943H21.8034ZM43.1118 10.591C43.1118 6.85541 40.5436 4.75415 37.8905 4.75415C36.0864 4.75415 34.919 5.68804 34.0912 6.85541V0.700208H31.523V16.1943H34.0912V14.4539C34.8765 15.4939 36.0439 16.4278 37.8905 16.4278C40.5648 16.4278 43.1118 14.3266 43.1118 10.591ZM40.5011 10.591C40.5011 12.8196 39.0578 14.1992 37.2962 14.1992C35.5557 14.1992 34.0276 12.7771 34.0276 10.591C34.0276 8.40482 35.5557 6.98276 37.2962 6.98276C39.0366 6.98276 40.5011 8.3836 40.5011 10.591ZM47.6947 11.5036H55.9299C55.9512 11.2489 55.9724 11.0367 55.9724 10.8032C55.9724 7.55583 54.1683 4.75415 50.6025 4.75415C47.3975 4.75415 45.1265 7.38603 45.1265 10.6122C45.1265 14.0931 47.631 16.449 50.8784 16.449C52.9372 16.449 54.4017 15.6213 55.463 14.3478L53.956 13.0106C53.0646 13.8808 52.1731 14.3478 50.9209 14.3478C49.2653 14.3478 47.9918 13.329 47.6947 11.5036ZM47.6735 9.80566C47.9069 8.06522 49.0106 6.85541 50.5813 6.85541C52.2793 6.85541 53.2556 8.15012 53.4254 9.80566H47.6735ZM68.3149 14.3478L66.7655 12.8196C65.959 13.6474 65.0675 14.2204 63.8577 14.2204C61.8838 14.2204 60.5042 12.6073 60.5042 10.591C60.5042 8.61707 61.8626 7.00398 63.7304 7.00398C65.0251 7.00398 65.8529 7.57705 66.6382 8.40482L68.23 6.68561C67.19 5.53947 65.8741 4.75415 63.7516 4.75415C60.3981 4.75415 57.936 7.42848 57.936 10.6334C57.936 13.8384 60.3981 16.449 63.7304 16.449C65.9165 16.449 67.2113 15.5788 68.3149 14.3478ZM80.0796 16.1943V9.55096C80.0796 6.55826 78.4666 4.81783 75.1555 4.81783C73.3301 4.81783 72.1203 5.19987 70.8893 5.75172L71.5897 7.81053C72.6085 7.38603 73.5424 7.11011 74.7947 7.11011C76.5775 7.11011 77.5539 7.9591 77.5539 9.50851V9.78444C76.6837 9.50851 75.8134 9.31749 74.4551 9.31749C71.8444 9.31749 69.9129 10.5061 69.9129 12.9257V12.9682C69.9129 15.218 71.7807 16.4278 73.9032 16.4278C75.6012 16.4278 76.7686 15.7274 77.5327 14.8147V16.1943H80.0796ZM77.5963 12.1404C77.5963 13.5412 76.3228 14.4963 74.6249 14.4963C73.415 14.4963 72.4599 13.9021 72.4599 12.8408V12.7984C72.4599 11.6522 73.415 10.9943 75.0281 10.9943C76.0257 10.9943 76.9384 11.1853 77.5963 11.44V12.1404ZM101.086 10.591C101.086 6.85541 98.518 4.75415 95.8649 4.75415C94.0608 4.75415 92.8935 5.68804 92.0657 6.85541V4.98762H89.4975V19.5903H92.0657V14.4539C92.851 15.4939 94.0184 16.4278 95.8649 16.4278C98.5393 16.4278 101.086 14.3266 101.086 10.591ZM98.4756 10.591C98.4756 12.8196 97.0323 14.1992 95.2706 14.1992C93.5302 14.1992 92.002 12.7771 92.002 10.591C92.002 8.40482 93.5302 6.98276 95.2706 6.98276C97.0111 6.98276 98.4756 8.3836 98.4756 10.591ZM113.119 16.1943V9.55096C113.119 6.55826 111.506 4.81783 108.195 4.81783C106.37 4.81783 105.16 5.19987 103.929 5.75172L104.629 7.81053C105.648 7.38603 106.582 7.11011 107.834 7.11011C109.617 7.11011 110.593 7.9591 110.593 9.50851V9.78444C109.723 9.50851 108.853 9.31749 107.494 9.31749C104.884 9.31749 102.952 10.5061 102.952 12.9257V12.9682C102.952 15.218 104.82 16.4278 106.943 16.4278C108.641 16.4278 109.808 15.7274 110.572 14.8147V16.1943H113.119ZM110.636 12.1404C110.636 13.5412 109.362 14.4963 107.664 14.4963C106.454 14.4963 105.499 13.9021 105.499 12.8408V12.7984C105.499 11.6522 106.454 10.9943 108.068 10.9943C109.065 10.9943 109.978 11.1853 110.636 11.44V12.1404ZM118.742 11.9281C118.742 8.95667 120.312 7.49215 122.562 7.49215H122.711V4.77538C120.737 4.69048 119.442 5.83662 118.742 7.51338V4.98762H116.174V16.1943H118.742V11.9281ZM133.805 16.1943V9.55096C133.805 6.55826 132.192 4.81783 128.881 4.81783C127.055 4.81783 125.846 5.19987 124.615 5.75172L125.315 7.81053C126.334 7.38603 127.268 7.11011 128.52 7.11011C130.303 7.11011 131.279 7.9591 131.279 9.50851V9.78444C130.409 9.50851 129.539 9.31749 128.18 9.31749C125.57 9.31749 123.638 10.5061 123.638 12.9257V12.9682C123.638 15.218 125.506 16.4278 127.629 16.4278C129.327 16.4278 130.494 15.7274 131.258 14.8147V16.1943H133.805ZM131.322 12.1404C131.322 13.5412 130.048 14.4963 128.35 14.4963C127.14 14.4963 126.185 13.9021 126.185 12.8408V12.7984C126.185 11.6522 127.14 10.9943 128.753 10.9943C129.751 10.9943 130.664 11.1853 131.322 11.44V12.1404ZM145.176 11.5036H153.411C153.432 11.2489 153.453 11.0367 153.453 10.8032C153.453 7.55583 151.649 4.75415 148.083 4.75415C144.878 4.75415 142.607 7.38603 142.607 10.6122C142.607 14.0931 145.112 16.449 148.359 16.449C150.418 16.449 151.883 15.6213 152.944 14.3478L151.437 13.0106C150.545 13.8808 149.654 14.3478 148.402 14.3478C146.746 14.3478 145.473 13.329 145.176 11.5036ZM145.154 9.80566C145.388 8.06522 146.491 6.85541 148.062 6.85541C149.76 6.85541 150.736 8.15012 150.906 9.80566H145.154ZM165.35 6.72806C164.756 5.53947 163.631 4.75415 162.018 4.75415C160.299 4.75415 159.322 5.68804 158.601 6.68561V4.98762H156.032V16.1943H158.601V9.89056C158.601 8.15012 159.577 7.08888 160.999 7.08888C162.421 7.08888 163.27 8.06522 163.27 9.80566V16.1943H165.838V9.86934C165.838 8.06522 166.836 7.08888 168.237 7.08888C169.68 7.08888 170.508 8.044 170.508 9.82689V16.1943H173.076V9.04157C173.076 6.30356 171.59 4.75415 169.149 4.75415C167.451 4.75415 166.263 5.53947 165.35 6.72806ZM187.789 10.591C187.789 6.85541 185.221 4.75415 182.568 4.75415C180.763 4.75415 179.596 5.68804 178.768 6.85541V4.98762H176.2V19.5903H178.768V14.4539C179.554 15.4939 180.721 16.4278 182.568 16.4278C185.242 16.4278 187.789 14.3266 187.789 10.591ZM185.178 10.591C185.178 12.8196 183.735 14.1992 181.973 14.1992C180.233 14.1992 178.705 12.7771 178.705 10.591C178.705 8.40482 180.233 6.98276 181.973 6.98276C183.714 6.98276 185.178 8.3836 185.178 10.591ZM192.372 11.5036H200.607C200.628 11.2489 200.649 11.0367 200.649 10.8032C200.649 7.55583 198.845 4.75415 195.28 4.75415C192.075 4.75415 189.804 7.38603 189.804 10.6122C189.804 14.0931 192.308 16.449 195.555 16.449C197.614 16.449 199.079 15.6213 200.14 14.3478L198.633 13.0106C197.742 13.8808 196.85 14.3478 195.598 14.3478C193.942 14.3478 192.669 13.329 192.372 11.5036ZM192.351 9.80566C192.584 8.06522 193.688 6.85541 195.258 6.85541C196.956 6.85541 197.933 8.15012 198.102 9.80566H192.351ZM208.882 7.08888L202.408 14.4327V16.1943H212.151V14.0931H205.677L212.151 6.74928V4.98762H202.642V7.08888H208.882ZM224.197 16.1943V9.55096C224.197 6.55826 222.584 4.81783 219.273 4.81783C217.448 4.81783 216.238 5.19987 215.007 5.75172L215.707 7.81053C216.726 7.38603 217.66 7.11011 218.912 7.11011C220.695 7.11011 221.671 7.9591 221.671 9.50851V9.78444C220.801 9.50851 219.931 9.31749 218.573 9.31749C215.962 9.31749 214.03 10.5061 214.03 12.9257V12.9682C214.03 15.218 215.898 16.4278 218.021 16.4278C219.719 16.4278 220.886 15.7274 221.65 14.8147V16.1943H224.197ZM221.714 12.1404C221.714 13.5412 220.44 14.4963 218.742 14.4963C217.532 14.4963 216.577 13.9021 216.577 12.8408V12.7984C216.577 11.6522 217.532 10.9943 219.146 10.9943C220.143 10.9943 221.056 11.1853 221.714 11.44V12.1404ZM229.82 11.9281C229.82 8.95667 231.39 7.49215 233.64 7.49215H233.789V4.77538C231.815 4.69048 230.52 5.83662 229.82 7.51338V4.98762H227.252V16.1943H229.82V11.9281Z" fill="#BC955C"/>
</svg>
