<svg width="213" height="68" viewBox="0 0 213 68" fill="none" xmlns="http://www.w3.org/2000/svg">
<g filter="url(#filter0_d_534_15232)">
<rect x="4" width="205" height="60" rx="16.1973" fill="#FAFAFA"/>
<rect x="5.5" y="1.5" width="202" height="57" rx="14.6973" stroke="#235B4E" stroke-width="3"/>
</g>
<path d="M97.6051 24V12.3636H102.196C103.075 12.3636 103.825 12.5208 104.446 12.8352C105.071 13.1458 105.546 13.5871 105.872 14.1591C106.202 14.7273 106.366 15.3958 106.366 16.1648C106.366 16.9375 106.2 17.6023 105.866 18.1591C105.533 18.7121 105.05 19.1364 104.418 19.4318C103.789 19.7273 103.027 19.875 102.134 19.875H99.0597V17.8977H101.736C102.205 17.8977 102.596 17.8333 102.906 17.7045C103.217 17.5758 103.448 17.3826 103.599 17.125C103.755 16.8674 103.832 16.5473 103.832 16.1648C103.832 15.7784 103.755 15.4527 103.599 15.1875C103.448 14.9223 103.215 14.7216 102.901 14.5852C102.59 14.4451 102.198 14.375 101.724 14.375H100.065V24H97.6051ZM103.889 18.7045L106.781 24H104.065L101.236 18.7045H103.889ZM111.896 24.1705C110.999 24.1705 110.226 23.9886 109.578 23.625C108.934 23.2576 108.438 22.7386 108.089 22.0682C107.741 21.3939 107.567 20.5966 107.567 19.6761C107.567 18.7784 107.741 17.9905 108.089 17.3125C108.438 16.6345 108.929 16.1061 109.561 15.7273C110.197 15.3485 110.944 15.1591 111.8 15.1591C112.375 15.1591 112.911 15.2519 113.408 15.4375C113.908 15.6193 114.343 15.8939 114.714 16.2614C115.089 16.6288 115.381 17.0909 115.589 17.6477C115.798 18.2008 115.902 18.8485 115.902 19.5909V20.2557H108.533V18.7557H113.624C113.624 18.4072 113.548 18.0985 113.396 17.8295C113.245 17.5606 113.035 17.3504 112.766 17.1989C112.5 17.0436 112.192 16.9659 111.839 16.9659C111.472 16.9659 111.146 17.0511 110.862 17.2216C110.582 17.3883 110.362 17.6136 110.203 17.8977C110.044 18.178 109.963 18.4905 109.959 18.8352V20.2614C109.959 20.6932 110.038 21.0663 110.197 21.3807C110.36 21.6951 110.589 21.9375 110.885 22.108C111.18 22.2784 111.531 22.3636 111.936 22.3636C112.205 22.3636 112.451 22.3258 112.675 22.25C112.898 22.1742 113.089 22.0606 113.249 21.9091C113.408 21.7576 113.529 21.572 113.612 21.3523L115.851 21.5C115.737 22.0379 115.504 22.5076 115.152 22.9091C114.804 23.3068 114.353 23.6174 113.8 23.8409C113.25 24.0606 112.616 24.1705 111.896 24.1705ZM121.459 24.1705C120.561 24.1705 119.788 23.9886 119.141 23.625C118.497 23.2576 118 22.7386 117.652 22.0682C117.304 21.3939 117.129 20.5966 117.129 19.6761C117.129 18.7784 117.304 17.9905 117.652 17.3125C118 16.6345 118.491 16.1061 119.124 15.7273C119.76 15.3485 120.506 15.1591 121.362 15.1591C121.938 15.1591 122.474 15.2519 122.97 15.4375C123.47 15.6193 123.906 15.8939 124.277 16.2614C124.652 16.6288 124.944 17.0909 125.152 17.6477C125.36 18.2008 125.464 18.8485 125.464 19.5909V20.2557H118.095V18.7557H123.186C123.186 18.4072 123.11 18.0985 122.959 17.8295C122.807 17.5606 122.597 17.3504 122.328 17.1989C122.063 17.0436 121.754 16.9659 121.402 16.9659C121.035 16.9659 120.709 17.0511 120.425 17.2216C120.144 17.3883 119.925 17.6136 119.766 17.8977C119.607 18.178 119.525 18.4905 119.521 18.8352V20.2614C119.521 20.6932 119.601 21.0663 119.76 21.3807C119.923 21.6951 120.152 21.9375 120.447 22.108C120.743 22.2784 121.093 22.3636 121.499 22.3636C121.768 22.3636 122.014 22.3258 122.237 22.25C122.461 22.1742 122.652 22.0606 122.811 21.9091C122.97 21.7576 123.091 21.572 123.175 21.3523L125.413 21.5C125.3 22.0379 125.067 22.5076 124.714 22.9091C124.366 23.3068 123.915 23.6174 123.362 23.8409C122.813 24.0606 122.179 24.1705 121.459 24.1705ZM127.044 24V15.2727H129.351V16.8125H129.453C129.635 16.3011 129.938 15.8977 130.362 15.6023C130.786 15.3068 131.294 15.1591 131.885 15.1591C132.483 15.1591 132.993 15.3087 133.413 15.608C133.834 15.9034 134.114 16.3049 134.254 16.8125H134.345C134.523 16.3125 134.845 15.9129 135.311 15.6136C135.781 15.3106 136.336 15.1591 136.976 15.1591C137.79 15.1591 138.451 15.4186 138.959 15.9375C139.47 16.4527 139.726 17.1837 139.726 18.1307V24H137.311V18.608C137.311 18.1231 137.182 17.7595 136.925 17.517C136.667 17.2746 136.345 17.1534 135.959 17.1534C135.519 17.1534 135.177 17.2936 134.93 17.5739C134.684 17.8504 134.561 18.2159 134.561 18.6705V24H132.214V18.5568C132.214 18.1288 132.091 17.7879 131.845 17.5341C131.603 17.2803 131.283 17.1534 130.885 17.1534C130.616 17.1534 130.374 17.2216 130.158 17.358C129.946 17.4905 129.777 17.678 129.652 17.9205C129.527 18.1591 129.464 18.4394 129.464 18.7614V24H127.044ZM141.638 27.2727V15.2727H144.024V16.7386H144.132C144.238 16.5038 144.392 16.2652 144.592 16.0227C144.797 15.7765 145.062 15.572 145.388 15.4091C145.717 15.2424 146.126 15.1591 146.615 15.1591C147.251 15.1591 147.839 15.3258 148.376 15.6591C148.914 15.9886 149.344 16.4867 149.666 17.1534C149.988 17.8163 150.149 18.6477 150.149 19.6477C150.149 20.6212 149.992 21.4432 149.678 22.1136C149.367 22.7803 148.943 23.286 148.405 23.6307C147.871 23.9716 147.272 24.142 146.609 24.142C146.14 24.142 145.74 24.0644 145.411 23.9091C145.085 23.7538 144.818 23.5587 144.609 23.3239C144.401 23.0852 144.242 22.8447 144.132 22.6023H144.058V27.2727H141.638ZM144.007 19.6364C144.007 20.1553 144.079 20.608 144.223 20.9943C144.367 21.3807 144.575 21.6818 144.848 21.8977C145.121 22.1098 145.452 22.2159 145.842 22.2159C146.236 22.2159 146.57 22.108 146.842 21.892C147.115 21.6723 147.321 21.3693 147.462 20.983C147.606 20.5928 147.678 20.1439 147.678 19.6364C147.678 19.1326 147.607 18.6894 147.467 18.3068C147.327 17.9242 147.121 17.625 146.848 17.4091C146.575 17.1932 146.24 17.0852 145.842 17.0852C145.448 17.0852 145.115 17.1894 144.842 17.3977C144.573 17.6061 144.367 17.9015 144.223 18.2841C144.079 18.6667 144.007 19.1174 144.007 19.6364ZM154.183 12.3636V24H151.763V12.3636H154.183ZM158.611 24.1648C158.054 24.1648 157.558 24.0682 157.122 23.875C156.687 23.678 156.342 23.3883 156.088 23.0057C155.838 22.6193 155.713 22.1383 155.713 21.5625C155.713 21.0777 155.802 20.6705 155.98 20.3409C156.158 20.0114 156.401 19.7462 156.707 19.5455C157.014 19.3447 157.363 19.1932 157.753 19.0909C158.147 18.9886 158.56 18.9167 158.991 18.875C159.499 18.822 159.908 18.7727 160.219 18.7273C160.529 18.678 160.755 18.6061 160.895 18.5114C161.035 18.4167 161.105 18.2765 161.105 18.0909V18.0568C161.105 17.697 160.991 17.4186 160.764 17.2216C160.541 17.0246 160.223 16.9261 159.81 16.9261C159.374 16.9261 159.027 17.0227 158.77 17.2159C158.512 17.4053 158.342 17.6439 158.259 17.9318L156.02 17.75C156.134 17.2197 156.357 16.7614 156.69 16.375C157.024 15.9848 157.454 15.6856 157.98 15.4773C158.51 15.2652 159.124 15.1591 159.821 15.1591C160.306 15.1591 160.77 15.2159 161.213 15.3295C161.66 15.4432 162.056 15.6193 162.401 15.858C162.749 16.0966 163.024 16.4034 163.224 16.7784C163.425 17.1496 163.526 17.5947 163.526 18.1136V24H161.23V22.7898H161.162C161.022 23.0625 160.834 23.303 160.599 23.5114C160.365 23.7159 160.082 23.8769 159.753 23.9943C159.423 24.108 159.043 24.1648 158.611 24.1648ZM159.304 22.4943C159.66 22.4943 159.974 22.4242 160.247 22.2841C160.52 22.1402 160.734 21.947 160.889 21.7045C161.045 21.4621 161.122 21.1875 161.122 20.8807V19.9545C161.046 20.0038 160.942 20.0492 160.81 20.0909C160.681 20.1288 160.535 20.1648 160.372 20.1989C160.209 20.2292 160.046 20.2576 159.884 20.2841C159.721 20.3068 159.573 20.3277 159.44 20.3466C159.156 20.3883 158.908 20.4545 158.696 20.5455C158.484 20.6364 158.319 20.7595 158.202 20.9148C158.084 21.0663 158.026 21.2557 158.026 21.483C158.026 21.8125 158.145 22.0644 158.384 22.2386C158.626 22.4091 158.933 22.4943 159.304 22.4943ZM165.358 24V22.5568L169.631 17.267V17.2045H165.506V15.2727H172.545V16.8466L168.534 22.0057V22.0682H172.693V24H165.358ZM177.033 24.1648C176.476 24.1648 175.98 24.0682 175.544 23.875C175.108 23.678 174.764 23.3883 174.51 23.0057C174.26 22.6193 174.135 22.1383 174.135 21.5625C174.135 21.0777 174.224 20.6705 174.402 20.3409C174.58 20.0114 174.822 19.7462 175.129 19.5455C175.436 19.3447 175.785 19.1932 176.175 19.0909C176.569 18.9886 176.982 18.9167 177.413 18.875C177.921 18.822 178.33 18.7727 178.641 18.7273C178.951 18.678 179.177 18.6061 179.317 18.5114C179.457 18.4167 179.527 18.2765 179.527 18.0909V18.0568C179.527 17.697 179.413 17.4186 179.186 17.2216C178.963 17.0246 178.644 16.9261 178.232 16.9261C177.796 16.9261 177.449 17.0227 177.192 17.2159C176.934 17.4053 176.764 17.6439 176.68 17.9318L174.442 17.75C174.555 17.2197 174.779 16.7614 175.112 16.375C175.446 15.9848 175.875 15.6856 176.402 15.4773C176.932 15.2652 177.546 15.1591 178.243 15.1591C178.728 15.1591 179.192 15.2159 179.635 15.3295C180.082 15.4432 180.478 15.6193 180.822 15.858C181.171 16.0966 181.446 16.4034 181.646 16.7784C181.847 17.1496 181.947 17.5947 181.947 18.1136V24H179.652V22.7898H179.584C179.444 23.0625 179.256 23.303 179.021 23.5114C178.786 23.7159 178.504 23.8769 178.175 23.9943C177.845 24.108 177.464 24.1648 177.033 24.1648ZM177.726 22.4943C178.082 22.4943 178.396 22.4242 178.669 22.2841C178.942 22.1402 179.156 21.947 179.311 21.7045C179.466 21.4621 179.544 21.1875 179.544 20.8807V19.9545C179.468 20.0038 179.364 20.0492 179.232 20.0909C179.103 20.1288 178.957 20.1648 178.794 20.1989C178.631 20.2292 178.468 20.2576 178.305 20.2841C178.143 20.3068 177.995 20.3277 177.862 20.3466C177.578 20.3883 177.33 20.4545 177.118 20.5455C176.906 20.6364 176.741 20.7595 176.624 20.9148C176.506 21.0663 176.447 21.2557 176.447 21.483C176.447 21.8125 176.567 22.0644 176.805 22.2386C177.048 22.4091 177.355 22.4943 177.726 22.4943ZM183.825 24V15.2727H186.172V16.7955H186.263C186.422 16.2538 186.689 15.8447 187.064 15.5682C187.439 15.2879 187.871 15.1477 188.359 15.1477C188.481 15.1477 188.611 15.1553 188.751 15.1705C188.892 15.1856 189.015 15.2064 189.121 15.233V17.3807C189.007 17.3466 188.85 17.3163 188.649 17.2898C188.448 17.2633 188.265 17.25 188.098 17.25C187.742 17.25 187.424 17.3277 187.143 17.483C186.867 17.6345 186.647 17.8466 186.484 18.1193C186.325 18.392 186.246 18.7064 186.246 19.0625V24H183.825ZM122.874 38.2727V40.0909H117.618V38.2727H122.874ZM118.811 36.1818H121.232V44.3182C121.232 44.5417 121.266 44.7159 121.334 44.8409C121.402 44.9621 121.497 45.0473 121.618 45.0966C121.743 45.1458 121.887 45.1705 122.05 45.1705C122.163 45.1705 122.277 45.161 122.391 45.142C122.504 45.1193 122.591 45.1023 122.652 45.0909L123.033 46.892C122.911 46.9299 122.741 46.9735 122.521 47.0227C122.302 47.0758 122.035 47.108 121.72 47.1193C121.137 47.142 120.625 47.0644 120.186 46.8864C119.75 46.7083 119.411 46.4318 119.169 46.0568C118.927 45.6818 118.807 45.2083 118.811 44.6364V36.1818ZM126.939 47.1648C126.382 47.1648 125.886 47.0682 125.45 46.875C125.015 46.678 124.67 46.3883 124.416 46.0057C124.166 45.6193 124.041 45.1383 124.041 44.5625C124.041 44.0777 124.13 43.6705 124.308 43.3409C124.486 43.0114 124.729 42.7462 125.036 42.5455C125.342 42.3447 125.691 42.1932 126.081 42.0909C126.475 41.9886 126.888 41.9167 127.32 41.875C127.827 41.822 128.236 41.7727 128.547 41.7273C128.857 41.678 129.083 41.6061 129.223 41.5114C129.363 41.4167 129.433 41.2765 129.433 41.0909V41.0568C129.433 40.697 129.32 40.4186 129.092 40.2216C128.869 40.0246 128.551 39.9261 128.138 39.9261C127.702 39.9261 127.356 40.0227 127.098 40.2159C126.84 40.4053 126.67 40.6439 126.587 40.9318L124.348 40.75C124.462 40.2197 124.685 39.7614 125.018 39.375C125.352 38.9848 125.782 38.6856 126.308 38.4773C126.839 38.2652 127.452 38.1591 128.149 38.1591C128.634 38.1591 129.098 38.2159 129.541 38.3295C129.988 38.4432 130.384 38.6193 130.729 38.858C131.077 39.0966 131.352 39.4034 131.553 39.7784C131.753 40.1496 131.854 40.5947 131.854 41.1136V47H129.558V45.7898H129.49C129.35 46.0625 129.162 46.303 128.928 46.5114C128.693 46.7159 128.411 46.8769 128.081 46.9943C127.751 47.108 127.371 47.1648 126.939 47.1648ZM127.632 45.4943C127.988 45.4943 128.303 45.4242 128.575 45.2841C128.848 45.1402 129.062 44.947 129.217 44.7045C129.373 44.4621 129.45 44.1875 129.45 43.8807V42.9545C129.375 43.0038 129.27 43.0492 129.138 43.0909C129.009 43.1288 128.863 43.1648 128.7 43.1989C128.537 43.2292 128.375 43.2576 128.212 43.2841C128.049 43.3068 127.901 43.3277 127.768 43.3466C127.484 43.3883 127.236 43.4545 127.024 43.5455C126.812 43.6364 126.647 43.7595 126.53 43.9148C126.412 44.0663 126.354 44.2557 126.354 44.483C126.354 44.8125 126.473 45.0644 126.712 45.2386C126.954 45.4091 127.261 45.4943 127.632 45.4943ZM133.732 47V38.2727H136.078V39.7955H136.169C136.328 39.2538 136.595 38.8447 136.97 38.5682C137.345 38.2879 137.777 38.1477 138.266 38.1477C138.387 38.1477 138.518 38.1553 138.658 38.1705C138.798 38.1856 138.921 38.2064 139.027 38.233V40.3807C138.913 40.3466 138.756 40.3163 138.555 40.2898C138.355 40.2633 138.171 40.25 138.004 40.25C137.648 40.25 137.33 40.3277 137.05 40.483C136.773 40.6345 136.554 40.8466 136.391 41.1193C136.232 41.392 136.152 41.7064 136.152 42.0625V47H133.732ZM140.278 38.2727H142.699V47.4318C142.699 48.1061 142.566 48.6515 142.301 49.0682C142.036 49.4848 141.655 49.7898 141.159 49.983C140.667 50.1761 140.078 50.2727 139.392 50.2727C139.309 50.2727 139.229 50.2708 139.153 50.267C139.074 50.267 138.991 50.2652 138.903 50.2614V48.3693C138.968 48.3731 139.025 48.375 139.074 48.375C139.119 48.3788 139.169 48.3807 139.222 48.3807C139.612 48.3807 139.884 48.2973 140.04 48.1307C140.199 47.9678 140.278 47.7216 140.278 47.392V38.2727ZM141.483 37.1477C141.127 37.1477 140.82 37.0284 140.562 36.7898C140.305 36.5473 140.176 36.2576 140.176 35.9205C140.176 35.5871 140.305 35.3011 140.562 35.0625C140.82 34.8201 141.127 34.6989 141.483 34.6989C141.847 34.6989 142.155 34.8201 142.409 35.0625C142.667 35.3011 142.795 35.5871 142.795 35.9205C142.795 36.2576 142.667 36.5473 142.409 36.7898C142.155 37.0284 141.847 37.1477 141.483 37.1477ZM148.615 47.1705C147.717 47.1705 146.945 46.9886 146.297 46.625C145.653 46.2576 145.157 45.7386 144.808 45.0682C144.46 44.3939 144.286 43.5966 144.286 42.6761C144.286 41.7784 144.46 40.9905 144.808 40.3125C145.157 39.6345 145.647 39.1061 146.28 38.7273C146.916 38.3485 147.662 38.1591 148.518 38.1591C149.094 38.1591 149.63 38.2519 150.126 38.4375C150.626 38.6193 151.062 38.8939 151.433 39.2614C151.808 39.6288 152.1 40.0909 152.308 40.6477C152.517 41.2008 152.621 41.8485 152.621 42.5909V43.2557H145.251V41.7557H150.342C150.342 41.4072 150.267 41.0985 150.115 40.8295C149.964 40.5606 149.753 40.3504 149.484 40.1989C149.219 40.0436 148.911 39.9659 148.558 39.9659C148.191 39.9659 147.865 40.0511 147.581 40.2216C147.301 40.3883 147.081 40.6136 146.922 40.8977C146.763 41.178 146.681 41.4905 146.678 41.8352V43.2614C146.678 43.6932 146.757 44.0663 146.916 44.3807C147.079 44.6951 147.308 44.9375 147.604 45.108C147.899 45.2784 148.25 45.3636 148.655 45.3636C148.924 45.3636 149.17 45.3258 149.393 45.25C149.617 45.1742 149.808 45.0606 149.967 44.9091C150.126 44.7576 150.248 44.572 150.331 44.3523L152.57 44.5C152.456 45.0379 152.223 45.5076 151.871 45.9091C151.522 46.3068 151.071 46.6174 150.518 46.8409C149.969 47.0606 149.335 47.1705 148.615 47.1705ZM158.842 38.2727V40.0909H153.587V38.2727H158.842ZM154.78 36.1818H157.2V44.3182C157.2 44.5417 157.234 44.7159 157.303 44.8409C157.371 44.9621 157.465 45.0473 157.587 45.0966C157.712 45.1458 157.856 45.1705 158.018 45.1705C158.132 45.1705 158.246 45.161 158.359 45.142C158.473 45.1193 158.56 45.1023 158.621 45.0909L159.001 46.892C158.88 46.9299 158.71 46.9735 158.49 47.0227C158.27 47.0758 158.003 47.108 157.689 47.1193C157.106 47.142 156.594 47.0644 156.155 46.8864C155.719 46.7083 155.38 46.4318 155.138 46.0568C154.895 45.6818 154.776 45.2083 154.78 44.6364V36.1818ZM162.908 47.1648C162.351 47.1648 161.855 47.0682 161.419 46.875C160.983 46.678 160.639 46.3883 160.385 46.0057C160.135 45.6193 160.01 45.1383 160.01 44.5625C160.01 44.0777 160.099 43.6705 160.277 43.3409C160.455 43.0114 160.697 42.7462 161.004 42.5455C161.311 42.3447 161.66 42.1932 162.05 42.0909C162.444 41.9886 162.857 41.9167 163.288 41.875C163.796 41.822 164.205 41.7727 164.516 41.7273C164.826 41.678 165.052 41.6061 165.192 41.5114C165.332 41.4167 165.402 41.2765 165.402 41.0909V41.0568C165.402 40.697 165.288 40.4186 165.061 40.2216C164.838 40.0246 164.519 39.9261 164.107 39.9261C163.671 39.9261 163.324 40.0227 163.067 40.2159C162.809 40.4053 162.639 40.6439 162.555 40.9318L160.317 40.75C160.43 40.2197 160.654 39.7614 160.987 39.375C161.321 38.9848 161.75 38.6856 162.277 38.4773C162.807 38.2652 163.421 38.1591 164.118 38.1591C164.603 38.1591 165.067 38.2159 165.51 38.3295C165.957 38.4432 166.353 38.6193 166.697 38.858C167.046 39.0966 167.321 39.4034 167.521 39.7784C167.722 40.1496 167.822 40.5947 167.822 41.1136V47H165.527V45.7898H165.459C165.319 46.0625 165.131 46.303 164.896 46.5114C164.661 46.7159 164.379 46.8769 164.05 46.9943C163.72 47.108 163.339 47.1648 162.908 47.1648ZM163.601 45.4943C163.957 45.4943 164.271 45.4242 164.544 45.2841C164.817 45.1402 165.031 44.947 165.186 44.7045C165.341 44.4621 165.419 44.1875 165.419 43.8807V42.9545C165.343 43.0038 165.239 43.0492 165.107 43.0909C164.978 43.1288 164.832 43.1648 164.669 43.1989C164.506 43.2292 164.343 43.2576 164.18 43.2841C164.018 43.3068 163.87 43.3277 163.737 43.3466C163.453 43.3883 163.205 43.4545 162.993 43.5455C162.781 43.6364 162.616 43.7595 162.499 43.9148C162.381 44.0663 162.322 44.2557 162.322 44.483C162.322 44.8125 162.442 45.0644 162.68 45.2386C162.923 45.4091 163.23 45.4943 163.601 45.4943Z" fill="#235B4E"/>
<path d="M48.6447 13.6467H21V14.8213H48.6447V13.6467Z" fill="#235B4E"/>
<path d="M48.6447 15.4978H21V25.2451C21 25.6614 21.3418 25.9999 21.7581 25.9999H47.89C48.3062 25.9999 48.6447 25.6613 48.6447 25.2451L48.6447 15.4978ZM23.6671 19.2412H28.8283V21.2684H23.3115V19.2412H23.6671Z" fill="#235B4E"/>
<path d="M21.0005 12.9698H48.6452V11.7547C48.6452 11.3385 48.3034 11 47.8905 11H21.7586C21.3423 11 21.0005 11.3418 21.0005 11.7547L21.0005 12.9698Z" fill="#235B4E"/>
<path d="M89.6447 37.6467H62V38.8213H89.6447V37.6467Z" fill="#235B4E"/>
<path d="M89.6447 39.4978H62V49.2451C62 49.6614 62.3418 49.9999 62.7581 49.9999H88.89C89.3062 49.9999 89.6447 49.6613 89.6447 49.2451L89.6447 39.4978ZM64.6671 43.2412H69.8283V45.2684H64.3115V43.2412H64.6671Z" fill="#235B4E"/>
<path d="M62.0005 36.9698H89.6452V35.7547C89.6452 35.3385 89.3034 35 88.8905 35H62.7586C62.3423 35 62.0005 35.3418 62.0005 35.7547L62.0005 36.9698Z" fill="#235B4E"/>
<path d="M65.665 30.0361L64.9061 29.2771C64.8392 29.2097 64.7481 29.172 64.6532 29.172C64.5583 29.172 64.4672 29.2097 64.4002 29.2771L62.3763 31.3009V30.9999C62.3749 29.2401 61.7937 27.5299 60.7226 26.1334C59.6515 24.7371 58.1502 23.7325 56.4509 23.2752C54.7516 22.8178 52.949 22.933 51.3215 23.603C51.0484 23.7375 50.8627 24.0022 50.8295 24.3048C50.7964 24.6076 50.9202 24.9061 51.1577 25.0965C51.3954 25.2871 51.7138 25.3429 52.0019 25.2447C53.9236 24.4486 56.1159 24.6645 57.8451 25.8205C59.5743 26.9765 60.612 28.9198 60.6107 30.9996V31.3007L58.5869 29.2769C58.52 29.2095 58.429 29.1717 58.3339 29.1717C58.2389 29.1717 58.1479 29.2095 58.081 29.2769L57.3221 30.0358C57.2547 30.1027 57.2169 30.1938 57.2169 30.2889C57.2169 30.3838 57.2547 30.4749 57.3221 30.5417L61.2482 34.4527C61.3151 34.52 61.4062 34.5579 61.5011 34.5579C61.5961 34.5579 61.6871 34.52 61.7542 34.4527L65.665 30.5393C65.7324 30.4722 65.7703 30.3811 65.7703 30.2862C65.7703 30.1913 65.7324 30.1002 65.665 30.0333L65.665 30.0361Z" fill="#235B4E"/>
<path d="M56.7683 36.7525C54.847 37.5471 52.6559 37.3308 50.9274 36.1757C49.1988 35.0206 48.1605 33.079 48.1596 31.0002V30.6991L50.1834 32.7229C50.2503 32.7903 50.3413 32.8281 50.4364 32.8281C50.5314 32.8281 50.6224 32.7903 50.6893 32.7229L51.4483 31.964C51.5157 31.8971 51.5534 31.8061 51.5534 31.7109C51.5534 31.616 51.5157 31.525 51.4483 31.4581L47.5221 27.5471C47.4552 27.4798 47.3642 27.4419 47.2692 27.4419C47.1743 27.4419 47.0832 27.4798 47.0162 27.5471L43.1053 31.4606C43.0379 31.5276 43 31.6187 43 31.7136C43 31.8085 43.0379 31.8996 43.1053 31.9665L43.8643 32.7254C43.9312 32.7928 44.0222 32.8306 44.1172 32.8306C44.2121 32.8306 44.3032 32.7928 44.3702 32.7254L46.394 30.7016V31.0002C46.3954 32.76 46.9767 34.4702 48.0478 35.8667C49.1189 37.263 50.6202 38.2676 52.3194 38.7249C54.0187 39.1823 55.8214 39.0671 57.4489 38.3971C57.6818 38.3177 57.8715 38.1455 57.973 37.9212C58.0744 37.6969 58.0785 37.4407 57.9842 37.2134C57.8898 36.986 57.7058 36.8077 57.4755 36.7211C57.2451 36.6343 56.9892 36.6468 56.7685 36.7553L56.7683 36.7525Z" fill="#235B4E"/>
<defs>
<filter id="filter0_d_534_15232" x="0" y="0" width="213" height="68" filterUnits="userSpaceOnUse" color-interpolation-filters="sRGB">
<feFlood flood-opacity="0" result="BackgroundImageFix"/>
<feColorMatrix in="SourceAlpha" type="matrix" values="0 0 0 0 0 0 0 0 0 0 0 0 0 0 0 0 0 0 127 0" result="hardAlpha"/>
<feOffset dy="4"/>
<feGaussianBlur stdDeviation="2"/>
<feComposite in2="hardAlpha" operator="out"/>
<feColorMatrix type="matrix" values="0 0 0 0 0 0 0 0 0 0 0 0 0 0 0 0 0 0 0.1 0"/>
<feBlend mode="normal" in2="BackgroundImageFix" result="effect1_dropShadow_534_15232"/>
<feBlend mode="normal" in="SourceGraphic" in2="effect1_dropShadow_534_15232" result="shape"/>
</filter>
</defs>
</svg>
