<svg width="213" height="68" viewBox="0 0 213 68" fill="none" xmlns="http://www.w3.org/2000/svg">
<g filter="url(#filter0_d_534_15227)">
<rect x="4" width="205" height="60" rx="16.1973" fill="#FAFAFA"/>
<rect x="5.5" y="1.5" width="202" height="57" rx="14.6973" stroke="#235B4E" stroke-width="3"/>
</g>
<path d="M65.11 36V24.3636H69.7009C70.5797 24.3636 71.3297 24.5208 71.9509 24.8352C72.5759 25.1458 73.0513 25.5871 73.377 26.1591C73.7066 26.7273 73.8714 27.3958 73.8714 28.1648C73.8714 28.9375 73.7047 29.6023 73.3714 30.1591C73.038 30.7121 72.5551 31.1364 71.9225 31.4318C71.2937 31.7273 70.5323 31.875 69.6384 31.875H66.5645V29.8977H69.2407C69.7104 29.8977 70.1005 29.8333 70.4111 29.7045C70.7217 29.5758 70.9528 29.3826 71.1043 29.125C71.2596 28.8674 71.3373 28.5473 71.3373 28.1648C71.3373 27.7784 71.2596 27.4527 71.1043 27.1875C70.9528 26.9223 70.7198 26.7216 70.4055 26.5852C70.0948 26.4451 69.7028 26.375 69.2293 26.375H67.5702V36H65.11ZM71.3941 30.7045L74.2861 36H71.5702L68.7407 30.7045H71.3941ZM79.4012 36.1705C78.5035 36.1705 77.7307 35.9886 77.083 35.625C76.4391 35.2576 75.9429 34.7386 75.5944 34.0682C75.2459 33.3939 75.0716 32.5966 75.0716 31.6761C75.0716 30.7784 75.2459 29.9905 75.5944 29.3125C75.9429 28.6345 76.4334 28.1061 77.066 27.7273C77.7023 27.3485 78.4485 27.1591 79.3046 27.1591C79.8804 27.1591 80.4163 27.2519 80.9126 27.4375C81.4126 27.6193 81.8482 27.8939 82.2194 28.2614C82.5944 28.6288 82.886 29.0909 83.0944 29.6477C83.3027 30.2008 83.4069 30.8485 83.4069 31.5909V32.2557H76.0376V30.7557H81.1285C81.1285 30.4072 81.0527 30.0985 80.9012 29.8295C80.7497 29.5606 80.5394 29.3504 80.2705 29.1989C80.0054 29.0436 79.6966 28.9659 79.3444 28.9659C78.9769 28.9659 78.6512 29.0511 78.3671 29.2216C78.0868 29.3883 77.8671 29.6136 77.708 29.8977C77.5489 30.178 77.4675 30.4905 77.4637 30.8352V32.2614C77.4637 32.6932 77.5432 33.0663 77.7023 33.3807C77.8652 33.6951 78.0944 33.9375 78.3898 34.108C78.6853 34.2784 79.0357 34.3636 79.441 34.3636C79.7099 34.3636 79.9561 34.3258 80.1796 34.25C80.4031 34.1742 80.5944 34.0606 80.7535 33.9091C80.9126 33.7576 81.0338 33.572 81.1171 33.3523L83.3557 33.5C83.2421 34.0379 83.0091 34.5076 82.6569 34.9091C82.3084 35.3068 81.8576 35.6174 81.3046 35.8409C80.7554 36.0606 80.1209 36.1705 79.4012 36.1705ZM92.2478 29.7614L90.0319 29.8977C89.994 29.7083 89.9126 29.5379 89.7876 29.3864C89.6626 29.2311 89.4978 29.108 89.2932 29.017C89.0925 28.9223 88.8519 28.875 88.5716 28.875C88.1966 28.875 87.8804 28.9545 87.6228 29.1136C87.3652 29.2689 87.2364 29.4773 87.2364 29.7386C87.2364 29.947 87.3198 30.1231 87.4864 30.267C87.6531 30.411 87.9391 30.5265 88.3444 30.6136L89.9239 30.9318C90.7724 31.1061 91.405 31.3864 91.8216 31.7727C92.2383 32.1591 92.4466 32.6667 92.4466 33.2955C92.4466 33.8674 92.2781 34.3693 91.941 34.8011C91.6076 35.233 91.1493 35.5701 90.566 35.8125C89.9864 36.0511 89.3179 36.1705 88.5603 36.1705C87.405 36.1705 86.4845 35.9299 85.7989 35.4489C85.1171 34.964 84.7175 34.3049 84.6001 33.4716L86.9807 33.3466C87.0527 33.6989 87.2269 33.9678 87.5035 34.1534C87.78 34.3352 88.1341 34.4261 88.566 34.4261C88.9902 34.4261 89.3311 34.3447 89.5887 34.1818C89.8501 34.0152 89.9826 33.8011 89.9864 33.5398C89.9826 33.3201 89.8898 33.1402 89.708 33C89.5262 32.8561 89.2459 32.7462 88.8671 32.6705L87.3557 32.3693C86.5035 32.1989 85.869 31.9034 85.4523 31.483C85.0394 31.0625 84.833 30.5265 84.833 29.875C84.833 29.3144 84.9845 28.8314 85.2876 28.4261C85.5944 28.0208 86.0243 27.7083 86.5773 27.4886C87.1341 27.2689 87.7857 27.1591 88.5319 27.1591C89.6341 27.1591 90.5016 27.392 91.1341 27.858C91.7705 28.3239 92.1417 28.9583 92.2478 29.7614ZM98.6128 27.2727V29.0909H93.3572V27.2727H98.6128ZM94.5503 25.1818H96.9708V33.3182C96.9708 33.5417 97.0049 33.7159 97.0731 33.8409C97.1412 33.9621 97.2359 34.0473 97.3572 34.0966C97.4822 34.1458 97.6261 34.1705 97.789 34.1705C97.9026 34.1705 98.0162 34.161 98.1299 34.142C98.2435 34.1193 98.3306 34.1023 98.3912 34.0909L98.7719 35.892C98.6507 35.9299 98.4803 35.9735 98.2606 36.0227C98.0409 36.0758 97.7738 36.108 97.4594 36.1193C96.8761 36.142 96.3647 36.0644 95.9253 35.8864C95.4897 35.7083 95.1507 35.4318 94.9083 35.0568C94.6659 34.6818 94.5465 34.2083 94.5503 33.6364V25.1818ZM102.678 36.1648C102.121 36.1648 101.625 36.0682 101.19 35.875C100.754 35.678 100.409 35.3883 100.155 35.0057C99.9055 34.6193 99.7805 34.1383 99.7805 33.5625C99.7805 33.0777 99.8695 32.6705 100.047 32.3409C100.226 32.0114 100.468 31.7462 100.775 31.5455C101.082 31.3447 101.43 31.1932 101.82 31.0909C102.214 30.9886 102.627 30.9167 103.059 30.875C103.566 30.822 103.976 30.7727 104.286 30.7273C104.597 30.678 104.822 30.6061 104.962 30.5114C105.102 30.4167 105.172 30.2765 105.172 30.0909V30.0568C105.172 29.697 105.059 29.4186 104.832 29.2216C104.608 29.0246 104.29 28.9261 103.877 28.9261C103.441 28.9261 103.095 29.0227 102.837 29.2159C102.58 29.4053 102.409 29.6439 102.326 29.9318L100.087 29.75C100.201 29.2197 100.424 28.7614 100.758 28.375C101.091 27.9848 101.521 27.6856 102.047 27.4773C102.578 27.2652 103.191 27.1591 103.888 27.1591C104.373 27.1591 104.837 27.2159 105.28 27.3295C105.727 27.4432 106.123 27.6193 106.468 27.858C106.816 28.0966 107.091 28.4034 107.292 28.7784C107.493 29.1496 107.593 29.5947 107.593 30.1136V36H105.297V34.7898H105.229C105.089 35.0625 104.902 35.303 104.667 35.5114C104.432 35.7159 104.15 35.8769 103.82 35.9943C103.491 36.108 103.11 36.1648 102.678 36.1648ZM103.371 34.4943C103.727 34.4943 104.042 34.4242 104.315 34.2841C104.587 34.1402 104.801 33.947 104.957 33.7045C105.112 33.4621 105.19 33.1875 105.19 32.8807V31.9545C105.114 32.0038 105.01 32.0492 104.877 32.0909C104.748 32.1288 104.602 32.1648 104.44 32.1989C104.277 32.2292 104.114 32.2576 103.951 32.2841C103.788 32.3068 103.64 32.3277 103.508 32.3466C103.224 32.3883 102.976 32.4545 102.763 32.5455C102.551 32.6364 102.387 32.7595 102.269 32.9148C102.152 33.0663 102.093 33.2557 102.093 33.483C102.093 33.8125 102.212 34.0644 102.451 34.2386C102.693 34.4091 103 34.4943 103.371 34.4943ZM109.516 36V24.3636H111.937V28.7386H112.011C112.117 28.5038 112.27 28.2652 112.471 28.0227C112.675 27.7765 112.94 27.572 113.266 27.4091C113.596 27.2424 114.005 27.1591 114.494 27.1591C115.13 27.1591 115.717 27.3258 116.255 27.6591C116.793 27.9886 117.223 28.4867 117.545 29.1534C117.867 29.8163 118.028 30.6477 118.028 31.6477C118.028 32.6212 117.87 33.4432 117.556 34.1136C117.245 34.7803 116.821 35.286 116.283 35.6307C115.749 35.9716 115.151 36.142 114.488 36.142C114.018 36.142 113.619 36.0644 113.289 35.9091C112.963 35.7538 112.696 35.5587 112.488 35.3239C112.28 35.0852 112.12 34.8447 112.011 34.6023H111.903V36H109.516ZM111.886 31.6364C111.886 32.1553 111.958 32.608 112.101 32.9943C112.245 33.3807 112.454 33.6818 112.726 33.8977C112.999 34.1098 113.331 34.2159 113.721 34.2159C114.115 34.2159 114.448 34.108 114.721 33.892C114.994 33.6723 115.2 33.3693 115.34 32.983C115.484 32.5928 115.556 32.1439 115.556 31.6364C115.556 31.1326 115.486 30.6894 115.346 30.3068C115.206 29.9242 114.999 29.625 114.726 29.4091C114.454 29.1932 114.119 29.0852 113.721 29.0852C113.327 29.0852 112.994 29.1894 112.721 29.3977C112.452 29.6061 112.245 29.9015 112.101 30.2841C111.958 30.6667 111.886 31.1174 111.886 31.6364ZM122.063 24.3636V36H119.643V24.3636H122.063ZM127.979 36.1705C127.082 36.1705 126.309 35.9886 125.661 35.625C125.017 35.2576 124.521 34.7386 124.172 34.0682C123.824 33.3939 123.65 32.5966 123.65 31.6761C123.65 30.7784 123.824 29.9905 124.172 29.3125C124.521 28.6345 125.012 28.1061 125.644 27.7273C126.28 27.3485 127.027 27.1591 127.883 27.1591C128.458 27.1591 128.994 27.2519 129.491 27.4375C129.991 27.6193 130.426 27.8939 130.797 28.2614C131.172 28.6288 131.464 29.0909 131.672 29.6477C131.881 30.2008 131.985 30.8485 131.985 31.5909V32.2557H124.616V30.7557H129.707C129.707 30.4072 129.631 30.0985 129.479 29.8295C129.328 29.5606 129.118 29.3504 128.849 29.1989C128.583 29.0436 128.275 28.9659 127.922 28.9659C127.555 28.9659 127.229 29.0511 126.945 29.2216C126.665 29.3883 126.445 29.6136 126.286 29.8977C126.127 30.178 126.046 30.4905 126.042 30.8352V32.2614C126.042 32.6932 126.121 33.0663 126.28 33.3807C126.443 33.6951 126.672 33.9375 126.968 34.108C127.263 34.2784 127.614 34.3636 128.019 34.3636C128.288 34.3636 128.534 34.3258 128.758 34.25C128.981 34.1742 129.172 34.0606 129.332 33.9091C129.491 33.7576 129.612 33.572 129.695 33.3523L131.934 33.5C131.82 34.0379 131.587 34.5076 131.235 34.9091C130.887 35.3068 130.436 35.6174 129.883 35.8409C129.333 36.0606 128.699 36.1705 127.979 36.1705ZM137.508 36.1705C136.614 36.1705 135.845 35.9811 135.201 35.6023C134.561 35.2197 134.068 34.6894 133.724 34.0114C133.383 33.3333 133.212 32.553 133.212 31.6705C133.212 30.7765 133.385 29.9924 133.729 29.3182C134.078 28.6402 134.572 28.1117 135.212 27.733C135.852 27.3504 136.614 27.1591 137.496 27.1591C138.258 27.1591 138.924 27.2973 139.496 27.5739C140.068 27.8504 140.521 28.2386 140.854 28.7386C141.188 29.2386 141.371 29.8258 141.405 30.5H139.121C139.057 30.0644 138.887 29.714 138.61 29.4489C138.337 29.1799 137.979 29.0455 137.536 29.0455C137.161 29.0455 136.833 29.1477 136.553 29.3523C136.277 29.553 136.061 29.8466 135.905 30.233C135.75 30.6193 135.672 31.0871 135.672 31.6364C135.672 32.1932 135.748 32.6667 135.9 33.0568C136.055 33.447 136.273 33.7443 136.553 33.9489C136.833 34.1534 137.161 34.2557 137.536 34.2557C137.813 34.2557 138.061 34.1989 138.28 34.0852C138.504 33.9716 138.688 33.8068 138.832 33.5909C138.979 33.3712 139.076 33.108 139.121 32.8011H141.405C141.368 33.4678 141.186 34.0549 140.86 34.5625C140.538 35.0663 140.093 35.4602 139.525 35.7443C138.957 36.0284 138.284 36.1705 137.508 36.1705ZM146.932 36.1705C146.035 36.1705 145.262 35.9886 144.614 35.625C143.97 35.2576 143.474 34.7386 143.126 34.0682C142.777 33.3939 142.603 32.5966 142.603 31.6761C142.603 30.7784 142.777 29.9905 143.126 29.3125C143.474 28.6345 143.965 28.1061 144.597 27.7273C145.234 27.3485 145.98 27.1591 146.836 27.1591C147.412 27.1591 147.948 27.2519 148.444 27.4375C148.944 27.6193 149.379 27.8939 149.751 28.2614C150.126 28.6288 150.417 29.0909 150.626 29.6477C150.834 30.2008 150.938 30.8485 150.938 31.5909V32.2557H143.569V30.7557H148.66C148.66 30.4072 148.584 30.0985 148.432 29.8295C148.281 29.5606 148.071 29.3504 147.802 29.1989C147.537 29.0436 147.228 28.9659 146.876 28.9659C146.508 28.9659 146.182 29.0511 145.898 29.2216C145.618 29.3883 145.398 29.6136 145.239 29.8977C145.08 30.178 144.999 30.4905 144.995 30.8352V32.2614C144.995 32.6932 145.074 33.0663 145.234 33.3807C145.396 33.6951 145.626 33.9375 145.921 34.108C146.217 34.2784 146.567 34.3636 146.972 34.3636C147.241 34.3636 147.487 34.3258 147.711 34.25C147.934 34.1742 148.126 34.0606 148.285 33.9091C148.444 33.7576 148.565 33.572 148.648 33.3523L150.887 33.5C150.773 34.0379 150.54 34.5076 150.188 34.9091C149.84 35.3068 149.389 35.6174 148.836 35.8409C148.287 36.0606 147.652 36.1705 146.932 36.1705ZM152.518 36V27.2727H154.864V28.7955H154.955C155.114 28.2538 155.381 27.8447 155.756 27.5682C156.131 27.2879 156.563 27.1477 157.052 27.1477C157.173 27.1477 157.304 27.1553 157.444 27.1705C157.584 27.1856 157.707 27.2064 157.813 27.233V29.3807C157.699 29.3466 157.542 29.3163 157.342 29.2898C157.141 29.2633 156.957 29.25 156.79 29.25C156.434 29.25 156.116 29.3277 155.836 29.483C155.559 29.6345 155.34 29.8466 155.177 30.1193C155.018 30.392 154.938 30.7064 154.938 31.0625V36H152.518ZM172.546 24.3636V36H170.421L165.359 28.6761H165.273V36H162.813V24.3636H164.972L169.995 31.6818H170.097V24.3636H172.546ZM177.039 24.3636V36H174.579V24.3636H177.039ZM179.063 36V24.3636H183.654C184.537 24.3636 185.289 24.5322 185.91 24.8693C186.531 25.2027 187.004 25.6667 187.33 26.2614C187.66 26.8523 187.824 27.5341 187.824 28.3068C187.824 29.0795 187.658 29.7614 187.324 30.3523C186.991 30.9432 186.508 31.4034 185.876 31.733C185.247 32.0625 184.485 32.2273 183.592 32.2273H180.665V30.2557H183.194C183.667 30.2557 184.057 30.1742 184.364 30.0114C184.675 29.8447 184.906 29.6155 185.057 29.3239C185.213 29.0284 185.29 28.6894 185.29 28.3068C185.29 27.9205 185.213 27.5833 185.057 27.2955C184.906 27.0038 184.675 26.7784 184.364 26.6193C184.054 26.4564 183.66 26.375 183.182 26.375H181.523V36H179.063Z" fill="#235B4E"/>
<path d="M56.3974 28.5408L55.0447 27.1881C54.9255 27.068 54.7632 27.0007 54.594 27.0007C54.4248 27.0007 54.2625 27.068 54.143 27.1881L50.5358 30.7953V30.2587C50.5333 27.1221 49.4973 24.0739 47.5883 21.5848C45.6792 19.0961 43.0033 17.3056 39.9746 16.4904C36.9459 15.6752 33.7329 15.8806 30.8321 17.0748C30.3453 17.3144 30.0144 17.7862 29.9553 18.3256C29.8961 18.8653 30.1169 19.3974 30.5403 19.7368C30.9639 20.0764 31.5313 20.1758 32.0449 20.0009C35.4699 18.5819 39.3774 18.9668 42.4595 21.0272C45.5416 23.0876 47.391 26.5512 47.3889 30.2582V30.7948L43.7817 27.1876C43.6625 27.0675 43.5002 27.0002 43.3307 27.0002C43.1615 27.0002 42.9992 27.0675 42.88 27.1876L41.5273 28.5404C41.4071 28.6596 41.3398 28.8219 41.3398 28.9914C41.3398 29.1606 41.4071 29.3229 41.5273 29.4421L48.5252 36.4129C48.6444 36.5327 48.8066 36.6003 48.9759 36.6003C49.1451 36.6003 49.3073 36.5327 49.4269 36.4129L56.3974 29.4376C56.5175 29.3181 56.5851 29.1558 56.5851 28.9866C56.5851 28.8174 56.5175 28.6551 56.3974 28.5359L56.3974 28.5408Z" fill="#235B4E"/>
<path d="M40.54 40.5117C37.1156 41.928 33.2103 41.5424 30.1294 39.4836C27.0484 37.4248 25.1979 33.9642 25.1962 30.259V29.7224L28.8034 33.3296C28.9226 33.4497 29.0849 33.517 29.2544 33.517C29.4236 33.517 29.5859 33.4497 29.7051 33.3296L31.0578 31.9768C31.178 31.8576 31.2453 31.6954 31.2453 31.5258C31.2453 31.3566 31.178 31.1943 31.0578 31.0751L24.06 24.1043C23.9408 23.9845 23.7785 23.9169 23.6093 23.9169C23.4401 23.9169 23.2778 23.9845 23.1583 24.1043L16.1878 31.0796C16.0676 31.1991 16 31.3614 16 31.5306C16 31.6998 16.0676 31.8621 16.1878 31.9813L17.5405 33.334C17.6597 33.4541 17.822 33.5214 17.9912 33.5214C18.1604 33.5214 18.3227 33.4541 18.4422 33.334L22.0493 29.7269V30.259C22.0519 33.3956 23.0878 36.4438 24.9969 38.9329C26.906 41.4216 29.5818 43.2121 32.6106 44.0273C35.6393 44.8425 38.8523 44.6371 41.753 43.4429C42.1682 43.3014 42.5063 42.9944 42.6872 42.5947C42.868 42.195 42.8752 41.7383 42.7073 41.3332C42.539 40.9278 42.211 40.6101 41.8005 40.4558C41.3898 40.301 40.9337 40.3233 40.5403 40.5168L40.54 40.5117Z" fill="#235B4E"/>
<defs>
<filter id="filter0_d_534_15227" x="0" y="0" width="213" height="68" filterUnits="userSpaceOnUse" color-interpolation-filters="sRGB">
<feFlood flood-opacity="0" result="BackgroundImageFix"/>
<feColorMatrix in="SourceAlpha" type="matrix" values="0 0 0 0 0 0 0 0 0 0 0 0 0 0 0 0 0 0 127 0" result="hardAlpha"/>
<feOffset dy="4"/>
<feGaussianBlur stdDeviation="2"/>
<feComposite in2="hardAlpha" operator="out"/>
<feColorMatrix type="matrix" values="0 0 0 0 0 0 0 0 0 0 0 0 0 0 0 0 0 0 0.1 0"/>
<feBlend mode="normal" in2="BackgroundImageFix" result="effect1_dropShadow_534_15227"/>
<feBlend mode="normal" in="SourceGraphic" in2="effect1_dropShadow_534_15227" result="shape"/>
</filter>
</defs>
</svg>
