<svg width="38" height="35" viewBox="0 0 38 35" fill="none" xmlns="http://www.w3.org/2000/svg">
<path d="M21.1275 25.5128C20.4984 22.6825 18.3363 20.6777 15.4275 20.7561C15.1522 20.7561 14.9164 20.9528 14.838 21.1886L12.7154 27.4784L11.9684 23.744H12.0863C12.3616 23.744 12.558 23.5081 12.558 23.2723V22.0142C12.558 21.7389 12.3221 21.5426 12.0863 21.5426H10.4351C10.1598 21.5426 9.96343 21.7784 9.96343 22.0142V23.2723C9.96343 23.5476 10.1992 23.744 10.4351 23.744H10.553L9.80601 27.4784L7.68339 21.1886C7.60469 20.9528 7.36887 20.7561 7.09385 20.7561C4.22426 20.6774 2.06212 22.6824 1.39392 25.5128L0.0571535 31.5665C-0.257364 32.9425 0.764599 34.2003 2.17977 34.2003H20.3805C21.7565 34.2003 22.8176 32.903 22.5031 31.5665L21.1275 25.5128Z" fill="#235B4E"/>
<path d="M17.9828 13.5619C17.9828 17.2524 14.9907 20.2446 11.2999 20.2446C7.60906 20.2446 4.61719 17.2524 4.61719 13.5619C4.61719 9.87106 7.60906 6.87891 11.2999 6.87891C14.9907 6.87891 17.9828 9.87106 17.9828 13.5619Z" fill="#235B4E"/>
<path d="M29.1475 0C24.627 0 20.9316 3.65572 20.9316 8.21586V17.5324C20.9316 18.4759 22.0323 18.9868 22.7792 18.3972L25.2558 16.3925H29.1476C33.6682 16.3925 37.3635 12.7368 37.3635 8.17662C37.3632 3.65607 33.7075 7.01585e-05 29.1476 7.01585e-05L29.1475 0ZM24.8232 9.43449C24.1158 9.43449 23.5652 8.88416 23.5652 8.17641C23.5652 7.46897 24.1155 6.91834 24.8232 6.91834C25.5307 6.91834 26.0813 7.46867 26.0813 8.17641C26.0813 8.88414 25.531 9.43449 24.8232 9.43449ZM29.1475 9.43449C28.4401 9.43449 27.8894 8.88416 27.8894 8.17641C27.8894 7.46897 28.4398 6.91834 29.1475 6.91834C29.8549 6.91834 30.4056 7.46867 30.4056 8.17641C30.4053 8.88414 29.855 9.43449 29.1475 9.43449ZM33.4715 9.43449C32.7641 9.43449 32.2134 8.88416 32.2134 8.17641C32.2134 7.46897 32.7638 6.91834 33.4715 6.91834C34.1789 6.91834 34.7296 7.46867 34.7296 8.17641C34.7296 8.88414 34.1792 9.43449 33.4715 9.43449Z" fill="#235B4E"/>
</svg>
