<svg width="41" height="29" viewBox="0 0 41 29" fill="none" xmlns="http://www.w3.org/2000/svg">
<path d="M40.3969 12.5408L39.0442 11.1881C38.925 11.068 38.7627 11.0007 38.5935 11.0007C38.4243 11.0007 38.262 11.068 38.1425 11.1881L34.5353 14.7953V14.2587C34.5328 11.1221 33.4969 8.07387 31.5878 5.58483C29.6787 3.09612 27.0029 1.30563 23.9741 0.490416C20.9454 -0.324797 17.7324 -0.119419 14.8317 1.07478C14.3448 1.31444 14.014 1.7862 13.9548 2.32558C13.8956 2.86528 14.1164 3.39739 14.5398 3.73676C14.9634 4.07644 15.5308 4.17582 16.0444 4.00095C19.4694 2.58187 23.3769 2.96681 26.459 5.02719C29.5411 7.08756 31.3906 10.5512 31.3884 14.2582V14.7948L27.7812 11.1876C27.662 11.0675 27.4997 11.0002 27.3302 11.0002C27.161 11.0002 26.9987 11.0675 26.8795 11.1876L25.5268 12.5404C25.4067 12.6596 25.3393 12.8219 25.3393 12.9914C25.3393 13.1606 25.4067 13.3229 25.5268 13.4421L32.5247 20.4129C32.6439 20.5327 32.8062 20.6003 32.9754 20.6003C33.1446 20.6003 33.3069 20.5327 33.4264 20.4129L40.3969 13.4376C40.517 13.3181 40.5846 13.1558 40.5846 12.9866C40.5846 12.8174 40.517 12.6551 40.3969 12.5359L40.3969 12.5408Z" fill="#235B4E"/>
<path d="M24.54 24.5119C21.1156 25.9281 17.2103 25.5425 14.1294 23.4837C11.0484 21.4249 9.19786 17.9643 9.19625 14.2591V13.7225L12.8034 17.3297C12.9226 17.4498 13.0849 17.5171 13.2544 17.5171C13.4236 17.5171 13.5859 17.4498 13.7051 17.3297L15.0578 15.977C15.178 15.8578 15.2453 15.6955 15.2453 15.526C15.2453 15.3567 15.178 15.1945 15.0578 15.0753L8.05997 8.10444C7.94076 7.98461 7.77848 7.91699 7.60927 7.91699C7.44006 7.91699 7.27777 7.98461 7.15826 8.10444L0.187761 15.0797C0.0676165 15.1992 0 15.3615 0 15.5307C0 15.6999 0.0676197 15.8622 0.187761 15.9814L1.54049 17.3341C1.65969 17.4543 1.82198 17.5216 1.99119 17.5216C2.1604 17.5216 2.32269 17.4543 2.4422 17.3341L6.04935 13.727V14.2591C6.05187 17.3958 7.08783 20.444 8.99692 22.933C10.906 25.4217 13.5818 27.2122 16.6106 28.0274C19.6393 28.8426 22.8523 28.6373 25.753 27.4431C26.1682 27.3015 26.5063 26.9946 26.6872 26.5948C26.868 26.1951 26.8752 25.7384 26.7073 25.3333C26.539 24.9279 26.211 24.6103 25.8005 24.4559C25.3898 24.3011 24.9337 24.3235 24.5403 24.5169L24.54 24.5119Z" fill="#235B4E"/>
</svg>
