<svg width="32" height="26" viewBox="0 0 32 26" fill="none" xmlns="http://www.w3.org/2000/svg">
<path d="M31.2703 3.79693C30.1245 4.2918 28.9036 4.61981 27.6308 4.77908C28.9402 4.00928 29.9396 2.7996 30.4095 1.34154C29.1886 2.05825 27.8407 2.56449 26.4041 2.84701C25.2448 1.63164 23.5926 0.878906 21.7902 0.878906C18.2932 0.878906 15.4778 3.67368 15.4778 7.09985C15.4778 7.59282 15.5202 8.06683 15.6242 8.51809C10.3729 8.26592 5.7262 5.78778 2.60468 2.01274C2.05971 2.9437 1.74005 4.00928 1.74005 5.15639C1.74005 7.31031 2.86657 9.21963 4.54576 10.325C3.53093 10.3061 2.53535 10.016 1.69191 9.55902C1.69191 9.57798 1.69191 9.60263 1.69191 9.62728C1.69191 12.6496 3.8814 15.16 6.75258 15.7382C6.23843 15.8767 5.67805 15.943 5.0965 15.943C4.69211 15.943 4.28386 15.9203 3.90066 15.8368C4.71907 18.2998 7.04143 20.1105 9.80285 20.1693C7.6538 21.8246 4.92511 22.8219 1.97113 22.8219C1.45312 22.8219 0.956297 22.7991 0.459473 22.7366C3.25748 24.5132 6.57349 25.5276 10.1495 25.5276C21.7729 25.5276 28.1276 16.0473 28.1276 7.82983C28.1276 7.5549 28.118 7.28945 28.1045 7.0259C29.3581 6.14993 30.4114 5.0559 31.2703 3.79693Z" fill="white"/>
</svg>
