<svg width="26" height="31" viewBox="0 0 26 31" fill="none" xmlns="http://www.w3.org/2000/svg">
<path d="M13.0445 15.8658C17.4356 15.8658 20.9832 12.324 20.9832 7.9358C20.986 3.53316 17.4327 0.0173953 12.9579 6.20906e-05C8.63322 -0.0172712 5.09723 3.59671 5.11457 8.02247C5.1319 12.3644 8.67077 15.8658 13.0445 15.8658Z" fill="#691C32"/>
<path d="M25.1662 26.078C25.094 24.6509 24.6578 23.322 23.8114 22.1404C22.2225 19.9247 20.0501 18.8471 17.3201 18.7662C16.2858 18.7345 15.5347 18.9771 14.9194 19.838C14.3907 20.5776 13.7234 21.2189 13.0445 21.9902C12.4321 21.2969 11.8139 20.7451 11.3776 20.0749C10.6323 18.9396 9.64144 18.7056 8.353 18.7691C4.39524 18.9627 1.00659 22.1578 0.945923 26.078V30.7522H25.1807V26.078H25.1662V26.078Z" fill="#691C32"/>
<path d="M16.755 29.784L12.205 24.9899C11.9317 24.7019 11.9317 24.2349 12.205 23.9468L13.1949 22.9038C13.4683 22.6157 13.9115 22.6157 14.1849 22.9038L17.25 26.1333L23.8151 19.216C24.0885 18.928 24.5317 18.928 24.8051 19.216L25.795 20.2591C26.0683 20.5471 26.0683 21.0141 25.795 21.3021L17.745 29.784C17.4716 30.072 17.0284 30.072 16.755 29.784V29.784Z" fill="#BC955C"/>
</svg>
