<svg width="18" height="19" viewBox="0 0 18 19" fill="none" xmlns="http://www.w3.org/2000/svg">
<path d="M8.99962 0C4.02971 0 0 4.25359 0 9.4996C0 14.7456 4.02971 19 8.99962 19C13.9695 19 18 14.7456 18 9.4996C18 4.25359 13.9695 0 8.99962 0ZM10.8731 14.7231C10.4099 14.9161 10.0411 15.0625 9.76457 15.1638C9.48876 15.2651 9.168 15.3158 8.80305 15.3158C8.24229 15.3158 7.80571 15.171 7.49486 14.8823C7.184 14.5936 7.02933 14.2277 7.02933 13.7829C7.02933 13.61 7.04076 13.4331 7.06362 13.253C7.08724 13.0728 7.12457 12.8701 7.17562 12.6425L7.75543 10.4808C7.80648 10.2733 7.85067 10.0762 7.88571 9.89287C7.92076 9.70789 7.93752 9.5382 7.93752 9.38379C7.93752 9.10874 7.88343 8.91572 7.776 8.80715C7.66705 8.69858 7.4621 8.6455 7.15657 8.6455C7.00724 8.6455 6.85333 8.66883 6.69562 8.71788C6.53943 8.76855 6.40381 8.81439 6.29257 8.85943L6.44571 8.19352C6.82514 8.03026 7.18857 7.89033 7.53524 7.77452C7.88191 7.6571 8.20952 7.5992 8.5181 7.5992C9.07505 7.5992 9.50476 7.74235 9.80724 8.02544C10.1082 8.30933 10.2598 8.67848 10.2598 9.13206C10.2598 9.22616 10.2491 9.39183 10.2286 9.62827C10.208 9.86552 10.1691 10.0819 10.1128 10.2805L9.536 12.4359C9.48876 12.6088 9.44686 12.8066 9.40876 13.0278C9.37143 13.2489 9.35314 13.4178 9.35314 13.5312C9.35314 13.8175 9.41333 14.013 9.53524 14.1167C9.65562 14.2204 9.86667 14.2727 10.1653 14.2727C10.3063 14.2727 10.464 14.2462 10.6423 14.1947C10.819 14.1432 10.947 14.0974 11.0278 14.058L10.8731 14.7231ZM10.771 5.97465C10.5021 6.23843 10.1783 6.37033 9.79962 6.37033C9.42171 6.37033 9.09562 6.23843 8.82438 5.97465C8.55467 5.71086 8.41829 5.38997 8.41829 5.0152C8.41829 4.64123 8.55543 4.31953 8.82438 4.05333C9.09562 3.78633 9.42171 3.65363 9.79962 3.65363C10.1783 3.65363 10.5029 3.78633 10.771 4.05333C11.04 4.31953 11.1749 4.64123 11.1749 5.0152C11.1749 5.39077 11.04 5.71086 10.771 5.97465Z" fill="#4299E1"/>
</svg>
