<svg width="32" height="22" viewBox="0 0 32 22" fill="none" xmlns="http://www.w3.org/2000/svg">
<path d="M16.0001 16.2425C18.7209 16.2425 20.9265 13.8967 20.9265 11.003C20.9265 8.10926 18.7209 5.76345 16.0001 5.76345C13.2793 5.76345 11.0736 8.10926 11.0736 11.003C11.0736 13.8967 13.2793 16.2425 16.0001 16.2425Z" fill="#4C5566"/>
<path d="M31.5092 9.55162C27.7224 4.68477 21.9901 0 16.0001 0C10.0089 0 4.27528 4.68805 0.490953 9.55162C-0.163651 10.3926 -0.163651 11.6134 0.490953 12.4543C1.44238 13.6771 3.43698 16.0375 6.10096 18.0999C12.8101 23.2943 19.1752 23.3058 25.8992 18.0999C28.5632 16.0375 30.5578 13.6771 31.5092 12.4543C32.1619 11.615 32.1653 10.3953 31.5092 9.55162ZM16.0001 3.66765C19.8033 3.66765 22.8971 6.95806 22.8971 11.003C22.8971 15.0479 19.8033 18.3383 16.0001 18.3383C12.1969 18.3383 9.10303 15.0479 9.10303 11.003C9.10303 6.95806 12.1969 3.66765 16.0001 3.66765Z" fill="#4C5566"/>
</svg>
